<svg width="22" height="25" viewBox="0 0 22 25" fill="none" xmlns="http://www.w3.org/2000/svg">
<g clip-path="url(#clip0_121_23)">
<path d="M5.69232 16.9096C5.69232 16.5245 5.8301 16.1551 6.07534 15.8828C6.32058 15.6104 6.65319 15.4575 7.00001 15.4575C7.34684 15.4575 7.67945 15.6104 7.92469 15.8828C8.16993 16.1551 8.30771 16.5245 8.30771 16.9096V18.3617C8.30771 18.7468 8.16993 19.1162 7.92469 19.3885C7.67945 19.6608 7.34684 19.8138 7.00001 19.8138C6.65319 19.8138 6.32058 19.6608 6.07534 19.3885C5.8301 19.1162 5.69232 18.7468 5.69232 18.3617V16.9096ZM13.5385 11.1011C13.5385 10.7159 13.6762 10.3466 13.9215 10.0743C14.1667 9.80193 14.4993 9.64894 14.8462 9.64894C15.193 9.64894 15.5256 9.80193 15.7708 10.0743C16.0161 10.3466 16.1539 10.7159 16.1539 11.1011V18.3617C16.1539 18.7468 16.0161 19.1162 15.7708 19.3885C15.5256 19.6608 15.193 19.8138 14.8462 19.8138C14.4993 19.8138 14.1667 19.6608 13.9215 19.3885C13.6762 19.1162 13.5385 18.7468 13.5385 18.3617V11.1011ZM9.6154 14.0053C9.6154 13.6202 9.75317 13.2508 9.99841 12.9785C10.2437 12.7062 10.5763 12.5532 10.9231 12.5532C11.2699 12.5532 11.6025 12.7062 11.8478 12.9785C12.093 13.2508 12.2308 13.6202 12.2308 14.0053V18.3617C12.2308 18.7468 12.093 19.1162 11.8478 19.3885C11.6025 19.6608 11.2699 19.8138 10.9231 19.8138C10.5763 19.8138 10.2437 19.6608 9.99841 19.3885C9.75317 19.1162 9.6154 18.7468 9.6154 18.3617V14.0053Z" fill="white"/>
<path d="M5.6923 3.11436H4.38461C3.69097 3.11436 3.02573 3.42035 2.53525 3.965C2.04477 4.50965 1.76923 5.24836 1.76923 6.01862V21.266C1.76923 22.0362 2.04477 22.7749 2.53525 23.3196C3.02573 23.8642 3.69097 24.1702 4.38461 24.1702H17.4615C18.1552 24.1702 18.8204 23.8642 19.3109 23.3196C19.8014 22.7749 20.0769 22.0362 20.0769 21.266V6.01862C20.0769 5.24836 19.8014 4.50965 19.3109 3.965C18.8204 3.42035 18.1552 3.11436 17.4615 3.11436H16.1538V4.56649H17.4615C17.8084 4.56649 18.141 4.71948 18.3862 4.99181C18.6315 5.26414 18.7692 5.63349 18.7692 6.01862V21.266C18.7692 21.6511 18.6315 22.0204 18.3862 22.2928C18.141 22.5651 17.8084 22.7181 17.4615 22.7181H4.38461C4.03779 22.7181 3.70517 22.5651 3.45993 22.2928C3.21469 22.0204 3.07692 21.6511 3.07692 21.266V6.01862C3.07692 5.63349 3.21469 5.26414 3.45993 4.99181C3.70517 4.71948 4.03779 4.56649 4.38461 4.56649H5.6923V3.11436Z" fill="white"/>
<path d="M12.8846 2.3883C13.058 2.3883 13.2243 2.4648 13.347 2.60096C13.4696 2.73712 13.5385 2.9218 13.5385 3.11436V4.56649C13.5385 4.75906 13.4696 4.94373 13.347 5.0799C13.2243 5.21606 13.058 5.29256 12.8846 5.29256H8.96154C8.78813 5.29256 8.62182 5.21606 8.4992 5.0799C8.37658 4.94373 8.30769 4.75906 8.30769 4.56649V3.11436C8.30769 2.9218 8.37658 2.73712 8.4992 2.60096C8.62182 2.4648 8.78813 2.3883 8.96154 2.3883H12.8846ZM8.96154 0.936172C8.44131 0.936172 7.94238 1.16566 7.57452 1.57415C7.20666 1.98264 7 2.53667 7 3.11436V4.56649C7 5.14418 7.20666 5.69822 7.57452 6.10671C7.94238 6.5152 8.44131 6.74468 8.96154 6.74468H12.8846C13.4048 6.74468 13.9038 6.5152 14.2716 6.10671C14.6395 5.69822 14.8462 5.14418 14.8462 4.56649V3.11436C14.8462 2.53667 14.6395 1.98264 14.2716 1.57415C13.9038 1.16566 13.4048 0.936172 12.8846 0.936172L8.96154 0.936172Z" fill="white"/>
</g>
<defs>
<clipPath id="clip0_121_23">
<rect x="0.461548" y="0.936172" width="20.9231" height="23.234" rx="5" fill="white"/>
</clipPath>
</defs>
</svg>
