<svg width="20" height="20" viewBox="0 0 20 20" fill="none" xmlns="http://www.w3.org/2000/svg">
<g clip-path="url(#clip0_47_14)">
<path d="M10 19.9998C10.663 19.9998 11.2989 19.7364 11.7678 19.2675C12.2366 18.7987 12.5 18.1628 12.5 17.4998H7.5C7.5 18.1628 7.76339 18.7987 8.23223 19.2675C8.70107 19.7364 9.33696 19.9998 10 19.9998ZM10 2.39728L9.00375 2.59853C7.8737 2.82878 6.85791 3.44241 6.12831 4.33556C5.39872 5.22871 5.00012 6.34651 5 7.49978C5 8.28478 4.8325 10.246 4.42625 12.1773C4.22625 13.136 3.95625 14.1348 3.5975 14.9998H16.4025C16.0437 14.1348 15.775 13.1373 15.5737 12.1773C15.1675 10.246 15 8.28478 15 7.49978C14.9996 6.34673 14.6009 5.22922 13.8713 4.33632C13.1417 3.44343 12.1261 2.82999 10.9963 2.59978L10 2.39728ZM17.775 14.9998C18.0538 15.5585 18.3762 16.001 18.75 16.2498H1.25C1.62375 16.001 1.94625 15.5585 2.225 14.9998C3.35 12.7498 3.75 8.59978 3.75 7.49978C3.75 4.47478 5.9 1.94978 8.75625 1.37353C8.7388 1.19972 8.75798 1.02419 8.81254 0.858248C8.8671 0.692307 8.95584 0.539644 9.07303 0.410104C9.19022 0.280564 9.33325 0.177025 9.49292 0.106162C9.65258 0.0352996 9.82532 -0.00131226 10 -0.00131226C10.1747 -0.00131226 10.3474 0.0352996 10.5071 0.106162C10.6667 0.177025 10.8098 0.280564 10.927 0.410104C11.0442 0.539644 11.1329 0.692307 11.1875 0.858248C11.242 1.02419 11.2612 1.19972 11.2437 1.37353C12.6566 1.66091 13.9267 2.42773 14.839 3.54416C15.7514 4.66058 16.2498 6.058 16.25 7.49978C16.25 8.59978 16.65 12.7498 17.775 14.9998Z" fill="#C0C9F4"/>
</g>
<defs>
<clipPath id="clip0_47_14">
<rect width="20" height="20" fill="white"/>
</clipPath>
</defs>
</svg>
