<svg width="20" height="20" viewBox="0 0 20 20" fill="none" xmlns="http://www.w3.org/2000/svg">
<g clip-path="url(#clip0_16_7)">
<path d="M18.125 3.75C18.2908 3.75 18.4497 3.81585 18.5669 3.93306C18.6842 4.05027 18.75 4.20924 18.75 4.375V15.625C18.75 15.7908 18.6842 15.9497 18.5669 16.0669C18.4497 16.1842 18.2908 16.25 18.125 16.25H1.875C1.70924 16.25 1.55027 16.1842 1.43306 16.0669C1.31585 15.9497 1.25 15.7908 1.25 15.625V4.375C1.25 4.20924 1.31585 4.05027 1.43306 3.93306C1.55027 3.81585 1.70924 3.75 1.875 3.75H18.125ZM1.875 2.5C1.37772 2.5 0.900805 2.69754 0.549175 3.04917C0.197544 3.40081 0 3.87772 0 4.375L0 15.625C0 16.1223 0.197544 16.5992 0.549175 16.9508C0.900805 17.3025 1.37772 17.5 1.875 17.5H18.125C18.6223 17.5 19.0992 17.3025 19.4508 16.9508C19.8025 16.5992 20 16.1223 20 15.625V4.375C20 3.87772 19.8025 3.40081 19.4508 3.04917C19.0992 2.69754 18.6223 2.5 18.125 2.5H1.875Z" fill="#C0C9F4"/>
<path d="M8.75 6.87499C8.75 6.70923 8.81584 6.55026 8.93305 6.43305C9.05026 6.31584 9.20924 6.24999 9.375 6.24999H15.625C15.7908 6.24999 15.9497 6.31584 16.0669 6.43305C16.1841 6.55026 16.25 6.70923 16.25 6.87499C16.25 7.04075 16.1841 7.19972 16.0669 7.31693C15.9497 7.43414 15.7908 7.49999 15.625 7.49999H9.375C9.20924 7.49999 9.05026 7.43414 8.93305 7.31693C8.81584 7.19972 8.75 7.04075 8.75 6.87499ZM6.88 5.80749C6.9382 5.86554 6.98438 5.93451 7.01589 6.01045C7.04739 6.08638 7.06361 6.16778 7.06361 6.24999C7.06361 6.3322 7.04739 6.4136 7.01589 6.48953C6.98438 6.56546 6.9382 6.63443 6.88 6.69249L5.005 8.56749C4.94694 8.62569 4.87797 8.67187 4.80204 8.70338C4.72611 8.73489 4.64471 8.7511 4.5625 8.7511C4.48029 8.7511 4.39889 8.73489 4.32295 8.70338C4.24702 8.67187 4.17805 8.62569 4.12 8.56749L3.495 7.94249C3.43689 7.88438 3.39079 7.81539 3.35934 7.73947C3.32789 7.66354 3.31171 7.58217 3.31171 7.49999C3.31171 7.33402 3.37764 7.17485 3.495 7.05749C3.61235 6.94013 3.77153 6.8742 3.9375 6.8742C4.10347 6.8742 4.26264 6.94013 4.38 7.05749L4.5625 7.24124L5.995 5.80749C6.05305 5.74928 6.12202 5.7031 6.19795 5.6716C6.27389 5.64009 6.35529 5.62387 6.4375 5.62387C6.51971 5.62387 6.60111 5.64009 6.67704 5.6716C6.75297 5.7031 6.82194 5.74928 6.88 5.80749ZM8.75 11.875C8.75 11.7092 8.81584 11.5503 8.93305 11.433C9.05026 11.3158 9.20924 11.25 9.375 11.25H15.625C15.7908 11.25 15.9497 11.3158 16.0669 11.433C16.1841 11.5503 16.25 11.7092 16.25 11.875C16.25 12.0407 16.1841 12.1997 16.0669 12.3169C15.9497 12.4341 15.7908 12.5 15.625 12.5H9.375C9.20924 12.5 9.05026 12.4341 8.93305 12.3169C8.81584 12.1997 8.75 12.0407 8.75 11.875ZM6.88 10.8075C6.9382 10.8655 6.98438 10.9345 7.01589 11.0104C7.04739 11.0864 7.06361 11.1678 7.06361 11.25C7.06361 11.3322 7.04739 11.4136 7.01589 11.4895C6.98438 11.5655 6.9382 11.6344 6.88 11.6925L5.005 13.5675C4.94694 13.6257 4.87797 13.6719 4.80204 13.7034C4.72611 13.7349 4.64471 13.7511 4.5625 13.7511C4.48029 13.7511 4.39889 13.7349 4.32295 13.7034C4.24702 13.6719 4.17805 13.6257 4.12 13.5675L3.495 12.9425C3.43689 12.8844 3.39079 12.8154 3.35934 12.7395C3.32789 12.6635 3.31171 12.5822 3.31171 12.5C3.31171 12.4178 3.32789 12.3364 3.35934 12.2605C3.39079 12.1846 3.43689 12.1156 3.495 12.0575C3.55311 11.9994 3.62209 11.9533 3.69802 11.9218C3.77394 11.8904 3.85532 11.8742 3.9375 11.8742C4.01968 11.8742 4.10105 11.8904 4.17698 11.9218C4.2529 11.9533 4.32189 11.9994 4.38 12.0575L4.5625 12.2412L5.995 10.8075C6.05305 10.7493 6.12202 10.7031 6.19795 10.6716C6.27389 10.6401 6.35529 10.6239 6.4375 10.6239C6.51971 10.6239 6.60111 10.6401 6.67704 10.6716C6.75297 10.7031 6.82194 10.7493 6.88 10.8075Z" fill="#C0C9F4"/>
</g>
<defs>
<clipPath id="clip0_16_7">
<rect width="20" height="20" fill="white"/>
</clipPath>
</defs>
</svg>
