<svg width="25" height="25" viewBox="0 0 25 25" fill="none" xmlns="http://www.w3.org/2000/svg">
<g clip-path="url(#clip0_48_197)">
<path d="M6.46155 17.4362C6.46155 17.0383 6.61958 16.6568 6.90089 16.3755C7.18219 16.0942 7.56372 15.9362 7.96155 15.9362C8.35937 15.9362 8.7409 16.0942 9.02221 16.3755C9.30351 16.6568 9.46155 17.0383 9.46155 17.4362V18.9362C9.46155 19.334 9.30351 19.7155 9.02221 19.9968C8.7409 20.2781 8.35937 20.4362 7.96155 20.4362C7.56372 20.4362 7.18219 20.2781 6.90089 19.9968C6.61958 19.7155 6.46155 19.334 6.46155 18.9362V17.4362ZM15.4615 11.4362C15.4615 11.0383 15.6196 10.6568 15.9009 10.3755C16.1822 10.0942 16.5637 9.93616 16.9615 9.93616C17.3594 9.93616 17.7409 10.0942 18.0222 10.3755C18.3035 10.6568 18.4615 11.0383 18.4615 11.4362V18.9362C18.4615 19.334 18.3035 19.7155 18.0222 19.9968C17.7409 20.2781 17.3594 20.4362 16.9615 20.4362C16.5637 20.4362 16.1822 20.2781 15.9009 19.9968C15.6196 19.7155 15.4615 19.334 15.4615 18.9362V11.4362ZM10.9615 14.4362C10.9615 14.0383 11.1196 13.6568 11.4009 13.3755C11.6822 13.0942 12.0637 12.9362 12.4615 12.9362C12.8594 12.9362 13.2409 13.0942 13.5222 13.3755C13.8035 13.6568 13.9615 14.0383 13.9615 14.4362V18.9362C13.9615 19.334 13.8035 19.7155 13.5222 19.9968C13.2409 20.2781 12.8594 20.4362 12.4615 20.4362C12.0637 20.4362 11.6822 20.2781 11.4009 19.9968C11.1196 19.7155 10.9615 19.334 10.9615 18.9362V14.4362Z" fill="black"/>
<path d="M6.46155 3.18616H4.96155C4.1659 3.18616 3.40284 3.50223 2.84023 4.06484C2.27762 4.62745 1.96155 5.39051 1.96155 6.18616V21.9362C1.96155 22.7318 2.27762 23.4949 2.84023 24.0575C3.40284 24.6201 4.1659 24.9362 4.96155 24.9362H19.9615C20.7572 24.9362 21.5203 24.6201 22.0829 24.0575C22.6455 23.4949 22.9615 22.7318 22.9615 21.9362V6.18616C22.9615 5.39051 22.6455 4.62745 22.0829 4.06484C21.5203 3.50223 20.7572 3.18616 19.9615 3.18616H18.4615V4.68616H19.9615C20.3594 4.68616 20.7409 4.84419 21.0222 5.1255C21.3035 5.4068 21.4615 5.78833 21.4615 6.18616V21.9362C21.4615 22.334 21.3035 22.7155 21.0222 22.9968C20.7409 23.2781 20.3594 23.4362 19.9615 23.4362H4.96155C4.56372 23.4362 4.18219 23.2781 3.90089 22.9968C3.61958 22.7155 3.46155 22.334 3.46155 21.9362V6.18616C3.46155 5.78833 3.61958 5.4068 3.90089 5.1255C4.18219 4.84419 4.56372 4.68616 4.96155 4.68616H6.46155V3.18616Z" fill="black"/>
<path d="M14.7115 2.43616C14.9105 2.43616 15.1012 2.51517 15.2419 2.65583C15.3825 2.79648 15.4615 2.98724 15.4615 3.18616V4.68616C15.4615 4.88507 15.3825 5.07583 15.2419 5.21649C15.1012 5.35714 14.9105 5.43616 14.7115 5.43616H10.2115C10.0126 5.43616 9.82187 5.35714 9.68122 5.21649C9.54057 5.07583 9.46155 4.88507 9.46155 4.68616V3.18616C9.46155 2.98724 9.54057 2.79648 9.68122 2.65583C9.82187 2.51517 10.0126 2.43616 10.2115 2.43616H14.7115ZM10.2115 0.936157C9.61481 0.936157 9.04251 1.17321 8.62056 1.59517C8.1986 2.01712 7.96155 2.58942 7.96155 3.18616V4.68616C7.96155 5.28289 8.1986 5.85519 8.62056 6.27715C9.04251 6.6991 9.61481 6.93616 10.2115 6.93616H14.7115C15.3083 6.93616 15.8806 6.6991 16.3025 6.27715C16.7245 5.85519 16.9615 5.28289 16.9615 4.68616V3.18616C16.9615 2.58942 16.7245 2.01712 16.3025 1.59517C15.8806 1.17321 15.3083 0.936157 14.7115 0.936157L10.2115 0.936157Z" fill="black"/>
</g>
<defs>
<clipPath id="clip0_48_197">
<rect x="0.461548" y="0.936157" width="24" height="24" rx="5" fill="white"/>
</clipPath>
</defs>
</svg>
