<svg width="32" height="32" viewBox="0 0 32 32" fill="none" xmlns="http://www.w3.org/2000/svg">
<path fill-rule="evenodd" clip-rule="evenodd" d="M10 23C10 22.7348 10.1054 22.4804 10.2929 22.2929C10.4804 22.1054 10.7348 22 11 22H29C29.2652 22 29.5196 22.1054 29.7071 22.2929C29.8946 22.4804 30 22.7348 30 23C30 23.2652 29.8946 23.5196 29.7071 23.7071C29.5196 23.8946 29.2652 24 29 24H11C10.7348 24 10.4804 23.8946 10.2929 23.7071C10.1054 23.5196 10 23.2652 10 23ZM10 15C10 14.7348 10.1054 14.4804 10.2929 14.2929C10.4804 14.1054 10.7348 14 11 14H29C29.2652 14 29.5196 14.1054 29.7071 14.2929C29.8946 14.4804 30 14.7348 30 15C30 15.2652 29.8946 15.5196 29.7071 15.7071C29.5196 15.8946 29.2652 16 29 16H11C10.7348 16 10.4804 15.8946 10.2929 15.7071C10.1054 15.5196 10 15.2652 10 15ZM10 7C10 6.73478 10.1054 6.48043 10.2929 6.29289C10.4804 6.10536 10.7348 6 11 6H29C29.2652 6 29.5196 6.10536 29.7071 6.29289C29.8946 6.48043 30 6.73478 30 7C30 7.26522 29.8946 7.51957 29.7071 7.70711C29.5196 7.89464 29.2652 8 29 8H11C10.7348 8 10.4804 7.89464 10.2929 7.70711C10.1054 7.51957 10 7.26522 10 7ZM4 9C4.53043 9 5.03914 8.78929 5.41421 8.41421C5.78929 8.03914 6 7.53043 6 7C6 6.46957 5.78929 5.96086 5.41421 5.58579C5.03914 5.21071 4.53043 5 4 5C3.46957 5 2.96086 5.21071 2.58579 5.58579C2.21071 5.96086 2 6.46957 2 7C2 7.53043 2.21071 8.03914 2.58579 8.41421C2.96086 8.78929 3.46957 9 4 9ZM4 17C4.53043 17 5.03914 16.7893 5.41421 16.4142C5.78929 16.0391 6 15.5304 6 15C6 14.4696 5.78929 13.9609 5.41421 13.5858C5.03914 13.2107 4.53043 13 4 13C3.46957 13 2.96086 13.2107 2.58579 13.5858C2.21071 13.9609 2 14.4696 2 15C2 15.5304 2.21071 16.0391 2.58579 16.4142C2.96086 16.7893 3.46957 17 4 17ZM4 25C4.53043 25 5.03914 24.7893 5.41421 24.4142C5.78929 24.0391 6 23.5304 6 23C6 22.4696 5.78929 21.9609 5.41421 21.5858C5.03914 21.2107 4.53043 21 4 21C3.46957 21 2.96086 21.2107 2.58579 21.5858C2.21071 21.9609 2 22.4696 2 23C2 23.5304 2.21071 24.0391 2.58579 24.4142C2.96086 24.7893 3.46957 25 4 25Z" fill="#C0C9F4"/>
</svg>
