<svg width="30" height="30" viewBox="0 0 30 30" fill="#fff" xmlns="http://www.w3.org/2000/svg">
<path d="M15 20C16.9891 20 18.8968 19.2098 20.3033 17.8033C21.7098 16.3968 22.5 14.4891 22.5 12.5C22.5 10.5109 21.7098 8.60322 20.3033 7.1967C18.8968 5.79018 16.9891 5 15 5C13.0109 5 11.1032 5.79018 9.6967 7.1967C8.29018 8.60322 7.5 10.5109 7.5 12.5C7.5 14.4891 8.29018 16.3968 9.6967 17.8033C11.1032 19.2098 13.0109 20 15 20ZM20 12.5C20 13.8261 19.4732 15.0979 18.5355 16.0355C17.5979 16.9732 16.3261 17.5 15 17.5C13.6739 17.5 12.4021 16.9732 11.4645 16.0355C10.5268 15.0979 10 13.8261 10 12.5C10 11.1739 10.5268 9.90215 11.4645 8.96447C12.4021 8.02678 13.6739 7.5 15 7.5C16.3261 7.5 17.5979 8.02678 18.5355 8.96447C19.4732 9.90215 20 11.1739 20 12.5ZM30 32.5C30 35 27.5 35 27.5 35H2.5C2.5 35 0 35 0 32.5C0 30 2.5 22.5 15 22.5C27.5 22.5 30 30 30 32.5ZM27.5 32.49C27.4975 31.875 27.115 30.025 25.42 28.33C23.79 26.7 20.7225 25 15 25C9.275 25 6.21 26.7 4.58 28.33C2.885 30.025 2.505 31.875 2.5 32.49H27.5Z" fill="white"/>
</svg>
