<svg width="20" height="20" viewBox="0 0 20 20" fill="none" xmlns="http://www.w3.org/2000/svg">
<g clip-path="url(#clip0_48_71)">
<path d="M10 5.9425C9.46716 5.9425 8.93954 6.04746 8.44726 6.25136C7.95498 6.45527 7.50769 6.75415 7.13091 7.13092C6.75414 7.50769 6.45527 7.95499 6.25136 8.44727C6.04745 8.93955 5.9425 9.46717 5.9425 10C5.9425 10.5328 6.04745 11.0605 6.25136 11.5527C6.45527 12.045 6.75414 12.4923 7.13091 12.8691C7.50769 13.2459 7.95498 13.5447 8.44726 13.7486C8.93954 13.9526 9.46716 14.0575 10 14.0575C11.0761 14.0575 12.1082 13.63 12.8691 12.8691C13.63 12.1082 14.0575 11.0761 14.0575 10C14.0575 8.92389 13.63 7.89185 12.8691 7.13092C12.1082 6.36999 11.0761 5.9425 10 5.9425ZM7.1925 10C7.1925 9.25541 7.48829 8.54131 8.0148 8.0148C8.54131 7.48829 9.2554 7.1925 10 7.1925C10.7446 7.1925 11.4587 7.48829 11.9852 8.0148C12.5117 8.54131 12.8075 9.25541 12.8075 10C12.8075 10.7446 12.5117 11.4587 11.9852 11.9852C11.4587 12.5117 10.7446 12.8075 10 12.8075C9.2554 12.8075 8.54131 12.5117 8.0148 11.9852C7.48829 11.4587 7.1925 10.7446 7.1925 10Z" fill="#C0C9F4"/>
<path d="M12.2449 1.67861C11.5861 -0.558887 8.41362 -0.558887 7.75487 1.67861L7.63737 2.07736C7.59137 2.23355 7.511 2.37747 7.40215 2.49856C7.29329 2.61965 7.15872 2.71485 7.0083 2.77718C6.85788 2.83951 6.69541 2.86738 6.53282 2.85876C6.37022 2.85014 6.21162 2.80524 6.06862 2.72736L5.70362 2.52736C3.65362 1.41236 1.41237 3.65486 2.52862 5.70361L2.72737 6.06861C2.80526 6.2116 2.85015 6.37021 2.85877 6.53281C2.86739 6.6954 2.83952 6.85787 2.77719 7.00829C2.71486 7.15871 2.61966 7.29328 2.49857 7.40213C2.37748 7.51099 2.23356 7.59136 2.07737 7.63736L1.67862 7.75486C-0.558875 8.41361 -0.558875 11.5861 1.67862 12.2449L2.07737 12.3624C2.23356 12.4084 2.37748 12.4887 2.49857 12.5976C2.61966 12.7064 2.71486 12.841 2.77719 12.9914C2.83952 13.1419 2.86739 13.3043 2.85877 13.4669C2.85015 13.6295 2.80526 13.7881 2.72737 13.9311L2.52737 14.2961C1.41237 16.3461 3.65362 18.5886 5.70362 17.4711L6.06862 17.2724C6.21162 17.1945 6.37022 17.1496 6.53282 17.141C6.69541 17.1323 6.85788 17.1602 7.0083 17.2225C7.15872 17.2849 7.29329 17.3801 7.40215 17.5012C7.511 17.6223 7.59137 17.7662 7.63737 17.9224L7.75487 18.3211C8.41362 20.5586 11.5861 20.5586 12.2449 18.3211L12.3624 17.9224C12.4084 17.7662 12.4888 17.6223 12.5976 17.5012C12.7065 17.3801 12.841 17.2849 12.9914 17.2225C13.1419 17.1602 13.3043 17.1323 13.4669 17.141C13.6295 17.1496 13.7881 17.1945 13.9311 17.2724L14.2961 17.4724C16.3461 18.5886 18.5886 16.3449 17.4711 14.2961L17.2724 13.9311C17.1945 13.7881 17.1496 13.6295 17.141 13.4669C17.1324 13.3043 17.1602 13.1419 17.2226 12.9914C17.2849 12.841 17.3801 12.7064 17.5012 12.5976C17.6223 12.4887 17.7662 12.4084 17.9224 12.3624L18.3211 12.2449C20.5586 11.5861 20.5586 8.41361 18.3211 7.75486L17.9224 7.63736C17.7662 7.59136 17.6223 7.51099 17.5012 7.40213C17.3801 7.29328 17.2849 7.15871 17.2226 7.00829C17.1602 6.85787 17.1324 6.6954 17.141 6.53281C17.1496 6.37021 17.1945 6.2116 17.2724 6.06861L17.4724 5.70361C18.5886 3.65361 16.3449 1.41236 14.2961 2.52861L13.9311 2.72736C13.7881 2.80524 13.6295 2.85014 13.4669 2.85876C13.3043 2.86738 13.1419 2.83951 12.9914 2.77718C12.841 2.71485 12.7065 2.61965 12.5976 2.49856C12.4888 2.37747 12.4084 2.23355 12.3624 2.07736L12.2449 1.67861ZM8.95362 2.03236C9.26112 0.988613 10.7386 0.988613 11.0461 2.03236L11.1636 2.43111C11.2624 2.76622 11.4349 3.07497 11.6685 3.33474C11.9021 3.5945 12.1909 3.79869 12.5137 3.93234C12.8365 4.06598 13.1851 4.1257 13.534 4.1071C13.8828 4.0885 14.2231 3.99207 14.5299 3.82486L14.8936 3.62486C15.8486 3.10611 16.8936 4.14986 16.3736 5.10611L16.1749 5.47111C16.0079 5.7779 15.9117 6.11815 15.8933 6.46693C15.8749 6.81572 15.9348 7.1642 16.0686 7.48684C16.2023 7.80949 16.4066 8.09812 16.6663 8.33158C16.9261 8.56505 17.2348 8.73744 17.5699 8.83611L17.9674 8.95361C19.0111 9.26111 19.0111 10.7386 17.9674 11.0461L17.5686 11.1636C17.2335 11.2624 16.9248 11.4349 16.665 11.6685C16.4052 11.9021 16.201 12.1909 16.0674 12.5137C15.9338 12.8365 15.874 13.1851 15.8926 13.534C15.9112 13.8828 16.0077 14.2231 16.1749 14.5299L16.3749 14.8936C16.8936 15.8486 15.8499 16.8936 14.8936 16.3736L14.5299 16.1749C14.223 16.0077 13.8827 15.9113 13.5337 15.8928C13.1848 15.8743 12.8362 15.9341 12.5134 16.0678C12.1905 16.2016 11.9018 16.406 11.6682 16.6659C11.4347 16.9258 11.2623 17.2346 11.1636 17.5699L11.0461 17.9674C10.7386 19.0111 9.26112 19.0111 8.95362 17.9674L8.83612 17.5686C8.73731 17.2337 8.56482 16.9251 8.33129 16.6655C8.09776 16.4058 7.80911 16.2017 7.48649 16.0681C7.16386 15.9345 6.81543 15.8747 6.46671 15.8932C6.11799 15.9116 5.77783 16.0079 5.47112 16.1749L5.10612 16.3749C4.15112 16.8936 3.10612 15.8499 3.62612 14.8936L3.82487 14.5299C3.99231 14.2231 4.08894 13.8827 4.10766 13.5337C4.12638 13.1846 4.06672 12.8359 3.93305 12.5129C3.79939 12.19 3.59512 11.901 3.33522 11.6673C3.07533 11.4336 2.76641 11.2611 2.43112 11.1624L2.03237 11.0449C0.988625 10.7374 0.988625 9.25986 2.03237 8.95236L2.43112 8.83486C2.76588 8.736 3.0743 8.56354 3.3338 8.3301C3.59331 8.09666 3.79733 7.80815 3.93094 7.48568C4.06455 7.16322 4.12437 6.81496 4.10602 6.46639C4.08767 6.11782 3.99161 5.77777 3.82487 5.47111L3.62487 5.10611C3.10612 4.15111 4.14987 3.10611 5.10612 3.62611L5.47112 3.82486C5.77783 3.99183 6.11799 4.08808 6.46671 4.10655C6.81543 4.12503 7.16386 4.06526 7.48649 3.93163C7.80911 3.79801 8.09776 3.5939 8.33129 3.33426C8.56482 3.07463 8.73731 2.76605 8.83612 2.43111L8.95362 2.03236Z" fill="#C0C9F4"/>
</g>
<defs>
<clipPath id="clip0_48_71">
<rect width="20" height="20" fill="white"/>
</clipPath>
</defs>
</svg>
