<svg width="20" height="20" viewBox="0 0 20 20" fill="none" xmlns="http://www.w3.org/2000/svg">
<path d="M16.6667 6.66669H11.99L12.9258 3.86085C13.0942 3.35419 13.0092 2.79252 12.6967 2.35919C12.3842 1.92585 11.8775 1.66669 11.3433 1.66669H10C9.7525 1.66669 9.51833 1.77669 9.35916 1.96669L5.4425 6.66669H3.33333C2.41416 6.66669 1.66666 7.41419 1.66666 8.33335V15.8334C1.66666 16.7525 2.41416 17.5 3.33333 17.5H14.4225C14.7616 17.4989 15.0923 17.3949 15.371 17.2018C15.6497 17.0086 15.8632 16.7354 15.9833 16.4184L18.2808 10.2925C18.3157 10.199 18.3335 10.0999 18.3333 10V8.33335C18.3333 7.41419 17.5858 6.66669 16.6667 6.66669ZM3.33333 8.33335H5V15.8334H3.33333V8.33335ZM16.6667 9.84919L14.4225 15.8334H6.66666V7.80169L10.39 3.33335H11.345L10.0433 7.23585C10.0011 7.36112 9.98929 7.49465 10.0089 7.62538C10.0286 7.7561 10.0792 7.88026 10.1564 7.98756C10.2336 8.09485 10.3353 8.18218 10.453 8.24232C10.5708 8.30246 10.7011 8.33367 10.8333 8.33335H16.6667V9.84919Z" fill="#C0C9F4"/>
</svg>
