<svg width="49" height="30" viewBox="0 0 49 30" fill="none" xmlns="http://www.w3.org/2000/svg">
<path d="M24.8675 2.08125C26.5309 2.08125 28.1262 2.5198 29.3025 3.30042C30.4787 4.08104 31.1395 5.13979 31.1395 6.24375V14.5687H18.5955V6.24375C18.5955 5.13979 19.2563 4.08104 20.4325 3.30042C21.6088 2.5198 23.2041 2.08125 24.8675 2.08125ZM34.2755 14.5687V6.24375C34.2755 4.5878 33.2843 2.99968 31.52 1.82875C29.7556 0.657822 27.3627 0 24.8675 0C22.3723 0 19.9794 0.657822 18.215 1.82875C16.4507 2.99968 15.4595 4.5878 15.4595 6.24375V14.5687C13.7961 14.5687 12.2008 15.0073 11.0245 15.7879C9.8483 16.5685 9.1875 17.6273 9.1875 18.7312V29.1375C9.1875 30.2415 9.8483 31.3002 11.0245 32.0808C12.2008 32.8615 13.7961 33.3 15.4595 33.3H34.2755C35.9389 33.3 37.5342 32.8615 38.7105 32.0808C39.8867 31.3002 40.5475 30.2415 40.5475 29.1375V18.7312C40.5475 17.6273 39.8867 16.5685 38.7105 15.7879C37.5342 15.0073 35.9389 14.5687 34.2755 14.5687ZM15.4595 16.65H34.2755C35.1072 16.65 35.9049 16.8693 36.493 17.2596C37.0811 17.6499 37.4115 18.1793 37.4115 18.7312V29.1375C37.4115 29.6895 37.0811 30.2189 36.493 30.6092C35.9049 30.9995 35.1072 31.2187 34.2755 31.2187H15.4595C14.6278 31.2187 13.8301 30.9995 13.242 30.6092C12.6539 30.2189 12.3235 29.6895 12.3235 29.1375V18.7312C12.3235 18.1793 12.6539 17.6499 13.242 17.2596C13.8301 16.8693 14.6278 16.65 15.4595 16.65Z" fill="white"/>
</svg>
