<svg width="75" height="75" viewBox="0 0 108 88" fill="none" xmlns="http://www.w3.org/2000/svg">
<g filter="url(#filter0_d_113_10)">
<path d="M76.7273 16V57.117L83.5455 63.1611L90.3636 57.117V16H76.7273ZM76.7273 12H90.3636V4.05887H76.7273V12ZM94.9091 20V57.9411C94.9091 58.469 94.6719 58.9755 94.2493 59.3501L85.1584 67.409C84.2695 68.197 82.8214 68.197 81.9325 67.409L72.8416 59.3501C72.419 58.9755 72.1818 58.469 72.1818 57.9411V48H69.9091C66.1435 48 63.0909 45.3137 63.0909 42V30C63.0909 26.6863 66.1435 24 69.9091 24H72.1818V20H26.7273V50C26.7273 51.1046 25.7097 52 24.4545 52H22.1818C14.6507 52 8.54545 57.3726 8.54545 64C8.54545 70.6274 14.6507 76 22.1818 76H99.4545V20H94.9091ZM94.9091 16H101.727C102.982 16 104 16.8954 104 18V78C104 79.1046 102.982 80 101.727 80H22.1818C12.1403 80 4 72.8366 4 64V18C4 8.05887 13.1578 0 24.4545 0C25.7097 0 26.7273 0.895431 26.7273 2V16H72.1818V2.05887C72.1818 0.954305 73.1994 0.0588741 74.4545 0.0588741H92.6364C93.8916 0.0588741 94.9091 0.954305 94.9091 2.05887V16ZM72.1818 28H69.9091C68.6539 28 67.6364 28.8954 67.6364 30V42C67.6364 43.1046 68.6539 44 69.9091 44H72.1818V28ZM8.54545 53.4167C11.877 50.095 16.7514 48 22.1818 48V4.14178C14.4721 5.11224 8.54545 10.9471 8.54545 18V53.4167ZM38.0909 24H51.7273C55.4928 24 58.5455 26.6863 58.5455 30V42C58.5455 45.3137 55.4928 48 51.7273 48H38.0909C34.3253 48 31.2727 45.3137 31.2727 42V30C31.2727 26.6863 34.3253 24 38.0909 24ZM38.0909 28C36.8357 28 35.8182 28.8954 35.8182 30V42C35.8182 43.1046 36.8357 44 38.0909 44H51.7273C52.9825 44 54 43.1046 54 42V30C54 28.8954 52.9825 28 51.7273 28H38.0909ZM33.5455 60C32.2903 60 31.2727 59.1046 31.2727 58C31.2727 56.8954 32.2903 56 33.5455 56H65.3636C66.6188 56 67.6364 56.8954 67.6364 58C67.6364 59.1046 66.6188 60 65.3636 60H33.5455ZM33.5455 68C32.2903 68 31.2727 67.1046 31.2727 66C31.2727 64.8954 32.2903 64 33.5455 64H69.9091C71.1643 64 72.1818 64.8954 72.1818 66C72.1818 67.1046 71.1643 68 69.9091 68H33.5455Z" fill="#F2F4F3"/>
</g>
<defs>
<filter id="filter0_d_113_10" x="0" y="0" width="108" height="88" filterUnits="userSpaceOnUse" color-interpolation-filters="sRGB">
<feFlood flood-opacity="0" result="BackgroundImageFix"/>
<feColorMatrix in="SourceAlpha" type="matrix" values="0 0 0 0 0 0 0 0 0 0 0 0 0 0 0 0 0 0 127 0" result="hardAlpha"/>
<feOffset dy="10"/>
<feGaussianBlur stdDeviation="2"/>
<feComposite in2="hardAlpha" operator="out"/>
<feColorMatrix type="matrix" values="0 0 0 0 0 0 0 0 0 0 0 0 0 0 0 0 0 0 0.5 0"/>
<feBlend mode="normal" in2="BackgroundImageFix" result="effect1_dropShadow_113_10"/>
<feBlend mode="normal" in="SourceGraphic" in2="effect1_dropShadow_113_10" result="shape"/>
</filter>
</defs>
</svg>
