<svg width="50" height="40" viewBox="0 0 50 40" fill="none" xmlns="http://www.w3.org/2000/svg">
<path d="M36.3636 8V28.5585L39.7727 31.5806L43.1818 28.5585V8H36.3636ZM36.3636 6H43.1818V2.02944H36.3636V6ZM45.4545 10V28.9706C45.4545 29.2345 45.336 29.4878 45.1247 29.6751L40.5792 33.7045C40.1348 34.0985 39.4107 34.0985 38.9663 33.7045L34.4208 29.6751C34.2095 29.4878 34.0909 29.2345 34.0909 28.9706V24H32.9545C31.0718 24 29.5455 22.6569 29.5455 21V15C29.5455 13.3431 31.0718 12 32.9545 12H34.0909V10H11.3636V25C11.3636 25.5523 10.8549 26 10.2273 26H9.09091C5.32533 26 2.27273 28.6863 2.27273 32C2.27273 35.3137 5.32533 38 9.09091 38H47.7273V10H45.4545ZM45.4545 8H48.8636C49.4912 8 50 8.44772 50 9V39C50 39.5523 49.4912 40 48.8636 40H9.09091C4.07014 40 0 36.4183 0 32V9C0 4.02944 4.57891 0 10.2273 0C10.8549 0 11.3636 0.447715 11.3636 1V8H34.0909V1.02944C34.0909 0.477152 34.5997 0.0294371 35.2273 0.0294371H44.3182C44.9458 0.0294371 45.4545 0.477152 45.4545 1.02944V8ZM34.0909 14H32.9545C32.3269 14 31.8182 14.4477 31.8182 15V21C31.8182 21.5523 32.3269 22 32.9545 22H34.0909V14ZM2.27273 26.7084C3.93851 25.0475 6.3757 24 9.09091 24V2.07089C5.23603 2.55612 2.27273 5.47353 2.27273 9V26.7084ZM17.0455 12H23.8636C25.7464 12 27.2727 13.3431 27.2727 15V21C27.2727 22.6569 25.7464 24 23.8636 24H17.0455C15.1627 24 13.6364 22.6569 13.6364 21V15C13.6364 13.3431 15.1627 12 17.0455 12ZM17.0455 14C16.4179 14 15.9091 14.4477 15.9091 15V21C15.9091 21.5523 16.4179 22 17.0455 22H23.8636C24.4912 22 25 21.5523 25 21V15C25 14.4477 24.4912 14 23.8636 14H17.0455ZM14.7727 30C14.1451 30 13.6364 29.5523 13.6364 29C13.6364 28.4477 14.1451 28 14.7727 28H30.6818C31.3094 28 31.8182 28.4477 31.8182 29C31.8182 29.5523 31.3094 30 30.6818 30H14.7727ZM14.7727 34C14.1451 34 13.6364 33.5523 13.6364 33C13.6364 32.4477 14.1451 32 14.7727 32H32.9545C33.5821 32 34.0909 32.4477 34.0909 33C34.0909 33.5523 33.5821 34 32.9545 34H14.7727Z" fill="black"/>
</svg>
