<svg width="25" height="27" viewBox="0 0 25 27" fill="none" xmlns="http://www.w3.org/2000/svg">
<path d="M15.7487 1.60661C16.6864 0.668927 17.9582 0.142143 19.2843 0.142143C20.6104 0.142143 21.8821 0.668927 22.8198 1.60661C23.7575 2.54429 24.2843 3.81606 24.2843 5.14214C24.2843 6.46823 23.7575 7.74 22.8198 8.67768L10.0919 21.4056C9.52927 21.9682 8.76621 22.2843 7.97056 22.2843C7.17491 22.2843 6.41185 21.9682 5.84924 21.4056C5.28663 20.843 4.97056 20.0799 4.97056 19.2843C4.97056 18.4886 5.28663 17.7256 5.84924 17.163L15.7487 7.26346C15.9363 7.07593 16.1906 6.97057 16.4558 6.97057C16.7211 6.97057 16.9754 7.07593 17.163 7.26346C17.3505 7.451 17.4558 7.70535 17.4558 7.97057C17.4558 8.23579 17.3505 8.49014 17.163 8.67768L7.26346 18.5772C7.07592 18.7647 6.97056 19.0191 6.97056 19.2843C6.97056 19.5495 7.07592 19.8038 7.26346 19.9914C7.45099 20.1789 7.70535 20.2843 7.97056 20.2843C8.23578 20.2843 8.49013 20.1789 8.67767 19.9914L21.4056 7.26346C21.6842 6.98489 21.9051 6.65417 22.0559 6.29019C22.2067 5.92622 22.2843 5.53611 22.2843 5.14214C22.2843 4.74818 22.2067 4.35807 22.0559 3.99409C21.9051 3.63012 21.6842 3.2994 21.4056 3.02082C21.127 2.74225 20.7963 2.52127 20.4323 2.3705C20.0683 2.21974 19.6782 2.14214 19.2843 2.14214C18.8903 2.14214 18.5002 2.21974 18.1362 2.3705C17.7722 2.52127 17.4415 2.74225 17.163 3.02082L4.43503 15.7487C3.49735 16.6864 2.97056 17.9582 2.97056 19.2843C2.97056 20.6104 3.49735 21.8821 4.43503 22.8198C5.37271 23.7575 6.64448 24.2843 7.97056 24.2843C9.29665 24.2843 10.5684 23.7575 11.5061 22.8198L21.4056 12.9203C21.5931 12.7328 21.8475 12.6274 22.1127 12.6274C22.3779 12.6274 22.6323 12.7328 22.8198 12.9203C23.0073 13.1079 23.1127 13.3622 23.1127 13.6274C23.1127 13.8926 23.0073 14.147 22.8198 14.3345L12.9203 24.234C11.6076 25.5468 9.82708 26.2843 7.97056 26.2843C6.11405 26.2843 4.33357 25.5468 3.02082 24.234C1.70806 22.9213 0.970564 21.1408 0.970564 19.2843C0.970563 17.4278 1.70806 15.6473 3.02082 14.3345L15.7487 1.60661Z" fill="#C0C9F4"/>
</svg>
