<svg width="30" height="30" viewBox="0 0 50 40" fill="none" xmlns="http://www.w3.org/2000/svg">
<g clip-path="url(#clip0_94_18)">
<path d="M25.375 3.04115C27.0724 3.04115 28.7003 3.50326 29.9005 4.3258C31.1007 5.14835 31.775 6.26397 31.775 7.42723V16.1994H18.975V7.42723C18.975 6.26397 19.6493 5.14835 20.8495 4.3258C22.0497 3.50326 23.6776 3.04115 25.375 3.04115ZM34.975 16.1994V7.42723C34.975 5.68234 33.9636 4.00891 32.1632 2.77509C30.3629 1.54127 27.9211 0.848114 25.375 0.848114C22.8289 0.848114 20.3871 1.54127 18.5868 2.77509C16.7864 4.00891 15.775 5.68234 15.775 7.42723V16.1994C14.0776 16.1994 12.4497 16.6615 11.2495 17.484C10.0493 18.3066 9.375 19.4222 9.375 20.5855V31.5506C9.375 32.7139 10.0493 33.8295 11.2495 34.6521C12.4497 35.4746 14.0776 35.9367 15.775 35.9367H34.975C36.6724 35.9367 38.3002 35.4746 39.5005 34.6521C40.7007 33.8295 41.375 32.7139 41.375 31.5506V20.5855C41.375 19.4222 40.7007 18.3066 39.5005 17.484C38.3002 16.6615 36.6724 16.1994 34.975 16.1994ZM15.775 18.3924H34.975C35.8237 18.3924 36.6376 18.6235 37.2377 19.0347C37.8379 19.446 38.175 20.0038 38.175 20.5855V31.5506C38.175 32.1323 37.8379 32.6901 37.2377 33.1014C36.6376 33.5126 35.8237 33.7437 34.975 33.7437H15.775C14.9263 33.7437 14.1124 33.5126 13.5123 33.1014C12.9121 32.6901 12.575 32.1323 12.575 31.5506V20.5855C12.575 20.0038 12.9121 19.446 13.5123 19.0347C14.1124 18.6235 14.9263 18.3924 15.775 18.3924Z" fill="white"/>
</g>
<defs>
<clipPath id="clip0_94_18">
<rect width="50" height="38.9873" fill="white" transform="translate(0 0.848114)"/>
</clipPath>
</defs>
</svg>
