<svg width="25" height="20" viewBox="0 0 25 20" fill="none" xmlns="http://www.w3.org/2000/svg">
<g clip-path="url(#clip0_48_64)">
<path d="M21.5625 20.1C21.5625 20.1 23 20.1 23 18.6333C23 17.1667 21.5625 12.7667 15.8125 12.7667C10.0625 12.7667 8.625 17.1667 8.625 18.6333C8.625 20.1 10.0625 20.1 10.0625 20.1H21.5625ZM10.0941 18.6333C10.0835 18.6318 10.073 18.6299 10.0625 18.6275C10.0639 18.2403 10.3026 17.1168 11.155 16.1048C11.9485 15.1559 13.3429 14.2333 15.8125 14.2333C18.2807 14.2333 19.6751 15.1573 20.47 16.1048C21.3224 17.1168 21.5596 18.2417 21.5625 18.6275L21.551 18.6304C21.5443 18.6316 21.5376 18.6325 21.5309 18.6333H10.0941ZM15.8125 9.83333C16.575 9.83333 17.3063 9.52429 17.8454 8.97418C18.3846 8.42407 18.6875 7.67797 18.6875 6.9C18.6875 6.12203 18.3846 5.37593 17.8454 4.82582C17.3063 4.27571 16.575 3.96667 15.8125 3.96667C15.05 3.96667 14.3187 4.27571 13.7796 4.82582C13.2404 5.37593 12.9375 6.12203 12.9375 6.9C12.9375 7.67797 13.2404 8.42407 13.7796 8.97418C14.3187 9.52429 15.05 9.83333 15.8125 9.83333ZM20.125 6.9C20.125 7.47782 20.0135 8.04997 19.7967 8.58381C19.58 9.11764 19.2624 9.60269 18.8619 10.0113C18.4614 10.4198 17.986 10.7439 17.4628 10.9651C16.9396 11.1862 16.3788 11.3 15.8125 11.3C15.2462 11.3 14.6854 11.1862 14.1622 10.9651C13.639 10.7439 13.1636 10.4198 12.7631 10.0113C12.3626 9.60269 12.045 9.11764 11.8283 8.58381C11.6115 8.04997 11.5 7.47782 11.5 6.9C11.5 5.73305 11.9544 4.61389 12.7631 3.78873C13.5719 2.96357 14.6688 2.5 15.8125 2.5C16.9562 2.5 18.0531 2.96357 18.8619 3.78873C19.6706 4.61389 20.125 5.73305 20.125 6.9ZM9.9705 13.1773C9.39547 12.9926 8.80272 12.8711 8.20237 12.8151C7.86504 12.7823 7.52636 12.7662 7.1875 12.7667C1.4375 12.7667 0 17.1667 0 18.6333C0 19.6116 0.478687 20.1 1.4375 20.1H7.498C7.2849 19.6421 7.17862 19.1401 7.1875 18.6333C7.1875 17.152 7.72944 15.6384 8.75438 14.3741C9.10369 13.9429 9.5105 13.5396 9.9705 13.1773ZM7.0725 14.2333C6.22172 15.5376 5.76213 17.0667 5.75 18.6333H1.4375C1.4375 18.252 1.67325 17.1227 2.53 16.1048C3.31344 15.172 4.67475 14.2627 7.0725 14.2348V14.2333ZM2.15625 7.63333C2.15625 6.46638 2.6106 5.34722 3.41935 4.52206C4.2281 3.6969 5.325 3.23333 6.46875 3.23333C7.6125 3.23333 8.7094 3.6969 9.51815 4.52206C10.3269 5.34722 10.7812 6.46638 10.7812 7.63333C10.7812 8.80029 10.3269 9.91944 9.51815 10.7446C8.7094 11.5698 7.6125 12.0333 6.46875 12.0333C5.325 12.0333 4.2281 11.5698 3.41935 10.7446C2.6106 9.91944 2.15625 8.80029 2.15625 7.63333ZM6.46875 4.7C5.70625 4.7 4.97498 5.00905 4.43582 5.55915C3.89665 6.10926 3.59375 6.85536 3.59375 7.63333C3.59375 8.4113 3.89665 9.15741 4.43582 9.70751C4.97498 10.2576 5.70625 10.5667 6.46875 10.5667C7.23125 10.5667 7.96251 10.2576 8.50168 9.70751C9.04085 9.15741 9.34375 8.4113 9.34375 7.63333C9.34375 6.85536 9.04085 6.10926 8.50168 5.55915C7.96251 5.00905 7.23125 4.7 6.46875 4.7Z" fill="#C0C9F4"/>
</g>
<defs>
<clipPath id="clip0_48_64">
<rect width="25" height="20" fill="white"/>
</clipPath>
</defs>
</svg>
