<svg width="26" height="24" viewBox="0 0 26 24" fill="none" xmlns="http://www.w3.org/2000/svg">
<path d="M9.75 11.8936C11.0429 11.8936 12.2829 11.4237 13.1971 10.5873C14.1114 9.75083 14.625 8.61639 14.625 7.4335C14.625 6.2506 14.1114 5.11616 13.1971 4.27972C12.2829 3.44329 11.0429 2.97339 9.75 2.97339C8.45707 2.97339 7.21709 3.44329 6.30285 4.27972C5.38861 5.11616 4.875 6.2506 4.875 7.4335C4.875 8.61639 5.38861 9.75083 6.30285 10.5873C7.21709 11.4237 8.45707 11.8936 9.75 11.8936ZM13 7.4335C13 8.22209 12.6576 8.97839 12.0481 9.53601C11.4386 10.0936 10.612 10.4069 9.75 10.4069C8.88805 10.4069 8.0614 10.0936 7.4519 9.53601C6.84241 8.97839 6.5 8.22209 6.5 7.4335C6.5 6.6449 6.84241 5.8886 7.4519 5.33098C8.0614 4.77336 8.88805 4.46009 9.75 4.46009C10.612 4.46009 11.4386 4.77336 12.0481 5.33098C12.6576 5.8886 13 6.6449 13 7.4335ZM19.5 19.3271C19.5 20.8138 17.875 20.8138 17.875 20.8138H1.625C1.625 20.8138 0 20.8138 0 19.3271C0 17.8404 1.625 13.3803 9.75 13.3803C17.875 13.3803 19.5 17.8404 19.5 19.3271ZM17.875 19.3212C17.8734 18.9554 17.6248 17.8553 16.523 16.8473C15.4635 15.878 13.4696 14.867 9.75 14.867C6.02875 14.867 4.0365 15.878 2.977 16.8473C1.87525 17.8553 1.62825 18.9554 1.625 19.3212H17.875Z" fill="black"/>
<path fill-rule="evenodd" clip-rule="evenodd" d="M21.9375 7.43347C22.153 7.43347 22.3597 7.51179 22.512 7.65119C22.6644 7.7906 22.75 7.97967 22.75 8.17682V10.4069H25.1875C25.403 10.4069 25.6097 10.4852 25.762 10.6246C25.9144 10.764 26 10.9531 26 11.1502C26 11.3474 25.9144 11.5364 25.762 11.6759C25.6097 11.8153 25.403 11.8936 25.1875 11.8936H22.75V14.1236C22.75 14.3208 22.6644 14.5099 22.512 14.6493C22.3597 14.7887 22.153 14.867 21.9375 14.867C21.722 14.867 21.5153 14.7887 21.363 14.6493C21.2106 14.5099 21.125 14.3208 21.125 14.1236V11.8936H18.6875C18.472 11.8936 18.2653 11.8153 18.113 11.6759C17.9606 11.5364 17.875 11.3474 17.875 11.1502C17.875 10.9531 17.9606 10.764 18.113 10.6246C18.2653 10.4852 18.472 10.4069 18.6875 10.4069H21.125V8.17682C21.125 7.97967 21.2106 7.7906 21.363 7.65119C21.5153 7.51179 21.722 7.43347 21.9375 7.43347Z" fill="black"/>
</svg>
