<svg width="20" height="20" viewBox="0 0 20 20" fill="none" xmlns="http://www.w3.org/2000/svg">
<path d="M10 10C10.9946 10 11.9484 9.60491 12.6517 8.90165C13.3549 8.19839 13.75 7.24456 13.75 6.25C13.75 5.25544 13.3549 4.30161 12.6517 3.59835C11.9484 2.89509 10.9946 2.5 10 2.5C9.00544 2.5 8.05161 2.89509 7.34835 3.59835C6.64509 4.30161 6.25 5.25544 6.25 6.25C6.25 7.24456 6.64509 8.19839 7.34835 8.90165C8.05161 9.60491 9.00544 10 10 10ZM12.5 6.25C12.5 6.91304 12.2366 7.54893 11.7678 8.01777C11.2989 8.48661 10.663 8.75 10 8.75C9.33696 8.75 8.70107 8.48661 8.23223 8.01777C7.76339 7.54893 7.5 6.91304 7.5 6.25C7.5 5.58696 7.76339 4.95107 8.23223 4.48223C8.70107 4.01339 9.33696 3.75 10 3.75C10.663 3.75 11.2989 4.01339 11.7678 4.48223C12.2366 4.95107 12.5 5.58696 12.5 6.25ZM17.5 16.25C17.5 17.5 16.25 17.5 16.25 17.5H3.75C3.75 17.5 2.5 17.5 2.5 16.25C2.5 15 3.75 11.25 10 11.25C16.25 11.25 17.5 15 17.5 16.25ZM16.25 16.245C16.2487 15.9375 16.0575 15.0125 15.21 14.165C14.395 13.35 12.8612 12.5 10 12.5C7.1375 12.5 5.605 13.35 4.79 14.165C3.9425 15.0125 3.7525 15.9375 3.75 16.245H16.25Z" fill="#C0C9F4"/>
</svg>
