<svg width="24" height="24" viewBox="0 0 16 16" fill="none" xmlns="http://www.w3.org/2000/svg">
<g clip-path="url(#clip0_24_102)">
<path d="M8 15C6.14348 15 4.36301 14.2625 3.05025 12.9497C1.7375 11.637 1 9.85652 1 8C1 6.14348 1.7375 4.36301 3.05025 3.05025C4.36301 1.7375 6.14348 1 8 1C9.85652 1 11.637 1.7375 12.9497 3.05025C14.2625 4.36301 15 6.14348 15 8C15 9.85652 14.2625 11.637 12.9497 12.9497C11.637 14.2625 9.85652 15 8 15ZM8 16C10.1217 16 12.1566 15.1571 13.6569 13.6569C15.1571 12.1566 16 10.1217 16 8C16 5.87827 15.1571 3.84344 13.6569 2.34315C12.1566 0.842855 10.1217 0 8 0C5.87827 0 3.84344 0.842855 2.34315 2.34315C0.842855 3.84344 0 5.87827 0 8C0 10.1217 0.842855 12.1566 2.34315 13.6569C3.84344 15.1571 5.87827 16 8 16Z" fill="#C0C9F4"/>
<path d="M4.64599 4.64601C4.69244 4.59945 4.74761 4.5625 4.80836 4.5373C4.8691 4.51209 4.93423 4.49911 4.99999 4.49911C5.06576 4.49911 5.13088 4.51209 5.19163 4.5373C5.25237 4.5625 5.30755 4.59945 5.35399 4.64601L7.99999 7.29301L10.646 4.64601C10.6925 4.59952 10.7477 4.56264 10.8084 4.53749C10.8691 4.51233 10.9342 4.49938 11 4.49938C11.0657 4.49938 11.1308 4.51233 11.1916 4.53749C11.2523 4.56264 11.3075 4.59952 11.354 4.64601C11.4005 4.6925 11.4374 4.74769 11.4625 4.80842C11.4877 4.86916 11.5006 4.93426 11.5006 5.00001C11.5006 5.06575 11.4877 5.13085 11.4625 5.19159C11.4374 5.25233 11.4005 5.30752 11.354 5.35401L8.70699 8.00001L11.354 10.646C11.4005 10.6925 11.4374 10.7477 11.4625 10.8084C11.4877 10.8692 11.5006 10.9343 11.5006 11C11.5006 11.0658 11.4877 11.1309 11.4625 11.1916C11.4374 11.2523 11.4005 11.3075 11.354 11.354C11.3075 11.4005 11.2523 11.4374 11.1916 11.4625C11.1308 11.4877 11.0657 11.5006 11 11.5006C10.9342 11.5006 10.8691 11.4877 10.8084 11.4625C10.7477 11.4374 10.6925 11.4005 10.646 11.354L7.99999 8.70701L5.35399 11.354C5.30751 11.4005 5.25232 11.4374 5.19158 11.4625C5.13084 11.4877 5.06574 11.5006 4.99999 11.5006C4.93425 11.5006 4.86915 11.4877 4.80841 11.4625C4.74767 11.4374 4.69248 11.4005 4.64599 11.354C4.59951 11.3075 4.56263 11.2523 4.53747 11.1916C4.51231 11.1309 4.49936 11.0658 4.49936 11C4.49936 10.9343 4.51231 10.8692 4.53747 10.8084C4.56263 10.7477 4.59951 10.6925 4.64599 10.646L7.29299 8.00001L4.64599 5.35401C4.59943 5.30756 4.56249 5.25239 4.53728 5.19164C4.51207 5.1309 4.4991 5.06578 4.4991 5.00001C4.4991 4.93424 4.51207 4.86912 4.53728 4.80837C4.56249 4.74763 4.59943 4.69245 4.64599 4.64601Z" fill="#C0C9F4"/>
</g>
<defs>
<clipPath id="clip0_24_102">
<rect width="16" height="16" fill="white"/>
</clipPath>
</defs>
</svg>
