<svg width="30" height="30" viewBox="0 0 40 40" fill="none" xmlns="http://www.w3.org/2000/svg">
<g clip-path="url(#clip0_94_21)">
<path d="M7.58482e-07 20C-0.000856604 17.7979 0.725158 15.6572 2.06537 13.9099C3.40559 12.1627 5.28506 10.9066 7.4121 10.3368C9.53914 9.76689 11.7948 9.91504 13.8291 10.7582C15.8633 11.6014 17.5623 13.0925 18.6625 15H35C35.1643 14.9997 35.327 15.0318 35.4788 15.0944C35.6307 15.157 35.7687 15.249 35.885 15.365L39.635 19.115C39.7514 19.2311 39.8438 19.369 39.9068 19.5209C39.9698 19.6728 40.0022 19.8356 40.0022 20C40.0022 20.1644 39.9698 20.3272 39.9068 20.4791C39.8438 20.6309 39.7514 20.7689 39.635 20.885L35.885 24.635C35.7689 24.7514 35.6309 24.8438 35.4791 24.9068C35.3272 24.9698 35.1644 25.0022 35 25.0022C34.8356 25.0022 34.6728 24.9698 34.5209 24.9068C34.3691 24.8438 34.2311 24.7514 34.115 24.635L32.5 23.0175L30.885 24.635C30.7689 24.7514 30.6309 24.8438 30.4791 24.9068C30.3272 24.9698 30.1644 25.0022 30 25.0022C29.8356 25.0022 29.6728 24.9698 29.5209 24.9068C29.3691 24.8438 29.2311 24.7514 29.115 24.635L27.5 23.0175L25.885 24.635C25.7689 24.7514 25.6309 24.8438 25.4791 24.9068C25.3272 24.9698 25.1644 25.0022 25 25.0022C24.8356 25.0022 24.6728 24.9698 24.5209 24.9068C24.3691 24.8438 24.2311 24.7514 24.115 24.635L22.5 23.0175L20.885 24.635C20.7687 24.751 20.6307 24.8429 20.4788 24.9056C20.327 24.9682 20.1643 25.0003 20 25H18.6625C17.5623 26.9075 15.8633 28.3986 13.8291 29.2418C11.7948 30.0849 9.53914 30.2331 7.4121 29.6632C5.28506 29.0933 3.40559 27.8373 2.06537 26.0901C0.725158 24.3428 -0.000856604 22.2021 7.58482e-07 20ZM10 12.5C8.65785 12.5005 7.34043 12.8612 6.18517 13.5443C5.02991 14.2275 4.07915 15.2082 3.43207 16.3841C2.78499 17.5599 2.4653 18.8879 2.50635 20.2294C2.54741 21.5709 2.9477 22.8769 3.66548 24.0109C4.38325 25.145 5.3922 26.0657 6.58707 26.677C7.78195 27.2883 9.11896 27.5677 10.4586 27.4861C11.7983 27.4046 13.0915 26.965 14.2034 26.2133C15.3153 25.4616 16.2051 24.4253 16.78 23.2125C16.8815 22.9994 17.0413 22.8194 17.2408 22.6933C17.4403 22.5672 17.6715 22.5002 17.9075 22.5H19.4825L21.615 20.365C21.7311 20.2486 21.8691 20.1562 22.0209 20.0932C22.1728 20.0302 22.3356 19.9978 22.5 19.9978C22.6644 19.9978 22.8272 20.0302 22.9791 20.0932C23.1309 20.1562 23.2689 20.2486 23.385 20.365L25 21.9825L26.615 20.365C26.7311 20.2486 26.8691 20.1562 27.0209 20.0932C27.1728 20.0302 27.3356 19.9978 27.5 19.9978C27.6644 19.9978 27.8272 20.0302 27.9791 20.0932C28.1309 20.1562 28.2689 20.2486 28.385 20.365L30 21.9825L31.615 20.365C31.7311 20.2486 31.8691 20.1562 32.0209 20.0932C32.1728 20.0302 32.3356 19.9978 32.5 19.9978C32.6644 19.9978 32.8272 20.0302 32.9791 20.0932C33.1309 20.1562 33.2689 20.2486 33.385 20.365L35 21.9825L36.9825 20L34.4825 17.5H17.9075C17.6715 17.4998 17.4403 17.4328 17.2408 17.3067C17.0413 17.1806 16.8815 17.0006 16.78 16.7875C16.1717 15.5043 15.2116 14.4201 14.0114 13.6611C12.8112 12.9021 11.4201 12.4995 10 12.5Z" fill="white"/>
<path d="M10 20C10 20.663 9.73661 21.2989 9.26777 21.7678C8.79893 22.2366 8.16304 22.5 7.5 22.5C6.83696 22.5 6.20107 22.2366 5.73223 21.7678C5.26339 21.2989 5 20.663 5 20C5 19.337 5.26339 18.7011 5.73223 18.2322C6.20107 17.7634 6.83696 17.5 7.5 17.5C8.16304 17.5 8.79893 17.7634 9.26777 18.2322C9.73661 18.7011 10 19.337 10 20Z" fill="white"/>
</g>
<defs>
<clipPath id="clip0_94_21">
<rect width="40" height="40" fill="white"/>
</clipPath>
</defs>
</svg>
