<svg width="24" height="23" viewBox="0 0 24 23" fill="none" xmlns="http://www.w3.org/2000/svg">
<path d="M4.29698 21.5267C4.17998 22.1927 4.83698 22.7132 5.41598 22.4162L12.001 19.0322L18.5845 22.4162C19.1635 22.7132 19.8205 22.1927 19.7035 21.5282L18.4585 14.4332L23.7415 9.39922C24.2365 8.92822 23.9815 8.06722 23.3185 7.97422L15.9715 6.93022L12.6955 0.439716C12.6331 0.308149 12.5346 0.19699 12.4115 0.119154C12.2885 0.0413182 12.1459 0 12.0002 0C11.8546 0 11.712 0.0413182 11.5889 0.119154C11.4658 0.19699 11.3674 0.308149 11.305 0.439716L8.02898 6.93172L0.68198 7.97572C0.0204801 8.06872 -0.23602 8.92972 0.25748 9.40072L5.54198 14.4347L4.29698 21.5297V21.5267ZM11.6545 17.3762L6.12548 20.2172L7.16648 14.2817C7.19087 14.1451 7.18133 14.0046 7.1387 13.8725C7.09606 13.7404 7.02165 13.6208 6.92198 13.5242L2.56298 9.36922L8.64098 8.50522C8.76684 8.48621 8.88621 8.43698 8.98888 8.36174C9.09155 8.28651 9.17445 8.1875 9.23048 8.07322L11.998 2.58622L14.7685 8.07322C14.8245 8.1875 14.9074 8.28651 15.0101 8.36174C15.1128 8.43698 15.2321 8.48621 15.358 8.50522L21.436 9.36772L17.077 13.5227C16.9771 13.6195 16.9025 13.7393 16.8599 13.8717C16.8173 14.004 16.8078 14.1449 16.8325 14.2817L17.8735 20.2172L12.3445 17.3762C12.2376 17.3211 12.119 17.2923 11.9987 17.2923C11.8784 17.2923 11.7614 17.3211 11.6545 17.3762Z" fill="#C0C9F4"/>
</svg>
