<svg width="20" height="20" viewBox="0 0 20 20" fill="none" xmlns="http://www.w3.org/2000/svg">
<path d="M7.5 5.625C7.5 6.12228 7.30246 6.59919 6.95083 6.95083C6.59919 7.30246 6.12228 7.5 5.625 7.5C5.12772 7.5 4.65081 7.30246 4.29917 6.95083C3.94754 6.59919 3.75 6.12228 3.75 5.625C3.75 5.12772 3.94754 4.65081 4.29917 4.29917C4.65081 3.94754 5.12772 3.75 5.625 3.75C6.12228 3.75 6.59919 3.94754 6.95083 4.29917C7.30246 4.65081 7.5 5.12772 7.5 5.625ZM6.25 5.625C6.25 5.45924 6.18415 5.30027 6.06694 5.18306C5.94973 5.06585 5.79076 5 5.625 5C5.45924 5 5.30027 5.06585 5.18306 5.18306C5.06585 5.30027 5 5.45924 5 5.625C5 5.79076 5.06585 5.94973 5.18306 6.06694C5.30027 6.18415 5.45924 6.25 5.625 6.25C5.79076 6.25 5.94973 6.18415 6.06694 6.06694C6.18415 5.94973 6.25 5.79076 6.25 5.625Z" fill="#C0C9F4"/>
<path d="M2.5 1.25H8.2325C8.56399 1.25007 8.88189 1.38181 9.11625 1.61625L17.8663 10.3663C18.1006 10.6007 18.2322 10.9185 18.2322 11.25C18.2322 11.5815 18.1006 11.8993 17.8663 12.1338L12.1338 17.8663C11.8993 18.1006 11.5815 18.2322 11.25 18.2322C10.9185 18.2322 10.6007 18.1006 10.3663 17.8663L1.61625 9.11625C1.38181 8.88189 1.25007 8.56399 1.25 8.2325V2.5C1.25 2.16848 1.3817 1.85054 1.61612 1.61612C1.85054 1.3817 2.16848 1.25 2.5 1.25ZM2.5 8.2325L11.25 16.9825L16.9825 11.25L8.2325 2.5H2.5V8.2325Z" fill="#C0C9F4"/>
</svg>
