<svg width="36" height="36" viewBox="0 0 36 36" fill="none" xmlns="http://www.w3.org/2000/svg">
<path d="M6.75 21.375C5.85489 21.375 4.99645 21.0194 4.36351 20.3865C3.73058 19.7536 3.375 18.8951 3.375 18C3.375 17.1049 3.73058 16.2464 4.36351 15.6135C4.99645 14.9806 5.85489 14.625 6.75 14.625C7.64511 14.625 8.50355 14.9806 9.13649 15.6135C9.76942 16.2464 10.125 17.1049 10.125 18C10.125 18.8951 9.76942 19.7536 9.13649 20.3865C8.50355 21.0194 7.64511 21.375 6.75 21.375ZM18 21.375C17.1049 21.375 16.2464 21.0194 15.6135 20.3865C14.9806 19.7536 14.625 18.8951 14.625 18C14.625 17.1049 14.9806 16.2464 15.6135 15.6135C16.2464 14.9806 17.1049 14.625 18 14.625C18.8951 14.625 19.7536 14.9806 20.3865 15.6135C21.0194 16.2464 21.375 17.1049 21.375 18C21.375 18.8951 21.0194 19.7536 20.3865 20.3865C19.7536 21.0194 18.8951 21.375 18 21.375ZM29.25 21.375C28.3549 21.375 27.4964 21.0194 26.8635 20.3865C26.2306 19.7536 25.875 18.8951 25.875 18C25.875 17.1049 26.2306 16.2464 26.8635 15.6135C27.4964 14.9806 28.3549 14.625 29.25 14.625C30.1451 14.625 31.0036 14.9806 31.6365 15.6135C32.2694 16.2464 32.625 17.1049 32.625 18C32.625 18.8951 32.2694 19.7536 31.6365 20.3865C31.0036 21.0194 30.1451 21.375 29.25 21.375Z" fill="#C0C9F4"/>
</svg>
