<svg width="620" height="560" viewBox="0 0 620 560" fill="none" xmlns="http://www.w3.org/2000/svg">
<g clip-path="url(#clip0_67_52)">
<path d="M84.1437 542.604L90.8044 530.132L92.1348 537.259C92.3681 538.507 92.6013 539.775 92.8173 541.033C94.7092 539.151 96.7222 537.409 98.6917 535.739C104.739 530.625 110.784 525.505 116.825 520.378L114.933 533.162C113.767 541.033 112.549 549.066 109.663 556.263C109.344 557.079 108.998 557.884 108.627 558.669H80.5151C80.289 557.94 80.1325 557.184 80.0486 556.414C80.0416 556.365 80.0387 556.314 80.0401 556.263C79.5993 551.381 81.9147 546.781 84.1437 542.604Z" fill="#F0F0F0"/>
<path d="M507.454 0H111.787C108.388 0.00629564 105.129 1.58255 102.725 4.38334C100.321 7.18413 98.9686 10.981 98.9632 14.9419V326.044C98.9664 330.005 100.319 333.804 102.723 336.605C105.127 339.406 108.387 340.982 111.787 340.986H507.454C510.854 340.982 514.114 339.406 516.518 336.605C518.922 333.804 520.274 330.005 520.278 326.044V14.9419C520.272 10.981 518.919 7.18411 516.516 4.38333C514.112 1.58254 510.853 0.00629561 507.454 0Z" fill="#E6E6E6"/>
<path d="M505.015 330.685H245.761C209.434 330.562 174.625 313.692 148.938 283.762C123.25 253.831 108.773 213.273 108.667 170.945V18.7997C108.667 16.5455 109.435 14.3835 110.801 12.788C112.168 11.1925 114.022 10.2939 115.957 10.2892H505.015C506.95 10.2939 508.804 11.1925 510.171 12.788C511.537 14.3835 512.305 16.5455 512.305 18.7997V322.191C512.303 324.443 511.535 326.602 510.168 328.195C508.801 329.787 506.948 330.683 505.015 330.685Z" fill="white"/>
<path d="M484.594 52.5928H120.553C120.175 52.5831 119.815 52.4012 119.55 52.0859C119.285 51.7706 119.137 51.3471 119.137 50.906C119.137 50.4649 119.285 50.0414 119.55 49.7261C119.815 49.4109 120.175 49.2289 120.553 49.2192H484.594C484.972 49.2289 485.333 49.4109 485.597 49.7261C485.862 50.0414 486.01 50.4649 486.01 50.906C486.01 51.3471 485.862 51.7706 485.597 52.0859C485.333 52.4012 484.972 52.5831 484.594 52.5928Z" fill="#CACACA"/>
<path d="M145.334 40.6066C150.02 40.6066 153.818 36.0821 153.818 30.5007C153.818 24.9194 150.02 20.3948 145.334 20.3948C140.648 20.3948 136.85 24.9194 136.85 30.5007C136.85 36.0821 140.648 40.6066 145.334 40.6066Z" fill="#3F3D56"/>
<path d="M174.643 40.6066C179.329 40.6066 183.127 36.0821 183.127 30.5007C183.127 24.9194 179.329 20.3948 174.643 20.3948C169.957 20.3948 166.159 24.9194 166.159 30.5007C166.159 36.0821 169.957 40.6066 174.643 40.6066Z" fill="#3F3D56"/>
<path d="M203.952 40.6066C208.637 40.6066 212.436 36.0821 212.436 30.5007C212.436 24.9194 208.637 20.3948 203.952 20.3948C199.266 20.3948 195.468 24.9194 195.468 30.5007C195.468 36.0821 199.266 40.6066 203.952 40.6066Z" fill="#3F3D56"/>
<path d="M368.47 204.231H221.046C218.379 204.271 215.798 203.132 213.822 201.044C211.847 198.956 210.624 196.073 210.399 192.976C210.307 191.393 210.483 189.804 210.918 188.3C211.353 186.796 212.038 185.406 212.934 184.21C213.829 183.015 214.919 182.036 216.139 181.331C217.359 180.626 218.687 180.208 220.046 180.1C220.278 180.082 220.51 180.073 220.742 180.072H368.47C371.22 180.072 373.856 181.345 375.801 183.61C377.745 185.876 378.837 188.948 378.837 192.152C378.837 195.355 377.745 198.428 375.801 200.693C373.856 202.958 371.22 204.231 368.47 204.231Z" fill="#6C63FF"/>
<path d="M368.743 136.58C373.916 136.58 378.109 131.694 378.109 125.667C378.109 119.64 373.916 114.754 368.743 114.754C363.57 114.754 359.377 119.64 359.377 125.667C359.377 131.694 363.57 136.58 368.743 136.58Z" fill="#E6E6E6"/>
<path d="M367.465 131.347C367.304 131.347 367.144 131.303 367 131.218C366.855 131.134 366.729 131.012 366.632 130.861L364.077 126.891C363.994 126.764 363.934 126.618 363.899 126.464C363.864 126.309 363.856 126.148 363.875 125.989C363.895 125.831 363.94 125.678 364.01 125.541C364.08 125.403 364.172 125.283 364.282 125.187C364.392 125.091 364.517 125.021 364.65 124.982C364.783 124.942 364.921 124.934 365.057 124.957C365.193 124.98 365.324 125.034 365.441 125.116C365.559 125.198 365.662 125.306 365.744 125.435L367.416 128.032L371.709 120.528C371.862 120.259 372.099 120.072 372.37 120.008C372.641 119.943 372.922 120.007 373.153 120.185C373.383 120.362 373.544 120.639 373.599 120.955C373.654 121.27 373.599 121.598 373.447 121.867L373.443 121.874L368.332 130.806C368.24 130.968 368.116 131.101 367.97 131.195C367.824 131.289 367.661 131.341 367.494 131.346L367.465 131.347Z" fill="white"/>
<path d="M368.743 269.453C373.916 269.453 378.109 264.567 378.109 258.539C378.109 252.512 373.916 247.626 368.743 247.626C363.57 247.626 359.377 252.512 359.377 258.539C359.377 264.567 363.57 269.453 368.743 269.453Z" fill="#E6E6E6"/>
<path d="M367.465 264.219C367.304 264.219 367.144 264.175 367 264.091C366.855 264.007 366.729 263.884 366.632 263.734L364.077 259.764C363.994 259.636 363.934 259.491 363.899 259.336C363.864 259.182 363.856 259.02 363.875 258.862C363.895 258.704 363.94 258.551 364.01 258.413C364.08 258.276 364.172 258.155 364.282 258.059C364.392 257.963 364.517 257.894 364.65 257.854C364.783 257.815 364.921 257.806 365.057 257.829C365.193 257.852 365.324 257.906 365.441 257.989C365.559 258.071 365.662 258.179 365.744 258.307L367.416 260.904L371.709 253.4C371.862 253.132 372.099 252.945 372.37 252.88C372.641 252.816 372.922 252.88 373.153 253.057C373.383 253.235 373.544 253.512 373.599 253.828C373.654 254.143 373.599 254.471 373.447 254.74L373.443 254.747L368.332 263.679C368.24 263.84 368.116 263.974 367.97 264.068C367.824 264.162 367.661 264.214 367.494 264.219L367.465 264.219Z" fill="white"/>
<path d="M293.31 137.795H221.046C218.379 137.835 215.798 136.696 213.822 134.608C211.847 132.52 210.624 129.637 210.399 126.54C210.307 124.957 210.483 123.367 210.918 121.863C211.353 120.359 212.038 118.97 212.934 117.774C213.829 116.578 214.919 115.6 216.139 114.895C217.359 114.189 218.687 113.771 220.046 113.664C220.278 113.646 220.51 113.636 220.742 113.636H293.31C296.06 113.636 298.697 114.909 300.641 117.174C302.585 119.439 303.677 122.512 303.677 125.715C303.677 128.919 302.585 131.991 300.641 134.257C298.697 136.522 296.06 137.795 293.31 137.795Z" fill="#6C63FF"/>
<path d="M368.47 138.298H220.742C217.878 138.298 215.131 136.972 213.106 134.613C211.081 132.253 209.943 129.053 209.943 125.715C209.943 122.378 211.081 119.178 213.106 116.818C215.131 114.458 217.878 113.133 220.742 113.133H368.47C371.334 113.133 374.081 114.458 376.106 116.818C378.131 119.178 379.269 122.378 379.269 125.715C379.269 129.053 378.131 132.253 376.106 134.613C374.081 136.972 371.334 138.298 368.47 138.298ZM220.742 115.146C218.336 115.146 216.029 116.26 214.328 118.242C212.627 120.224 211.671 122.912 211.671 125.715C211.671 128.519 212.627 131.207 214.328 133.189C216.029 135.171 218.336 136.285 220.742 136.285H368.47C370.876 136.285 373.183 135.171 374.884 133.189C376.585 131.207 377.541 128.519 377.541 125.715C377.541 122.912 376.585 120.224 374.884 118.242C373.183 116.26 370.876 115.146 368.47 115.146H220.742Z" fill="#3F3D56"/>
<path d="M368.47 204.734H220.742C217.878 204.734 215.131 203.409 213.106 201.049C211.081 198.689 209.943 195.489 209.943 192.152C209.943 188.815 211.081 185.614 213.106 183.254C215.131 180.895 217.878 179.569 220.742 179.569H368.47C371.334 179.569 374.081 180.895 376.106 183.254C378.131 185.614 379.269 188.815 379.269 192.152C379.269 195.489 378.131 198.689 376.106 201.049C374.081 203.409 371.334 204.734 368.47 204.734ZM220.742 181.582C218.336 181.582 216.029 182.696 214.328 184.678C212.627 186.66 211.671 189.349 211.671 192.152C211.671 194.955 212.627 197.643 214.328 199.625C216.029 201.608 218.336 202.721 220.742 202.721H368.47C370.876 202.721 373.183 201.608 374.884 199.625C376.585 197.643 377.541 194.955 377.541 192.152C377.541 189.349 376.585 186.66 374.884 184.678C373.183 182.696 370.876 181.582 368.47 181.582H220.742Z" fill="#3F3D56"/>
<path d="M262.21 270.667H221.046C218.379 270.707 215.798 269.569 213.822 267.48C211.847 265.392 210.624 262.51 210.399 259.413C210.307 257.829 210.483 256.24 210.918 254.736C211.353 253.232 212.038 251.842 212.934 250.647C213.829 249.451 214.919 248.473 216.139 247.767C217.359 247.062 218.687 246.644 220.046 246.536C220.278 246.518 220.51 246.509 220.742 246.509H262.21C264.959 246.509 267.596 247.781 269.54 250.047C271.484 252.312 272.577 255.384 272.577 258.588C272.577 261.792 271.484 264.864 269.54 267.129C267.596 269.395 264.959 270.667 262.21 270.667Z" fill="#6C63FF"/>
<path d="M368.47 271.171H220.742C217.878 271.171 215.131 269.845 213.106 267.485C211.081 265.126 209.943 261.925 209.943 258.588C209.943 255.251 211.081 252.051 213.106 249.691C215.131 247.331 217.878 246.005 220.742 246.005H368.47C371.334 246.005 374.081 247.331 376.106 249.691C378.131 252.051 379.269 255.251 379.269 258.588C379.269 261.925 378.131 265.126 376.106 267.485C374.081 269.845 371.334 271.171 368.47 271.171ZM220.742 248.019C218.336 248.019 216.029 249.132 214.328 251.114C212.627 253.097 211.671 255.785 211.671 258.588C211.671 261.391 212.627 264.08 214.328 266.062C216.029 268.044 218.336 269.157 220.742 269.157H368.47C370.876 269.157 373.183 268.044 374.884 266.062C376.585 264.08 377.541 261.391 377.541 258.588C377.541 255.785 376.585 253.097 374.884 251.114C373.183 249.132 370.876 248.019 368.47 248.019H220.742Z" fill="#3F3D56"/>
<path d="M248.388 100.661H213.832C212.915 100.661 212.036 100.237 211.388 99.4818C210.74 98.7267 210.376 97.7025 210.376 96.6347C210.376 95.5668 210.74 94.5426 211.388 93.7875C212.036 93.0324 212.915 92.6082 213.832 92.6082H248.388C249.304 92.6082 250.183 93.0324 250.831 93.7875C251.479 94.5426 251.843 95.5668 251.843 96.6347C251.843 97.7025 251.479 98.7267 250.831 99.4818C250.183 100.237 249.304 100.661 248.388 100.661Z" fill="#CCCCCC"/>
<path d="M248.388 167.097H213.832C212.915 167.097 212.036 166.673 211.388 165.918C210.74 165.163 210.376 164.139 210.376 163.071C210.376 162.003 210.74 160.979 211.388 160.224C212.036 159.469 212.915 159.045 213.832 159.045H248.388C249.304 159.045 250.183 159.469 250.831 160.224C251.479 160.979 251.843 162.003 251.843 163.071C251.843 164.139 251.479 165.163 250.831 165.918C250.183 166.673 249.304 167.097 248.388 167.097Z" fill="#CCCCCC"/>
<path d="M248.388 233.534H213.832C212.915 233.534 212.036 233.11 211.388 232.354C210.74 231.599 210.376 230.575 210.376 229.507C210.376 228.439 210.74 227.415 211.388 226.66C212.036 225.905 212.915 225.481 213.832 225.481H248.388C249.304 225.481 250.183 225.905 250.831 226.66C251.479 227.415 251.843 228.439 251.843 229.507C251.843 230.575 251.479 231.599 250.831 232.354C250.183 233.11 249.304 233.534 248.388 233.534Z" fill="#CCCCCC"/>
<path d="M196.563 101.527C198.637 101.527 200.318 99.5249 200.318 97.0547C200.318 94.5845 198.637 92.582 196.563 92.582C194.489 92.582 192.808 94.5845 192.808 97.0547C192.808 99.5249 194.489 101.527 196.563 101.527Z" fill="#3F3D56"/>
<path d="M196.563 167.964C198.637 167.964 200.318 165.961 200.318 163.491C200.318 161.021 198.637 159.018 196.563 159.018C194.489 159.018 192.808 161.021 192.808 163.491C192.808 165.961 194.489 167.964 196.563 167.964Z" fill="#3F3D56"/>
<path d="M196.563 234.4C198.637 234.4 200.318 232.398 200.318 229.927C200.318 227.457 198.637 225.455 196.563 225.455C194.489 225.455 192.808 227.457 192.808 229.927C192.808 232.398 194.489 234.4 196.563 234.4Z" fill="#3F3D56"/>
<path d="M444.001 547.789L435.448 547.788L431.379 509.345L444.003 509.346L444.001 547.789Z" fill="#FFB6B6"/>
<path d="M444.303 558.186L417.999 558.185V557.797C417.999 554.633 419.078 551.599 420.998 549.362C422.918 547.125 425.522 545.868 428.237 545.868L433.042 541.621L442.007 545.869L444.303 545.869L444.303 558.186Z" fill="#2F2E41"/>
<path d="M477.694 547.789L469.14 547.788L465.071 509.345L477.696 509.346L477.694 547.789Z" fill="#FFB6B6"/>
<path d="M477.995 558.186L451.691 558.185V557.797C451.692 554.633 452.77 551.599 454.69 549.362C456.61 547.125 459.214 545.868 461.929 545.868L466.735 541.621L475.699 545.869L477.995 545.869L477.995 558.186Z" fill="#2F2E41"/>
<path d="M414.567 307.016L408.519 331.175L415.644 433.492C415.644 433.492 411.975 439.889 414.567 439.889C417.158 439.889 420.482 441.308 418.388 445.128C416.294 448.949 423.451 462.664 423.451 462.664L433.573 535.517L446.47 535.295C446.47 535.295 453.027 531.039 449.347 526.735C445.667 522.431 443.076 522.431 446.531 518.405C449.987 514.378 449.987 515.591 449.987 512.468C449.987 509.345 453.449 471.181 445.239 456.542L447.713 396.855L453.539 455.4L465.537 533.504L477.962 533.385C477.962 533.385 483.7 526.94 483.69 522.169C483.679 517.398 480.144 517.002 482.776 514.18C485.407 511.359 485.407 468.011 477.632 443.916L477.691 336.137C477.691 336.137 485.331 311.947 477.594 302.435C469.857 292.924 414.567 307.016 414.567 307.016Z" fill="#2F2E41"/>
<path d="M492.44 264.866L497.648 202.004C497.862 199.34 497.168 196.684 495.717 194.611C494.265 192.538 492.172 191.212 489.89 190.921C487.583 190.627 485.271 191.412 483.461 193.104C481.652 194.796 480.493 197.257 480.241 199.944C480.224 200.124 480.211 200.303 480.202 200.483L476.51 265.975L472.827 305.66C471.326 306.186 470 307.238 469.029 308.672C468.059 310.107 467.491 311.854 467.402 313.678C467.314 315.502 467.71 317.313 468.536 318.865C469.362 320.418 470.578 321.637 472.019 322.356C473.46 323.075 475.056 323.26 476.59 322.886C478.124 322.511 479.523 321.595 480.595 320.263C481.667 318.93 482.361 317.245 482.582 315.437C482.804 313.628 482.543 311.785 481.834 310.155L492.44 264.866Z" fill="#FFB6B6"/>
<path d="M472.908 170.139L491.674 172.881C491.674 172.881 505.735 203.762 502.841 206.383C499.947 209.004 486.869 225.354 477.228 217.859C467.586 210.363 472.908 170.139 472.908 170.139Z" fill="#3F3D56"/>
<path d="M440.591 140.511C451.591 140.511 460.509 130.12 460.509 117.303C460.509 104.485 451.591 94.0946 440.591 94.0946C429.59 94.0946 420.673 104.485 420.673 117.303C420.673 130.12 429.59 140.511 440.591 140.511Z" fill="#FFB6B6"/>
<path d="M448.287 138.609C442.571 138.39 442.052 136.631 436.336 136.412C434.516 136.343 432.369 136.052 431.489 134.195C431.233 133.499 431.119 132.743 431.156 131.987C431.193 131.231 431.38 130.495 431.702 129.838C432.354 128.533 432.942 127.185 433.463 125.802C433.777 124.717 433.859 123.56 433.703 122.43C433.547 121.3 433.156 120.231 432.566 119.316C431.976 118.401 431.204 117.667 430.315 117.178C429.427 116.689 428.45 116.459 427.469 116.509C425.73 116.596 424.096 117.549 422.361 117.723C419.983 117.962 414.722 108.811 415.818 106.338C416.884 103.932 419.029 102.117 419.366 99.4371C419.587 97.6846 418.966 95.9434 418.881 94.175C418.756 91.5528 424.46 97.4652 423.415 95.1381C420.853 89.4296 445.002 82.3527 448.978 89.503C450.464 92.1754 453.112 91.9931 455.472 93.5981C457.019 94.65 460.926 98.2789 461.814 100.541C462.63 102.849 463.015 105.332 462.945 107.827C462.981 119.43 461.464 130.103 453.432 136.961" fill="#2F2E41"/>
<path d="M435.3 146.965L451.715 142.939L464.322 150.005C464.322 150.005 494.144 163.982 494.042 177.764C493.941 191.545 488.699 221.744 482.681 224.763C476.663 227.783 487.893 237.849 484.438 243.889C480.982 249.929 475.748 291.191 475.748 291.191C475.748 291.191 487.985 319.595 477.632 325.135C467.279 330.676 423.526 335.855 420.721 328.627C417.917 321.398 417.891 325.343 411.425 323.37C404.958 321.398 411.431 293.744 417.266 290.962C423.1 288.18 426.556 227.783 426.556 227.783L417.266 180.821L431.44 157.574L435.3 146.965Z" fill="#3F3D56"/>
<path d="M423.804 276.052L438.634 215.308C439.255 212.732 438.983 209.975 437.875 207.631C436.768 205.287 434.914 203.545 432.713 202.779C430.49 202.006 428.094 202.294 426.053 203.58C424.011 204.865 422.492 207.042 421.828 209.633C421.784 209.806 421.744 209.98 421.707 210.155L407.963 273.804L398.213 312.07C396.655 312.272 395.188 313.029 394.012 314.236C392.835 315.444 392.007 317.044 391.638 318.82C391.27 320.595 391.379 322.46 391.952 324.16C392.525 325.86 393.533 327.314 394.839 328.324C396.146 329.333 397.687 329.85 399.254 329.803C400.822 329.756 402.338 329.148 403.599 328.062C404.859 326.976 405.802 325.464 406.299 323.732C406.796 321.999 406.824 320.131 406.378 318.38L423.804 276.052Z" fill="#FFB6B6"/>
<path d="M419.217 178.777L437.254 185.408C437.254 185.408 448.986 205.48 444.594 208.343C440.202 211.207 438.554 210.601 440.81 215.653C443.066 220.704 446.317 218.733 443.066 220.704C439.815 222.675 424.425 236.017 416.098 226.623C407.772 217.229 419.217 178.777 419.217 178.777Z" fill="#3F3D56"/>
<path d="M1.60203e-05 558.802C-0.000386192 558.959 0.0257287 559.114 0.0768681 559.259C0.128007 559.404 0.20317 559.536 0.298065 559.648C0.39296 559.759 0.505735 559.847 0.629939 559.908C0.754143 559.968 0.887347 560 1.02195 560H618.972C619.245 560 619.506 559.874 619.699 559.649C619.892 559.424 620 559.12 620 558.802C620 558.484 619.892 558.18 619.699 557.955C619.506 557.73 619.245 557.604 618.972 557.604H1.02807C0.893458 557.604 0.760096 557.634 0.635581 557.694C0.511067 557.753 0.397839 557.841 0.302375 557.952C0.206912 558.062 0.13108 558.194 0.0792013 558.338C0.0273227 558.483 0.000411376 558.638 1.60203e-05 558.795V558.802Z" fill="#CCCCCC"/>
<path d="M368.743 212.65C378.482 212.65 386.377 203.451 386.377 192.103C386.377 180.755 378.482 171.556 368.743 171.556C359.004 171.556 351.109 180.755 351.109 192.103C351.109 203.451 359.004 212.65 368.743 212.65Z" fill="#6C63FF"/>
<path d="M366.338 202.797C366.033 202.797 365.733 202.714 365.46 202.556C365.188 202.397 364.951 202.166 364.768 201.883L359.958 194.408C359.646 193.924 359.512 193.314 359.585 192.714C359.659 192.114 359.934 191.572 360.35 191.209C360.766 190.845 361.289 190.689 361.804 190.775C362.319 190.86 362.784 191.181 363.096 191.666L366.244 196.555L374.327 182.427C374.614 181.921 375.062 181.569 375.572 181.448C376.081 181.327 376.612 181.447 377.045 181.782C377.479 182.116 377.782 182.638 377.885 183.232C377.989 183.826 377.886 184.443 377.599 184.949L377.592 184.963L367.97 201.779C367.796 202.083 367.562 202.334 367.287 202.511C367.013 202.688 366.706 202.786 366.392 202.796L366.338 202.797Z" fill="white"/>
</g>
<defs>
<clipPath id="clip0_67_52">
<rect width="620" height="560" fill="white"/>
</clipPath>
</defs>
</svg>
