<svg width="595" height="355" fill="none" xmlns="http://www.w3.org/2000/svg">
<g clip-path="url(#clip0_67_91)">
<path d="M37.6877 296.485L35.8317 306.777C35.6919 307.564 35.5457 308.365 35.3868 309.159C33.8356 308.804 32.2273 308.903 30.7216 309.447C31.9162 311.334 32.9867 313.313 33.9249 315.37C32.7555 319.353 31.0393 323.035 28.1665 325.697C26.2477 327.436 23.956 328.599 21.5123 329.074C19.0686 329.549 16.5555 329.32 14.2152 328.409L14.2978 328.002C11.2088 321.377 12.8868 313.023 16.7258 306.904C18.6838 303.885 21.0037 301.174 23.622 298.846C26.2152 296.457 29.0182 294.314 31.7957 292.199C32.4195 291.725 33.1571 291.467 33.9142 291.459C34.6712 291.45 35.4134 291.691 36.0459 292.151C36.6783 292.611 37.1723 293.269 37.4648 294.041C37.7572 294.813 37.8348 295.664 37.6877 296.485Z" fill="#E4E4E4"/>
<path d="M14.876 353.174C14.0949 346.884 13.2915 340.514 13.8394 334.157C14.3262 328.511 15.8841 322.997 19.057 318.475C20.741 316.079 22.7901 314.027 25.1123 312.41C25.718 311.988 26.2748 313.048 25.6722 313.469C21.6545 316.275 18.5469 320.42 16.7974 325.305C14.8652 330.737 14.555 336.659 14.8906 342.429C15.0921 345.918 15.5186 349.384 15.9489 352.848C15.9835 353.004 15.9627 353.17 15.8906 353.31C15.8186 353.45 15.7007 353.555 15.5612 353.602C15.4193 353.645 15.268 353.623 15.1402 353.543C15.0124 353.463 14.9184 353.33 14.8786 353.174L14.876 353.174Z" fill="#F2F2F2"/>
<path d="M21.5799 37.681C48.807 37.1576 76.0371 37.0825 103.27 37.4554C130.499 37.8306 157.719 38.6559 184.93 39.9314C200.199 40.6471 215.462 41.5046 230.719 42.5038C231.944 42.5839 231.94 40.476 230.719 40.3961C203.535 38.6181 176.331 37.2876 149.108 36.4048C121.888 35.5244 94.6611 35.0941 67.4258 35.114C52.143 35.1252 36.861 35.2783 21.5799 35.5733C20.3542 35.5969 20.3504 37.7046 21.5799 37.681Z" fill="#E6E6E6"/>
<path d="M211.327 24.4653L223.233 23.4859C224.449 23.3858 224.459 21.2773 223.233 21.3782L211.327 22.3577C210.111 22.4577 210.101 24.5662 211.327 24.4653Z" fill="#E6E6E6"/>
<path d="M211.327 37.1114L223.233 36.1319C224.449 36.0319 224.459 33.9234 223.233 34.0243L211.327 35.0037C210.111 35.1038 210.101 37.2123 211.327 37.1114Z" fill="#E6E6E6"/>
<path d="M210.432 31.3362L227.359 33.0361C228.581 33.1587 228.573 31.0503 227.359 30.9284L210.432 29.2285C209.21 29.1059 209.218 31.2143 210.432 31.3362Z" fill="#E6E6E6"/>
<path d="M28.6258 21.6308C27.7979 21.6252 26.9868 21.889 26.2936 22.3894C25.6004 22.8899 25.0558 23.6047 24.7276 24.445C24.3605 25.2673 24.2472 26.1999 24.405 27.1002C24.5628 28.0005 24.983 28.8188 25.6013 29.4302C26.1826 29.9768 26.8798 30.3517 27.6277 30.5196C28.3757 30.6876 29.1499 30.6432 29.8781 30.3906C30.6228 30.1031 31.2686 29.5675 31.7266 28.8575C32.1845 28.1476 32.4321 27.2982 32.4353 26.4263C32.4686 25.4589 32.2315 24.5037 31.7563 23.6905C31.2811 22.8774 30.5909 22.2457 29.7795 21.8814C29.5357 21.8082 29.2756 21.8445 29.0559 21.9824C28.8362 22.1203 28.6747 22.3485 28.6067 22.6175C28.5465 22.8867 28.5821 23.1711 28.7059 23.4123C28.8298 23.6534 29.0326 23.8329 29.2726 23.9138C29.4387 23.9848 29.1208 23.8235 29.2759 23.917C29.3397 23.9554 29.4047 23.9901 29.4673 24.0311C29.5206 24.066 29.5716 24.1041 29.6234 24.1415C29.8013 24.2699 29.5365 24.0472 29.6503 24.1626C29.7489 24.2627 29.8467 24.3604 29.9363 24.4709C29.9702 24.5126 30.1031 24.6287 29.9998 24.5476C29.9208 24.4855 29.9694 24.5001 29.9998 24.5499C30.0229 24.5878 30.0473 24.6246 30.0701 24.6627C30.1445 24.787 30.212 24.9161 30.2725 25.0493C30.2865 25.0801 30.2993 25.1117 30.3135 25.1424C30.3402 25.1998 30.3789 25.2149 30.3162 25.1429C30.2562 25.0741 30.2944 25.0788 30.3158 25.145C30.33 25.1885 30.3453 25.2315 30.3591 25.2751C30.4038 25.4173 30.4413 25.5621 30.4715 25.7088C30.4855 25.7767 30.4967 25.8449 30.5087 25.9132C30.5513 26.1552 30.5025 25.7627 30.5128 25.9425C30.5214 26.0926 30.5314 26.2411 30.529 26.3917C30.528 26.4607 30.5252 26.5296 30.5209 26.5984C30.5187 26.6327 30.5152 26.6669 30.5132 26.7012C30.5033 26.8666 30.503 26.6408 30.5239 26.6253C30.4804 26.7657 30.4514 26.9112 30.4378 27.0588C30.4207 27.1243 30.4004 27.1884 30.3814 27.2532C30.3151 27.4793 30.4437 27.13 30.373 27.2845C30.3148 27.4173 30.2498 27.5462 30.1782 27.6707C30.1472 27.7229 30.03 27.8406 30.1258 27.7587C30.2297 27.6697 30.0713 27.8229 30.0375 27.8623C29.9941 27.9129 29.949 27.9618 29.9023 28.0089C29.8724 28.0412 29.8408 28.0715 29.8077 28.0998C29.8017 28.0964 29.967 27.9777 29.8779 28.0405C29.7646 28.1204 29.6574 28.2058 29.538 28.2754C29.5241 28.2834 29.3714 28.3616 29.3721 28.3644C29.3655 28.3359 29.5683 28.2854 29.4291 28.3352C29.3998 28.3456 29.3712 28.3582 29.342 28.3691C29.2153 28.4162 29.0859 28.4543 28.9548 28.4831C28.9247 28.4897 28.893 28.4931 28.8634 28.5015C28.7648 28.5297 28.9576 28.485 28.9633 28.4887C28.8905 28.4852 28.8175 28.4924 28.7464 28.5099C28.6111 28.5185 28.4755 28.5185 28.3402 28.5099C28.3089 28.5079 28.2777 28.5044 28.2464 28.5024C28.1738 28.4978 28.1205 28.4399 28.2171 28.5027C28.2917 28.5512 28.2855 28.5158 28.2194 28.5023C28.1885 28.496 28.1575 28.4907 28.1266 28.4843C27.9927 28.4566 27.8603 28.4207 27.73 28.3769C27.6599 28.3533 27.5911 28.3258 27.522 28.2991C27.4918 28.2894 27.4625 28.2769 27.4343 28.2618C27.4338 28.2531 27.6126 28.3562 27.5182 28.3C27.3991 28.229 27.276 28.1695 27.1597 28.092C27.0976 28.0506 27.038 28.0056 26.9777 27.9613C26.9511 27.9437 26.9259 27.9237 26.9022 27.9016C26.9042 27.8927 27.05 28.0421 26.9735 27.9614C26.8767 27.8595 26.7731 27.7682 26.6814 27.6596C26.6605 27.6347 26.6406 27.6087 26.6197 27.5839L26.5995 27.5583C26.5478 27.4885 26.5469 27.4888 26.5966 27.5593C26.6472 27.5758 26.6449 27.6371 26.5969 27.5574C26.5798 27.5291 26.5617 27.5015 26.5446 27.4731C26.4672 27.3512 26.4012 27.2209 26.3476 27.0842C26.3522 27.0802 26.4301 27.3377 26.3705 27.1434C26.3593 27.1066 26.3466 27.0705 26.3356 27.0337C26.3137 26.9607 26.2944 26.8869 26.2777 26.8122C26.2613 26.7383 26.2528 26.662 26.2362 26.5884C26.2082 26.4643 26.2526 26.6863 26.2475 26.6808C26.2316 26.6634 26.2384 26.5558 26.2372 26.53C26.2295 26.3647 26.2466 26.2042 26.2492 26.0398C26.2513 25.9125 26.2397 26.139 26.2373 26.1324C26.2379 26.0942 26.244 26.0565 26.2554 26.0205C26.2727 25.9338 26.2887 25.8472 26.3099 25.7614C26.3341 25.6633 26.3619 25.5663 26.3934 25.4706C26.4052 25.4348 26.4195 25.3995 26.4305 25.3633C26.4706 25.231 26.351 25.5231 26.417 25.4038C26.5077 25.2396 26.5752 25.062 26.6715 24.8998C26.6944 24.8614 26.8331 24.6473 26.7595 24.7554C26.6861 24.8631 26.8348 24.659 26.863 24.6243C26.9799 24.4804 27.1175 24.3622 27.2385 24.2244C27.3102 24.1428 27.1885 24.2646 27.1813 24.2702C27.2188 24.2406 27.2556 24.2099 27.2935 24.181C27.3597 24.1305 27.4275 24.0829 27.497 24.0379C27.5752 23.9872 27.6636 23.9495 27.7394 23.8959C27.829 23.8325 27.6709 23.9237 27.6681 23.9256C27.709 23.9032 27.7518 23.8851 27.7958 23.8718C27.8696 23.8429 28.1907 23.6897 28.2581 23.7376C28.255 23.7354 28.0143 23.759 28.2089 23.7452C28.2549 23.7419 28.3007 23.737 28.3468 23.7349C28.4399 23.7306 28.5328 23.7332 28.6258 23.7385C28.8782 23.7367 29.1197 23.6251 29.2982 23.4279C29.4766 23.2306 29.5776 22.9636 29.5792 22.6847C29.5738 22.4071 29.4717 22.1425 29.294 21.9461C29.1164 21.7498 28.877 21.6368 28.6258 21.6308Z" fill="#E6E6E6"/>
<path d="M41.9733 21.6308C41.1454 21.6252 40.3343 21.889 39.6411 22.3894C38.9479 22.8899 38.4033 23.6047 38.0752 24.445C37.7081 25.2673 37.5948 26.1999 37.7525 27.1002C37.9103 28.0005 38.3305 28.8188 38.9489 29.4302C39.5302 29.9768 40.2273 30.3517 40.9753 30.5196C41.7232 30.6876 42.4974 30.6432 43.2256 30.3906C43.9703 30.1031 44.6161 29.5675 45.0741 28.8575C45.5321 28.1476 45.7797 27.2982 45.7829 26.4263C45.8161 25.4589 45.579 24.5037 45.1038 23.6905C44.6287 22.8774 43.9384 22.2457 43.127 21.8814C42.8832 21.8082 42.6231 21.8445 42.4034 21.9824C42.1837 22.1203 42.0223 22.3485 41.9542 22.6175C41.8941 22.8867 41.9296 23.1711 42.0535 23.4123C42.1773 23.6534 42.3801 23.8329 42.6201 23.9138C42.7863 23.9848 42.4683 23.8235 42.6235 23.917C42.6872 23.9554 42.7522 23.9901 42.8149 24.0311C42.8681 24.066 42.9191 24.1041 42.9709 24.1415C43.1489 24.2699 42.884 24.0472 42.9978 24.1626C43.0964 24.2627 43.1942 24.3604 43.2838 24.4709C43.3178 24.5126 43.4506 24.6287 43.3474 24.5476C43.2684 24.4855 43.3169 24.5001 43.3473 24.5499C43.3704 24.5878 43.3949 24.6246 43.4177 24.6627C43.492 24.787 43.5596 24.9161 43.62 25.0493C43.634 25.0801 43.6468 25.1117 43.6611 25.1424C43.6878 25.1998 43.7265 25.2149 43.6637 25.1429C43.6037 25.0741 43.6419 25.0788 43.6634 25.145C43.6775 25.1885 43.6929 25.2315 43.7066 25.2751C43.7513 25.4173 43.7888 25.5621 43.819 25.7088C43.833 25.7767 43.8442 25.8449 43.8562 25.9132C43.8988 26.1552 43.85 25.7627 43.8603 25.9425C43.8689 26.0926 43.8789 26.2411 43.8766 26.3917C43.8755 26.4607 43.8728 26.5296 43.8684 26.5984C43.8662 26.6327 43.8628 26.6669 43.8607 26.7012C43.8508 26.8666 43.8505 26.6408 43.8715 26.6253C43.8279 26.7657 43.799 26.9112 43.7853 27.0588C43.7682 27.1243 43.7479 27.1884 43.7289 27.2532C43.6626 27.4793 43.7912 27.13 43.7205 27.2845C43.6623 27.4173 43.5973 27.5462 43.5258 27.6707C43.4947 27.7229 43.3776 27.8406 43.4733 27.7587C43.5773 27.6697 43.4188 27.8229 43.385 27.8623C43.3416 27.9129 43.2965 27.9618 43.2498 28.0089C43.2199 28.0412 43.1884 28.0715 43.1553 28.0998C43.1492 28.0964 43.3146 27.9777 43.2254 28.0405C43.1122 28.1204 43.0049 28.2058 42.8855 28.2754C42.8716 28.2834 42.719 28.3616 42.7196 28.3644C42.713 28.3359 42.9158 28.2854 42.7766 28.3352C42.7474 28.3456 42.7187 28.3582 42.6896 28.3691C42.5628 28.4162 42.4335 28.4543 42.3023 28.4831C42.2723 28.4897 42.2405 28.4931 42.2109 28.5015C42.1124 28.5297 42.3051 28.485 42.3109 28.4887C42.238 28.4852 42.1651 28.4924 42.0939 28.5099C41.9586 28.5185 41.823 28.5185 41.6878 28.5099C41.6565 28.5079 41.6252 28.5044 41.594 28.5024C41.5213 28.4978 41.468 28.4399 41.5647 28.5027C41.6393 28.5512 41.6331 28.5158 41.567 28.5023C41.5361 28.496 41.505 28.4907 41.4741 28.4843C41.3402 28.4566 41.2078 28.4207 41.0775 28.3769C41.0074 28.3533 40.9387 28.3258 40.8695 28.2991C40.8394 28.2894 40.81 28.2769 40.7818 28.2618C40.7814 28.2531 40.9601 28.3562 40.8657 28.3C40.7466 28.229 40.6235 28.1695 40.5072 28.092C40.4451 28.0506 40.3855 28.0056 40.3252 27.9613C40.2987 27.9437 40.2734 27.9237 40.2497 27.9016C40.2517 27.8927 40.3976 28.0421 40.321 27.9614C40.2242 27.8595 40.1207 27.7682 40.029 27.6596C40.008 27.6347 39.9882 27.6087 39.9673 27.5839L39.947 27.5583C39.8954 27.4885 39.8944 27.4888 39.9442 27.5593C39.9947 27.5758 39.9924 27.6371 39.9445 27.5574C39.9274 27.5291 39.9092 27.5015 39.8922 27.4731C39.8147 27.3512 39.7487 27.2209 39.6951 27.0842C39.6997 27.0802 39.7777 27.3377 39.7181 27.1434C39.7068 27.1066 39.6942 27.0705 39.6831 27.0337C39.6612 26.9607 39.6419 26.8869 39.6253 26.8122C39.6088 26.7383 39.6003 26.662 39.5837 26.5884C39.5557 26.4643 39.6001 26.6863 39.595 26.6808C39.5791 26.6634 39.5859 26.5558 39.5847 26.53C39.5771 26.3647 39.5941 26.2042 39.5968 26.0398C39.5989 25.9125 39.5873 26.139 39.5849 26.1324C39.5854 26.0942 39.5915 26.0565 39.6029 26.0205C39.6202 25.9338 39.6363 25.8472 39.6574 25.7614C39.6816 25.6633 39.7094 25.5663 39.7409 25.4706C39.7527 25.4348 39.7671 25.3995 39.778 25.3633C39.8182 25.231 39.6986 25.5231 39.7645 25.4038C39.8552 25.2396 39.9228 25.062 40.0191 24.8998C40.0419 24.8614 40.1806 24.6473 40.107 24.7554C40.0337 24.8631 40.1824 24.659 40.2105 24.6243C40.3275 24.4804 40.465 24.3622 40.5861 24.2244C40.6577 24.1428 40.5361 24.2646 40.5289 24.2702C40.5664 24.2406 40.6031 24.2099 40.6411 24.181C40.7072 24.1305 40.7751 24.0829 40.8445 24.0379C40.9227 23.9872 41.0112 23.9495 41.087 23.8959C41.1765 23.8325 41.0185 23.9237 41.0156 23.9256C41.0565 23.9032 41.0993 23.8851 41.1434 23.8718C41.2172 23.8429 41.5383 23.6897 41.6056 23.7376C41.6026 23.7354 41.3618 23.759 41.5564 23.7452C41.6024 23.7419 41.6482 23.737 41.6943 23.7349C41.7875 23.7306 41.8803 23.7332 41.9734 23.7385C42.2257 23.7367 42.4673 23.6251 42.6457 23.4279C42.8241 23.2306 42.9251 22.9636 42.9268 22.6847C42.9214 22.4071 42.8192 22.1425 42.6415 21.9461C42.4639 21.7498 42.2245 21.6368 41.9733 21.6308Z" fill="#E6E6E6"/>
<path d="M55.3208 21.6308C54.4928 21.6252 53.6817 21.889 52.9885 22.3894C52.2953 22.8899 51.7507 23.6047 51.4226 24.445C51.0555 25.2673 50.9422 26.1999 51.0999 27.1002C51.2577 28.0005 51.6779 28.8188 52.2963 29.4302C52.8776 29.9768 53.5748 30.3517 54.3227 30.5196C55.0706 30.6876 55.8449 30.6432 56.573 30.3906C57.3178 30.1031 57.9635 29.5675 58.4215 28.8575C58.8795 28.1476 59.1271 27.2982 59.1303 26.4263C59.1635 25.4589 58.9264 24.5037 58.4513 23.6905C57.9761 22.8774 57.2858 22.2457 56.4744 21.8814C56.2306 21.8082 55.9705 21.8445 55.7508 21.9824C55.5312 22.1203 55.3697 22.3485 55.3016 22.6175C55.2415 22.8867 55.277 23.1711 55.4009 23.4123C55.5248 23.6534 55.7275 23.8329 55.9675 23.9138C56.1337 23.9848 55.8157 23.8235 55.9709 23.917C56.0347 23.9554 56.0997 23.9901 56.1623 24.0311C56.2155 24.066 56.2665 24.1041 56.3183 24.1415C56.4963 24.2699 56.2314 24.0472 56.3452 24.1626C56.4439 24.2627 56.5416 24.3604 56.6313 24.4709C56.6652 24.5126 56.798 24.6287 56.6948 24.5476C56.6158 24.4855 56.6643 24.5001 56.6947 24.5499C56.7178 24.5878 56.7423 24.6246 56.7651 24.6627C56.8394 24.787 56.907 24.9161 56.9674 25.0493C56.9814 25.0801 56.9942 25.1117 57.0085 25.1424C57.0352 25.1998 57.0739 25.2149 57.0111 25.1429C56.9512 25.0741 56.9893 25.0788 57.0108 25.145C57.0249 25.1885 57.0403 25.2315 57.054 25.2751C57.0987 25.4173 57.1363 25.5621 57.1664 25.7088C57.1804 25.7767 57.1916 25.8449 57.2036 25.9132C57.2462 26.1552 57.1975 25.7627 57.2077 25.9425C57.2163 26.0926 57.2263 26.2411 57.224 26.3917C57.2229 26.4607 57.2202 26.5296 57.2158 26.5984C57.2137 26.6327 57.2102 26.6669 57.2081 26.7012C57.1983 26.8666 57.1979 26.6408 57.2189 26.6253C57.1753 26.7657 57.1464 26.9112 57.1327 27.0588C57.1156 27.1243 57.0954 27.1884 57.0764 27.2532C57.01 27.4793 57.1386 27.13 57.0679 27.2845C57.0098 27.4173 56.9447 27.5462 56.8732 27.6707C56.8421 27.7229 56.725 27.8406 56.8208 27.7587C56.9247 27.6697 56.7663 27.8229 56.7324 27.8623C56.689 27.9129 56.644 27.9618 56.5972 28.0089C56.5673 28.0412 56.5358 28.0715 56.5027 28.0998C56.4966 28.0964 56.662 27.9777 56.5729 28.0405C56.4596 28.1204 56.3523 28.2058 56.2329 28.2754C56.219 28.2834 56.0664 28.3616 56.067 28.3644C56.0604 28.3359 56.2632 28.2854 56.124 28.3352C56.0948 28.3456 56.0661 28.3582 56.037 28.3691C55.9102 28.4162 55.7809 28.4543 55.6497 28.4831C55.6197 28.4897 55.5879 28.4931 55.5583 28.5015C55.4598 28.5297 55.6525 28.485 55.6583 28.4887C55.5854 28.4852 55.5125 28.4924 55.4413 28.5099C55.3061 28.5185 55.1704 28.5185 55.0352 28.5099C55.0039 28.5079 54.9727 28.5044 54.9414 28.5024C54.8687 28.4978 54.8154 28.4399 54.9121 28.5027C54.9867 28.5512 54.9805 28.5158 54.9144 28.5023C54.8835 28.496 54.8524 28.4907 54.8215 28.4843C54.6876 28.4566 54.5552 28.4207 54.4249 28.3769C54.3548 28.3533 54.2861 28.3258 54.2169 28.2991C54.1868 28.2894 54.1574 28.2769 54.1292 28.2618C54.1288 28.2531 54.3075 28.3562 54.2131 28.3C54.0941 28.229 53.9709 28.1695 53.8546 28.092C53.7926 28.0506 53.7329 28.0056 53.6726 27.9613C53.6461 27.9437 53.6208 27.9237 53.5972 27.9016C53.5992 27.8927 53.745 28.0421 53.6684 27.9614C53.5716 27.8595 53.4681 27.7682 53.3764 27.6596C53.3554 27.6347 53.3356 27.6087 53.3147 27.5839L53.2945 27.5583C53.2428 27.4885 53.2418 27.4888 53.2916 27.5593C53.3421 27.5758 53.3398 27.6371 53.2919 27.5574C53.2748 27.5291 53.2566 27.5015 53.2396 27.4731C53.1621 27.3512 53.0961 27.2209 53.0425 27.0842C53.0471 27.0802 53.1251 27.3377 53.0655 27.1434C53.0542 27.1066 53.0416 27.0705 53.0305 27.0337C53.0086 26.9607 52.9893 26.8869 52.9727 26.8122C52.9562 26.7383 52.9478 26.662 52.9311 26.5884C52.9031 26.4643 52.9475 26.6863 52.9424 26.6808C52.9265 26.6634 52.9333 26.5558 52.9321 26.53C52.9245 26.3647 52.9415 26.2042 52.9442 26.0398C52.9463 25.9125 52.9347 26.139 52.9323 26.1324C52.9328 26.0942 52.939 26.0565 52.9504 26.0205C52.9676 25.9338 52.9837 25.8472 53.0048 25.7614C53.029 25.6633 53.0568 25.5663 53.0884 25.4706C53.1001 25.4348 53.1145 25.3995 53.1254 25.3633C53.1656 25.231 53.046 25.5231 53.1119 25.4038C53.2026 25.2396 53.2702 25.062 53.3665 24.8998C53.3893 24.8614 53.5281 24.6473 53.4544 24.7554C53.3811 24.8631 53.5298 24.659 53.5579 24.6243C53.6749 24.4804 53.8124 24.3622 53.9335 24.2244C54.0052 24.1428 53.8835 24.2646 53.8763 24.2702C53.9138 24.2406 53.9505 24.2099 53.9885 24.181C54.0547 24.1305 54.1225 24.0829 54.1919 24.0379C54.2701 23.9872 54.3586 23.9495 54.4344 23.8959C54.5239 23.8325 54.3659 23.9237 54.3631 23.9256C54.404 23.9032 54.4467 23.8851 54.4908 23.8718C54.5646 23.8429 54.8857 23.6897 54.953 23.7376C54.95 23.7354 54.7092 23.759 54.9038 23.7452C54.9498 23.7419 54.9956 23.737 55.0417 23.7349C55.1349 23.7306 55.2277 23.7332 55.3208 23.7385C55.5731 23.7367 55.8147 23.6251 55.9931 23.4279C56.1715 23.2306 56.2725 22.9636 56.2742 22.6847C56.2688 22.4071 56.1666 22.1425 55.989 21.9461C55.8113 21.7498 55.5719 21.6368 55.3208 21.6308Z" fill="#E6E6E6"/>
<path d="M248.143 255.029H14.3046C11.3477 255.025 8.51284 253.725 6.42195 251.414C4.33107 249.103 3.15494 245.97 3.15161 242.701V12.3281C3.15493 9.05957 4.33104 5.92601 6.42191 3.61485C8.51279 1.30368 11.3477 0.00366513 14.3046 0H248.143C251.1 0.00366514 253.935 1.30368 256.026 3.61485C258.117 5.92601 259.293 9.05957 259.296 12.3281V242.701C259.293 245.97 258.117 249.103 256.026 251.414C253.935 253.725 251.1 255.025 248.143 255.029ZM14.3046 1.40512C11.6847 1.40841 9.17297 2.56028 7.32041 4.60801C5.46786 6.65575 4.42578 9.43212 4.4228 12.3281V242.701C4.42585 245.597 5.46796 248.373 7.32051 250.421C9.17306 252.469 11.6848 253.62 14.3046 253.624H248.143C250.763 253.62 253.275 252.469 255.127 250.421C256.98 248.373 258.022 245.597 258.025 242.701V12.3281C258.022 9.43212 256.98 6.65575 255.127 4.60801C253.275 2.56028 250.763 1.40841 248.143 1.40512H14.3046Z" fill="#E6E6E6"/>
<path d="M13.9173 156.745L96.15 156.469L177.963 156.193L224.114 156.038C224.361 156.029 224.595 155.914 224.767 155.717C224.939 155.52 225.035 155.258 225.035 154.984C225.035 154.711 224.939 154.448 224.767 154.252C224.595 154.055 224.361 153.94 224.114 153.931L141.881 154.207L60.0683 154.482L13.9173 154.637C13.6701 154.647 13.436 154.762 13.2642 154.959C13.0924 155.155 12.9963 155.418 12.9963 155.691C12.9963 155.965 13.0924 156.227 13.2642 156.424C13.436 156.62 13.6701 156.736 13.9173 156.745Z" fill="#E6E6E6"/>
<path d="M55.4023 155.036L55.9108 121.85C55.9316 120.493 54.0248 120.492 54.004 121.85L53.4955 155.036C53.4747 156.393 55.3815 156.393 55.4023 155.036Z" fill="#E6E6E6"/>
<path d="M94.7045 155.395L95.9437 113.681L96.2977 101.763C96.338 100.406 94.4312 100.408 94.3909 101.763L93.1518 143.477L92.7977 155.395C92.7574 156.752 94.6643 156.75 94.7045 155.395Z" fill="#E6E6E6"/>
<path d="M133.901 81.9895C133.153 96.7643 131.77 140.344 131.023 155.119C130.954 156.474 132.861 156.47 132.93 155.119C133.677 140.344 135.06 96.7643 135.807 81.9895C135.876 80.6342 133.969 80.6386 133.901 81.9895Z" fill="#E6E6E6"/>
<path d="M172.908 140.293L172.674 154.494C172.652 155.851 174.559 155.851 174.581 154.494C174.857 137.722 175.565 138.269 175.643 133.535C175.665 132.178 173.759 132.178 173.736 133.535C173.736 133.535 173.184 123.521 172.908 140.293Z" fill="#E6E6E6"/>
<path d="M211.115 102.987L211.331 142.828L211.392 154.237C211.401 154.51 211.505 154.769 211.683 154.958C211.861 155.148 212.098 155.255 212.346 155.255C212.593 155.255 212.831 155.148 213.008 154.958C213.186 154.769 213.29 154.51 213.299 154.237L213.083 114.395L213.022 102.987C213.013 102.714 212.909 102.455 212.731 102.265C212.553 102.075 212.316 101.969 212.068 101.969C211.821 101.969 211.583 102.075 211.405 102.265C211.228 102.455 211.123 102.714 211.115 102.987Z" fill="#E6E6E6"/>
<path d="M14.0705 155.559C12.4922 150.765 16.0501 146.154 19.7059 144.082C24.0858 141.6 29.1243 141.037 33.5506 138.644C40.1495 135.076 44.956 128.674 49.2328 122.265C53.6348 115.668 57.6626 108.588 63.2561 103.108C66.2036 100.155 69.6848 97.9282 73.4692 96.5744C78.2376 94.9295 83.2948 94.8167 88.2219 95.4796C98.4033 96.8494 107.841 101.498 117.665 104.452C126.927 107.237 137.132 108.804 146.223 104.472C150.842 102.272 154.619 98.5808 158.676 95.3869C162.602 92.2635 166.992 89.9228 171.647 88.4705C180.773 85.6655 190.739 86.4145 199.235 91.1564C207.045 95.4592 213.229 102.673 216.695 111.525C220.723 122.161 220.198 134.046 218.882 145.241C218.542 148.135 218.138 151.019 217.728 153.901C217.54 155.228 219.377 155.8 219.567 154.461C221.206 142.918 222.839 131.009 220.8 119.392C219.038 109.249 213.992 100.164 206.607 93.8358C199.191 87.4906 189.972 84.2745 180.604 84.7648C175.695 85.0166 170.862 86.2047 166.319 88.2764C161.604 90.4325 157.61 93.6282 153.554 96.9908C149.384 100.448 145.085 103.308 139.907 104.435C134.885 105.529 129.661 105.119 124.661 104.086C114.343 101.956 104.727 97.0713 94.497 94.5686C85.0193 92.2499 74.792 92.0182 66.305 97.9366C59.7765 102.489 55.1634 109.557 50.7362 116.382C46.3478 123.146 41.904 130.38 35.487 135.001C31.5725 137.82 27.1722 138.86 22.7933 140.446C18.4031 142.035 14.1884 144.716 12.3983 149.688C11.6268 151.736 11.5675 154.027 12.2319 156.12C12.6482 157.384 14.4916 156.838 14.0705 155.559Z" fill="#E6E6E6"/>
<path d="M54.7702 117.261L54.7673 117.262L54.7731 117.261H54.7702Z" fill="#E6E6E6"/>
<path d="M58.0759 115.322C57.6352 114.459 56.9321 113.797 56.0916 113.453C55.2511 113.109 54.3275 113.106 53.4849 113.444C53.066 113.613 52.6821 113.873 52.3558 114.209C52.0295 114.544 51.7674 114.949 51.585 115.399C51.5485 115.495 51.5272 115.595 51.4974 115.693C51.4561 115.767 51.4064 115.834 51.3694 115.911C50.9742 116.781 50.866 117.777 51.0634 118.726C51.2608 119.675 51.7515 120.518 52.4509 121.111C53.1504 121.703 54.0147 122.007 54.8952 121.971C55.7757 121.934 56.6171 121.56 57.2746 120.912C57.9656 120.221 58.422 119.29 58.5677 118.273C58.7135 117.256 58.5399 116.215 58.0759 115.322ZM55.6878 117.112C55.6927 117.214 55.6956 117.165 55.6878 117.112V117.112ZM55.445 116.502C55.4357 116.49 55.4369 116.491 55.445 116.502V116.502ZM54.3751 116.977C54.3594 116.949 54.3608 116.953 54.3751 116.977V116.977ZM54.6287 117.215C54.6652 117.233 54.6891 117.238 54.6287 117.215V117.215ZM54.742 117.274L54.7671 117.262C54.7609 117.262 54.7547 117.261 54.7493 117.258L54.75 117.258L54.7697 117.26L54.7734 117.259L54.762 117.256C54.7719 117.255 54.7727 117.257 54.7734 117.259C54.8868 117.201 54.8103 117.229 54.7445 117.251L54.7401 117.25C54.6991 117.227 54.6549 117.211 54.6094 117.204C54.6052 117.201 54.6002 117.199 54.5967 117.196C54.5602 117.168 54.3757 117.008 54.5468 117.175C54.5096 117.139 54.4728 117.103 54.4377 117.064C54.4171 117.041 54.3984 117.015 54.3818 116.988C54.3594 116.945 54.3376 116.903 54.3165 116.859L54.3133 116.836C54.3105 116.816 54.3084 116.808 54.3061 116.797C54.3072 116.785 54.3089 116.772 54.3106 116.759C54.3234 116.721 54.3316 116.682 54.3348 116.641L54.3422 116.631C54.3696 116.589 54.3936 116.54 54.4197 116.496C54.2815 116.728 54.4737 116.47 54.4881 116.437C54.4906 116.432 54.4863 116.435 54.4873 116.431C54.4929 116.428 54.4912 116.43 54.498 116.426C54.5408 116.398 54.5814 116.367 54.6249 116.34C54.6767 116.308 54.8807 116.244 54.6691 116.311C54.7172 116.296 54.7633 116.277 54.8119 116.263C54.8207 116.26 54.8919 116.249 54.9302 116.242C54.9639 116.241 54.9966 116.239 55.0001 116.239C55.0159 116.24 55.0317 116.242 55.0476 116.243C55.0125 116.248 55.168 116.285 55.2143 116.293C55.2209 116.299 55.2243 116.302 55.2334 116.31C55.2725 116.341 55.32 116.369 55.3612 116.399C55.1769 116.267 55.3637 116.409 55.3989 116.448C55.4199 116.471 55.4393 116.496 55.4592 116.521C55.4773 116.544 55.4938 116.569 55.5083 116.595C55.5385 116.656 55.5706 116.718 55.6024 116.779L55.6112 116.794C55.611 116.796 55.611 116.798 55.611 116.8C55.6275 116.898 55.652 116.994 55.684 117.087C55.6855 117.094 55.6867 117.102 55.6876 117.11C55.6905 117.164 55.6946 117.217 55.6947 117.271L55.6942 117.282C55.5474 117.197 55.3845 117.153 55.2189 117.151C55.0533 117.15 54.8899 117.192 54.742 117.274Z" fill="#E6E6E6"/>
<path d="M54.7759 117.259C54.7803 117.261 54.7751 117.261 54.7751 117.261L54.7759 117.259Z" fill="#E6E6E6"/>
<path d="M54.7758 117.26L54.7723 117.261C54.7767 117.261 54.7758 117.26 54.7758 117.26Z" fill="#E6E6E6"/>
<path d="M54.7737 117.258L54.7757 117.259L54.7737 117.258Z" fill="#E6E6E6"/>
<path d="M95.4482 97.5889L95.4453 97.5905L95.4511 97.5889H95.4482Z" fill="#E6E6E6"/>
<path d="M98.754 95.6502C98.3133 94.7876 97.6102 94.1255 96.7697 93.7816C95.9291 93.4378 95.0056 93.4344 94.163 93.772C93.7441 93.941 93.3602 94.2011 93.0339 94.537C92.7075 94.8728 92.4455 95.2776 92.2631 95.7273C92.2266 95.8229 92.2053 95.9234 92.1755 96.0214C92.1342 96.0952 92.0845 96.1619 92.0475 96.2391C91.6523 97.1096 91.5441 98.1051 91.7415 99.0543C91.9389 100.003 92.4296 100.847 93.129 101.439C93.8285 102.031 94.6928 102.336 95.5733 102.299C96.4538 102.263 97.2952 101.888 97.9527 101.24C98.6437 100.549 99.1001 99.6183 99.2458 98.6014C99.3916 97.5844 99.218 96.5429 98.754 95.6502ZM96.3659 97.44C96.3708 97.5421 96.3737 97.4933 96.3659 97.44V97.44ZM96.1231 96.8299C96.1138 96.8181 96.115 96.8193 96.1231 96.8299V96.8299ZM95.0532 97.3055C95.0375 97.277 95.0389 97.2811 95.0532 97.3055V97.3055ZM95.3068 97.5431C95.3433 97.5611 95.3672 97.5659 95.3068 97.5431V97.5431ZM95.42 97.6028L95.4451 97.5901C95.439 97.5907 95.4328 97.5894 95.4273 97.5862L95.4281 97.586L95.4477 97.5888L95.4514 97.5869L95.4401 97.584C95.4499 97.5836 95.4508 97.5852 95.4514 97.5869C95.5649 97.5295 95.4883 97.557 95.4226 97.5795L95.4182 97.5784C95.3771 97.5554 95.333 97.5397 95.2874 97.532C95.2833 97.5294 95.2783 97.5275 95.2747 97.5248C95.2382 97.496 95.0537 97.3367 95.2249 97.5037C95.1876 97.4674 95.1508 97.4317 95.1158 97.3924C95.0952 97.369 95.0764 97.3436 95.0599 97.3164C95.0374 97.2739 95.0156 97.2309 94.9945 97.1876L94.9914 97.1642C94.9886 97.1448 94.9865 97.1367 94.9842 97.1251C94.9852 97.113 94.987 97.1001 94.9887 97.0875C95.0015 97.0496 95.0096 97.01 95.0129 96.9697L95.0203 96.9594C95.0477 96.9172 95.0716 96.8679 95.0978 96.824C94.9596 97.056 95.1518 96.7984 95.1662 96.7658C95.1686 96.7602 95.1644 96.7632 95.1654 96.7594C95.171 96.7559 95.1693 96.7583 95.176 96.7539C95.2189 96.726 95.2594 96.695 95.3029 96.6683C95.3547 96.6366 95.5587 96.5726 95.3472 96.6394C95.3952 96.6243 95.4413 96.6051 95.4899 96.5911C95.4987 96.5885 95.5699 96.5775 95.6083 96.5699C95.642 96.5689 95.6747 96.5678 95.6781 96.5679C95.694 96.5681 95.7098 96.5702 95.7256 96.571C95.6905 96.5762 95.8461 96.6134 95.8923 96.6212C95.899 96.627 95.9024 96.6307 95.9115 96.6381C95.9505 96.6696 95.9981 96.6977 96.0393 96.7271C95.8549 96.5954 96.0417 96.7376 96.0769 96.7765C96.098 96.7998 96.1174 96.8246 96.1372 96.8491C96.1554 96.8724 96.1718 96.8973 96.1863 96.9236C96.2166 96.9848 96.2487 97.0468 96.2805 97.107L96.2893 97.1225C96.2891 97.1245 96.289 97.1265 96.289 97.1285C96.3056 97.2262 96.33 97.322 96.362 97.4149C96.3636 97.4228 96.3648 97.4308 96.3656 97.4388C96.3686 97.4923 96.3726 97.5456 96.3727 97.5994L96.3723 97.6103C96.2255 97.5257 96.0626 97.4809 95.897 97.4796C95.7314 97.4783 95.5679 97.5205 95.42 97.6028Z" fill="#E6E6E6"/>
<path d="M95.4539 97.5886L95.4504 97.5892C95.4548 97.5897 95.4539 97.5886 95.4539 97.5886Z" fill="#E6E6E6"/>
<path d="M95.4517 97.5868L95.4537 97.5878L95.4517 97.5868Z" fill="#E6E6E6"/>
<path d="M95.454 97.5876C95.4584 97.5889 95.4532 97.5891 95.4532 97.5891L95.454 97.5876Z" fill="#E6E6E6"/>
<path d="M134.859 107.423L134.861 107.424L134.859 107.423Z" fill="#E6E6E6"/>
<path d="M138.161 75.9786C137.72 75.1159 137.017 74.4539 136.177 74.11C135.336 73.7662 134.412 73.7627 133.57 74.1004C133.151 74.2694 132.767 74.5295 132.441 74.8653C132.114 75.2012 131.852 75.606 131.67 76.0557C131.633 76.1513 131.612 76.2518 131.582 76.3497C131.541 76.4236 131.491 76.4903 131.454 76.5675C131.059 77.4379 130.951 78.4335 131.148 79.3827C131.346 80.3318 131.836 81.1752 132.536 81.7675C133.235 82.3598 134.1 82.6639 134.98 82.6276C135.861 82.5912 136.702 82.2166 137.36 81.5682C138.051 80.8778 138.507 79.9467 138.653 78.9297C138.798 77.9128 138.625 76.8713 138.161 75.9786ZM135.773 77.7684C135.778 77.8705 135.781 77.8216 135.773 77.7684V77.7684ZM135.53 77.1583C135.521 77.1464 135.522 77.1477 135.53 77.1583V77.1583ZM134.46 77.6338C134.444 77.6054 134.446 77.6095 134.46 77.6338V77.6338ZM134.714 77.8715C134.75 77.8895 134.774 77.8942 134.714 77.8715V77.8715ZM134.827 77.9312L134.852 77.9184C134.846 77.9191 134.84 77.9177 134.834 77.9146L134.835 77.9144L134.855 77.9171L134.858 77.9153L134.847 77.9124C134.857 77.912 134.858 77.9136 134.858 77.9153C134.972 77.8579 134.895 77.8854 134.829 77.9079L134.825 77.9068C134.784 77.8837 134.74 77.8681 134.694 77.8604C134.69 77.8578 134.685 77.8559 134.682 77.8531C134.645 77.8244 134.461 77.6651 134.632 77.8321C134.595 77.7957 134.558 77.76 134.523 77.7208C134.502 77.6974 134.483 77.6719 134.467 77.6448C134.444 77.6022 134.422 77.5593 134.401 77.5159L134.398 77.4926C134.395 77.4732 134.393 77.4651 134.391 77.4534C134.392 77.4414 134.394 77.4284 134.396 77.4159C134.408 77.378 134.416 77.3384 134.42 77.2981L134.427 77.2878C134.455 77.2455 134.479 77.1963 134.505 77.1524C134.366 77.3843 134.559 77.1268 134.573 77.0941C134.575 77.0886 134.571 77.0916 134.572 77.0877C134.578 77.0843 134.576 77.0867 134.583 77.0823C134.626 77.0544 134.666 77.0233 134.71 76.9967C134.762 76.965 134.966 76.901 134.754 76.9678C134.802 76.9526 134.848 76.9335 134.897 76.9194C134.906 76.9169 134.977 76.9059 135.015 76.8983C135.049 76.8973 135.082 76.8962 135.085 76.8962C135.101 76.8965 135.117 76.8986 135.132 76.8994C135.097 76.9046 135.253 76.9417 135.299 76.9496C135.306 76.9554 135.309 76.9591 135.318 76.9664C135.357 76.998 135.405 77.026 135.446 77.0555C135.262 76.9238 135.449 77.066 135.484 77.1049C135.505 77.1282 135.524 77.153 135.544 77.1775C135.562 77.2008 135.579 77.2257 135.593 77.252C135.623 77.3132 135.656 77.3752 135.687 77.4354L135.696 77.4509C135.696 77.4528 135.696 77.4548 135.696 77.4568C135.712 77.5545 135.737 77.6504 135.769 77.7433C135.77 77.7512 135.772 77.7591 135.772 77.7671C135.775 77.8206 135.779 77.874 135.78 77.9278L135.779 77.9387C135.632 77.8541 135.469 77.8093 135.304 77.8079C135.138 77.8066 134.975 77.8489 134.827 77.9312Z" fill="#E6E6E6"/>
<path d="M134.855 107.425L134.852 107.426L134.858 107.425H134.855Z" fill="#E6E6E6"/>
<path d="M134.861 107.424L134.857 107.425C134.862 107.426 134.861 107.424 134.861 107.424Z" fill="#E6E6E6"/>
<path d="M134.861 107.423C134.865 107.425 134.86 107.425 134.86 107.425L134.861 107.423Z" fill="#E6E6E6"/>
<path d="M178.203 130.076C177.763 129.213 177.06 128.551 176.219 128.207C175.378 127.863 174.455 127.86 173.612 128.197C173.193 128.366 172.81 128.626 172.483 128.962C172.157 129.298 171.895 129.703 171.712 130.153C171.676 130.248 171.655 130.349 171.625 130.447C171.584 130.521 171.534 130.587 171.497 130.664C171.102 131.535 170.993 132.53 171.191 133.48C171.388 134.429 171.879 135.272 172.578 135.864C173.278 136.457 174.142 136.761 175.023 136.725C175.903 136.688 176.745 136.314 177.402 135.665C178.093 134.975 178.549 134.044 178.695 133.027C178.841 132.01 178.667 130.968 178.203 130.076ZM175.815 131.865C175.82 131.967 175.823 131.919 175.815 131.865V131.865ZM175.572 131.255C175.563 131.243 175.564 131.245 175.572 131.255V131.255ZM174.503 131.731C174.487 131.702 174.488 131.706 174.503 131.731V131.731ZM174.756 131.969C174.793 131.986 174.817 131.991 174.756 131.969V131.969ZM174.869 132.028L174.894 132.015C174.888 132.016 174.882 132.015 174.877 132.012L174.877 132.011L174.897 132.014L174.901 132.012L174.889 132.009C174.899 132.009 174.9 132.011 174.901 132.012C175.014 131.955 174.938 131.982 174.872 132.005L174.868 132.004C174.826 131.981 174.782 131.965 174.737 131.957C174.733 131.955 174.728 131.953 174.724 131.95C174.688 131.921 174.503 131.762 174.674 131.929C174.637 131.893 174.6 131.857 174.565 131.818C174.544 131.794 174.526 131.769 174.509 131.742C174.487 131.699 174.465 131.656 174.444 131.613L174.441 131.59C174.438 131.57 174.436 131.562 174.434 131.55C174.435 131.538 174.436 131.525 174.438 131.513C174.451 131.475 174.459 131.435 174.462 131.395L174.47 131.385C174.497 131.343 174.521 131.293 174.547 131.249C174.409 131.481 174.601 131.224 174.616 131.191C174.618 131.186 174.614 131.189 174.615 131.185C174.62 131.181 174.619 131.184 174.625 131.179C174.668 131.151 174.709 131.12 174.752 131.094C174.804 131.062 175.008 130.998 174.796 131.065C174.845 131.05 174.891 131.03 174.939 131.016C174.948 131.014 175.019 131.003 175.058 130.995C175.091 130.994 175.124 130.993 175.127 130.993C175.143 130.993 175.159 130.996 175.175 130.996C175.14 131.002 175.295 131.039 175.342 131.047C175.348 131.052 175.352 131.056 175.361 131.063C175.4 131.095 175.447 131.123 175.489 131.152C175.304 131.021 175.491 131.163 175.526 131.202C175.547 131.225 175.567 131.25 175.587 131.274C175.605 131.298 175.621 131.323 175.636 131.349C175.666 131.41 175.698 131.472 175.73 131.532L175.739 131.548C175.738 131.55 175.738 131.552 175.738 131.554C175.755 131.652 175.779 131.747 175.811 131.84C175.813 131.848 175.814 131.856 175.815 131.864C175.818 131.918 175.822 131.971 175.822 132.025L175.822 132.036C175.675 131.951 175.512 131.906 175.346 131.905C175.181 131.904 175.017 131.946 174.869 132.028Z" fill="#E6E6E6"/>
<path d="M174.898 85.6454L174.895 85.647L174.9 85.6454H174.898Z" fill="#E6E6E6"/>
<path d="M174.903 85.6451L174.9 85.6457C174.904 85.6462 174.903 85.6451 174.903 85.6451Z" fill="#E6E6E6"/>
<path d="M174.903 85.6441C174.908 85.6454 174.903 85.6456 174.903 85.6456L174.903 85.6441Z" fill="#E6E6E6"/>
<path d="M174.901 85.6433L174.903 85.6443L174.901 85.6433Z" fill="#E6E6E6"/>
<path d="M215.703 97.7579C215.263 96.8952 214.56 96.2332 213.719 95.8893C212.878 95.5454 211.955 95.542 211.112 95.8797C210.693 96.0487 210.31 96.3088 209.983 96.6446C209.657 96.9805 209.395 97.3853 209.212 97.835C209.176 97.9306 209.155 98.0311 209.125 98.129C209.084 98.2029 209.034 98.2695 208.997 98.3468C208.602 99.2172 208.493 100.213 208.691 101.162C208.888 102.111 209.379 102.954 210.078 103.547C210.778 104.139 211.642 104.443 212.523 104.407C213.403 104.37 214.245 103.996 214.902 103.348C215.593 102.657 216.049 101.726 216.195 100.709C216.341 99.6921 216.167 98.6506 215.703 97.7579ZM213.315 99.5477C213.32 99.6498 213.323 99.6009 213.315 99.5477V99.5477ZM213.072 98.9376C213.063 98.9257 213.064 98.927 213.072 98.9376V98.9376ZM212.003 99.4131C211.987 99.3847 211.988 99.3888 212.003 99.4131V99.4131ZM212.256 99.6508C212.293 99.6688 212.317 99.6735 212.256 99.6508V99.6508ZM212.369 99.7105L212.394 99.6977C212.388 99.6984 212.382 99.697 212.377 99.6939L212.377 99.6937L212.397 99.6964L212.401 99.6946L212.389 99.6917C212.399 99.6913 212.4 99.6929 212.401 99.6946C212.514 99.6372 212.438 99.6647 212.372 99.6872L212.368 99.6861C212.326 99.663 212.282 99.6474 212.237 99.6397C212.233 99.6371 212.228 99.6352 212.224 99.6324C212.188 99.6037 212.003 99.4444 212.174 99.6114C212.137 99.575 212.1 99.5393 212.065 99.5001C212.044 99.4766 212.026 99.4512 212.009 99.4241C211.987 99.3815 211.965 99.3386 211.944 99.2952L211.941 99.2719C211.938 99.2525 211.936 99.2444 211.934 99.2327C211.935 99.2207 211.936 99.2077 211.938 99.1952C211.951 99.1573 211.959 99.1177 211.962 99.0774L211.97 99.0671C211.997 99.0248 212.021 98.9756 212.047 98.9317C211.909 99.1636 212.101 98.9061 212.116 98.8734C212.118 98.8679 212.114 98.8709 212.115 98.867C212.12 98.8636 212.119 98.866 212.125 98.8616C212.168 98.8337 212.209 98.8026 212.252 98.776C212.304 98.7443 212.508 98.6803 212.296 98.7471C212.345 98.7319 212.391 98.7128 212.439 98.6987C212.448 98.6962 212.519 98.6852 212.558 98.6775C212.591 98.6766 212.624 98.6755 212.627 98.6755C212.643 98.6758 212.659 98.6779 212.675 98.6787C212.64 98.6839 212.795 98.721 212.842 98.7289C212.848 98.7347 212.852 98.7384 212.861 98.7457C212.9 98.7773 212.947 98.8053 212.989 98.8348C212.804 98.7031 212.991 98.8453 213.026 98.8842C213.047 98.9075 213.067 98.9323 213.087 98.9568C213.105 98.9801 213.121 99.005 213.136 99.0313C213.166 99.0925 213.198 99.1545 213.23 99.2147L213.239 99.2302C213.238 99.2321 213.238 99.2341 213.238 99.2361C213.255 99.3338 213.279 99.4297 213.311 99.5226C213.313 99.5305 213.314 99.5384 213.315 99.5464C213.318 99.5999 213.322 99.6533 213.322 99.7071L213.322 99.718C213.175 99.6334 213.012 99.5886 212.846 99.5872C212.681 99.5859 212.517 99.6282 212.369 99.7105Z" fill="#E6E6E6"/>
<path d="M212.398 99.6966L212.395 99.6982L212.401 99.6966H212.398Z" fill="#E6E6E6"/>
<path d="M212.401 99.6945L212.403 99.6955L212.401 99.6945Z" fill="#E6E6E6"/>
<path d="M212.403 99.6953C212.408 99.6966 212.403 99.6967 212.403 99.6967L212.403 99.6953Z" fill="#E6E6E6"/>
<path d="M212.403 99.6963L212.4 99.6969C212.404 99.6974 212.403 99.6963 212.403 99.6963Z" fill="#E6E6E6"/>
<path d="M202.121 131.894L172.568 133.709C172.401 133.719 172.238 133.659 172.11 133.539C171.983 133.42 171.902 133.251 171.884 133.068C171.866 132.885 171.912 132.701 172.013 132.554C172.114 132.407 172.262 132.309 172.427 132.279L202.633 126.846L202.121 131.894Z" fill="#3F3D56"/>
<path d="M239.679 204.62L250.815 183.91L259.047 188.207C259.047 188.207 244.863 207.788 244.411 208.352C244.605 209.303 244.532 210.298 244.204 211.203C243.875 212.108 243.305 212.882 242.57 213.421C241.835 213.961 240.968 214.241 240.086 214.225C239.204 214.208 238.347 213.896 237.628 213.33C236.91 212.763 236.364 211.969 236.063 211.052C235.761 210.135 235.719 209.139 235.941 208.195C236.164 207.251 236.64 206.403 237.307 205.765C237.975 205.127 238.802 204.727 239.679 204.62Z" fill="#FFB6B6"/>
<path d="M244.311 156.512L262.354 166.917C263.482 167.815 264.428 168.963 265.131 170.288C265.834 171.613 266.28 173.085 266.439 174.611C266.598 176.137 266.467 177.683 266.055 179.15C265.643 180.617 264.958 181.973 264.045 183.131L251.607 198.903L246.188 190.787L250.364 181.134L242.277 178.776L244.311 156.512Z" fill="#6C63FF"/>
<path d="M192.894 132.232L190.861 156.22L181.758 156.236C181.758 156.236 186.981 131.825 187.171 131.102C186.627 130.334 186.307 129.401 186.253 128.428C186.199 127.454 186.414 126.485 186.869 125.649C187.324 124.813 187.998 124.15 188.802 123.747C189.605 123.344 190.501 123.22 191.37 123.391C192.238 123.563 193.04 124.022 193.667 124.707C194.295 125.393 194.719 126.273 194.885 127.232C195.05 128.19 194.948 129.181 194.592 130.074C194.237 130.967 193.645 131.719 192.894 132.232Z" fill="#FFB6B6"/>
<path d="M211.014 181.286L190.062 177.039C181.239 175.866 177.618 169.449 179.21 163.19L184.334 143.048L192.376 147.814L192.345 158.514L203.604 156.813L211.014 181.286Z" fill="#6C63FF"/>
<path d="M202.438 347.058H196.676L193.936 322.495H202.439L202.438 347.058Z" fill="#FFB6B6"/>
<path d="M202.641 353.702L184.924 353.701V353.453C184.925 351.432 185.651 349.493 186.944 348.064C188.237 346.635 189.991 345.831 191.82 345.831L195.057 343.118L201.094 345.832L202.641 345.832L202.641 353.702Z" fill="#2F2E41"/>
<path d="M243.201 347.058H248.962L251.703 322.495H243.2L243.201 347.058Z" fill="#FFB6B6"/>
<path d="M242.998 353.702L260.715 353.701V353.453C260.714 351.432 259.988 349.493 258.695 348.064C257.402 346.635 255.648 345.831 253.819 345.831L250.582 343.118L244.545 345.832L242.998 345.832L242.998 353.702Z" fill="#2F2E41"/>
<path d="M193.682 304.445C193.767 303.044 194.444 295.293 194.444 295.293L196.064 278.854L198.92 235.281L201.466 223.827L214.067 229.253L224.292 223.835L236.445 228.129L245.908 232.052C245.908 232.052 245.925 233.731 245.997 235.76C246.095 238.415 246.265 241.67 246.67 242.517C247.346 244.012 247.176 252.041 247.176 252.041C247.176 252.041 247.849 268.376 248.695 270.167C249.542 271.959 249.712 275.689 249.457 276.436C249.202 277.184 250.304 296.802 250.304 296.802C250.304 296.802 253.132 331.517 251.357 336.752C249.583 341.986 242.878 338.558 242.878 338.558C242.878 338.558 243.202 337.16 241.258 336.502C239.313 335.844 233.391 286.619 233.391 286.619C233.391 286.619 232.289 276.526 231.276 273.633C230.263 270.741 229.331 262.613 229.331 262.613C229.331 262.613 223.077 249.162 222.996 246.171C222.996 246.171 222.177 243.372 221.404 246.453C220.63 249.534 218.349 256.913 218.349 256.913L216.125 265.976L213.508 279.517L211.815 290.918C211.815 290.918 209.279 306.048 208.874 306.702C208.469 307.356 208.874 321.179 208.874 321.179C208.874 321.179 206.913 332.951 204.142 335.007C201.371 337.062 194.03 335.039 194.03 335.039C194.03 335.039 193.597 305.847 193.682 304.445Z" fill="#2F2E41"/>
<path d="M203.102 186.974L201.492 210.03L199.073 212.798C198.855 213.047 198.685 213.343 198.572 213.667C198.46 213.991 198.408 214.336 198.419 214.683C198.431 215.03 198.505 215.371 198.639 215.685C198.772 215.999 198.961 216.28 199.195 216.511L197.863 219.038L197.391 226.998C197.256 227.617 197.247 228.262 197.364 228.885C197.481 229.509 197.721 230.097 198.067 230.606C198.413 231.115 198.856 231.534 199.365 231.832C199.875 232.13 200.437 232.3 201.013 232.33L242.728 234.496C243.301 234.526 243.872 234.416 244.402 234.175C244.932 233.934 245.407 233.567 245.795 233.101C246.183 232.634 246.473 232.079 246.645 231.475C246.817 230.871 246.867 230.233 246.792 229.605L243.245 200.088V197.881L241.657 193.618L242.473 179.339L244.372 156.676L233.336 153.525L227.353 148.974L216.958 149.157L210.65 154.883L202.24 156.339L195.88 157.737L195.07 159.683L196.69 159.294L202.564 184.615L203.102 186.974Z" fill="#6C63FF"/>
<path d="M221.923 145.885C228.686 145.885 234.168 139.825 234.168 132.349C234.168 124.874 228.686 118.814 221.923 118.814C215.16 118.814 209.677 124.874 209.677 132.349C209.677 139.825 215.16 145.885 221.923 145.885Z" fill="#FFB6B6"/>
<path d="M218.97 145.012L227.818 144.513C228.951 144.449 230.189 144.338 231.013 143.476C231.457 142.943 231.798 142.317 232.016 141.634C232.834 139.534 233.652 137.434 234.449 135.324C235.551 132.406 236.634 129.325 236.353 126.177C236.287 124.74 235.741 123.381 234.822 122.362C234.353 121.871 233.75 121.565 233.107 121.493C232.464 121.421 231.818 121.587 231.269 121.964C231.133 120.968 230.793 120.02 230.277 119.191C229.76 118.362 229.08 117.673 228.287 117.178C226.686 116.2 224.858 115.772 223.035 115.947C220.391 116.135 217.867 117.235 215.817 119.092C215.241 119.679 214.625 120.218 213.976 120.704C213.649 120.946 213.282 121.111 212.895 121.19C212.509 121.269 212.112 121.26 211.729 121.164C211.349 121.052 211.019 120.792 210.8 120.431C210.58 120.071 210.486 119.635 210.535 119.204C209.912 119.719 209.484 120.473 209.336 121.317C209.188 122.161 209.33 123.036 209.734 123.771C209.275 123.984 208.774 124.061 208.279 123.997C207.785 123.932 207.314 123.727 206.912 123.402C206.482 123.638 206.101 123.971 205.793 124.379C205.486 124.787 205.259 125.262 205.128 125.773C204.996 126.283 204.962 126.819 205.029 127.345C205.095 127.871 205.26 128.375 205.513 128.827C205.766 129.278 206.101 129.666 206.498 129.966C206.894 130.266 207.343 130.471 207.816 130.568C208.288 130.665 208.773 130.652 209.241 130.529C209.708 130.407 210.148 130.178 210.53 129.857C211.067 130.689 210.867 131.818 210.797 132.837C210.727 133.855 210.975 135.121 211.863 135.403C213.064 135.783 214.037 133.996 215.286 134.015C215.594 134.043 215.891 134.154 216.151 134.339C216.411 134.524 216.625 134.777 216.775 135.076C217.07 135.676 217.271 136.327 217.372 137L218.971 144.956" fill="#2F2E41"/>
<path d="M563.936 266.717C563.936 264.621 563.299 262.92 562.517 262.916H349.374C348.589 262.92 347.955 264.621 347.952 266.717V352.998C347.952 353.193 347.886 353.38 347.768 353.524C347.65 353.669 347.487 353.759 347.312 353.778C346.74 353.838 346.168 353.895 345.596 353.947C345.582 353.947 345.567 353.951 345.553 353.951C345.242 353.982 344.931 354.006 344.619 354.033H344.616C344.456 353.706 344.297 353.376 344.141 353.043C344.088 352.931 344.06 352.806 344.06 352.679V261.786C344.06 261.207 344.082 260.625 344.117 260.05C344.167 259.261 344.256 258.475 344.382 257.696C344.98 254.063 346.331 251.603 347.867 251.596H564.021C564.245 251.597 564.466 251.649 564.672 251.748C564.973 251.896 565.246 252.107 565.475 252.37C565.785 252.726 566.05 253.128 566.264 253.562C567.144 255.503 567.652 257.624 567.753 259.792C567.753 259.815 567.757 259.839 567.757 259.862C567.806 260.496 567.831 261.141 567.827 261.786L567.877 270.166L567.909 275.164L568.004 290.844L568.04 296.413L568.195 353.583C568.195 353.791 568.121 353.99 567.988 354.136C567.855 354.283 567.675 354.366 567.488 354.366H564.643C564.456 354.366 564.276 354.283 564.143 354.136C564.01 353.99 563.936 353.791 563.936 353.583V266.717Z" fill="#E6E6E6"/>
<path d="M506.018 212.383H483.051C482.727 212.384 482.415 212.527 482.186 212.781C481.956 213.036 481.828 213.38 481.828 213.739V253.842H507.245V213.739C507.245 213.561 507.213 213.385 507.151 213.22C507.09 213.056 506.999 212.906 506.886 212.78C506.772 212.654 506.636 212.555 506.488 212.486C506.339 212.418 506.179 212.383 506.018 212.383ZM494.612 235.169C493.894 235.166 493.206 234.849 492.698 234.287C492.19 233.726 491.903 232.966 491.9 232.172V227.546C491.9 226.751 492.186 225.989 492.694 225.426C493.203 224.864 493.893 224.548 494.612 224.548C495.331 224.548 496.021 224.864 496.53 225.426C497.038 225.989 497.324 226.751 497.324 227.546V232.172C497.321 232.966 497.034 233.726 496.526 234.287C496.018 234.849 495.33 235.166 494.612 235.169Z" fill="#CCCCCC"/>
<path d="M481.749 252.559V256.429C481.749 256.629 481.822 256.821 481.95 256.963C482.078 257.105 482.252 257.185 482.433 257.185H506.639C506.82 257.184 506.994 257.104 507.122 256.962C507.25 256.821 507.323 256.629 507.323 256.429V252.559H481.749Z" fill="#3F3D56"/>
<path d="M544.049 149.799H445.875C445.032 149.8 444.223 150.171 443.627 150.83C443.031 151.49 442.695 152.383 442.694 153.316V226.543C442.694 227.475 443.03 228.369 443.626 229.029C444.223 229.688 445.032 230.059 445.875 230.06H544.049C544.892 230.059 545.701 229.688 546.298 229.029C546.894 228.369 547.23 227.475 547.23 226.543V153.316C547.229 152.383 546.893 151.49 546.297 150.83C545.701 150.171 544.892 149.8 544.049 149.799Z" fill="#E6E6E6"/>
<path d="M543.229 152.339H446.696C446.244 152.34 445.811 152.539 445.492 152.892C445.173 153.246 444.994 153.724 444.994 154.224V225.636C444.995 226.134 445.174 226.612 445.493 226.965C445.812 227.317 446.245 227.516 446.696 227.517H543.229C543.68 227.516 544.112 227.317 544.431 226.965C544.75 226.612 544.93 226.134 544.931 225.636V154.224C544.931 153.724 544.751 153.246 544.432 152.892C544.113 152.539 543.681 152.34 543.229 152.339Z" fill="white"/>
<path d="M524.426 258.531H466.994C466.837 258.531 466.681 258.493 466.54 258.418C466.398 258.343 466.273 258.234 466.173 258.099C466.074 257.964 466.004 257.807 465.967 257.638C465.93 257.469 465.928 257.293 465.96 257.123L466.851 252.445C466.902 252.183 467.032 251.948 467.22 251.779C467.408 251.611 467.643 251.518 467.885 251.517H523.535C523.777 251.518 524.012 251.611 524.2 251.779C524.388 251.948 524.518 252.183 524.569 252.445L525.46 257.123C525.492 257.293 525.49 257.469 525.453 257.638C525.416 257.807 525.345 257.964 525.246 258.099C525.147 258.234 525.022 258.343 524.88 258.418C524.738 258.493 524.583 258.531 524.426 258.531Z" fill="#CCCCCC"/>
<path d="M469.751 252.36H468.603C468.432 252.36 468.293 252.513 468.293 252.703V253.19C468.293 253.379 468.432 253.533 468.603 253.533H469.751C469.923 253.533 470.062 253.379 470.062 253.19V252.703C470.062 252.513 469.923 252.36 469.751 252.36Z" fill="#E6E6E6"/>
<path d="M473.289 252.36H472.141C471.969 252.36 471.83 252.513 471.83 252.703V253.19C471.83 253.379 471.969 253.533 472.141 253.533H473.289C473.46 253.533 473.599 253.379 473.599 253.19V252.703C473.599 252.513 473.46 252.36 473.289 252.36Z" fill="#E6E6E6"/>
<path d="M476.827 252.36H475.678C475.507 252.36 475.368 252.513 475.368 252.703V253.19C475.368 253.379 475.507 253.533 475.678 253.533H476.827C476.998 253.533 477.137 253.379 477.137 253.19V252.703C477.137 252.513 476.998 252.36 476.827 252.36Z" fill="#E6E6E6"/>
<path d="M480.364 252.36H479.216C479.045 252.36 478.906 252.513 478.906 252.703V253.19C478.906 253.379 479.045 253.533 479.216 253.533H480.364C480.536 253.533 480.675 253.379 480.675 253.19V252.703C480.675 252.513 480.536 252.36 480.364 252.36Z" fill="#E6E6E6"/>
<path d="M483.902 252.36H482.754C482.582 252.36 482.443 252.513 482.443 252.703V253.19C482.443 253.379 482.582 253.533 482.754 253.533H483.902C484.073 253.533 484.212 253.379 484.212 253.19V252.703C484.212 252.513 484.073 252.36 483.902 252.36Z" fill="#E6E6E6"/>
<path d="M487.44 252.36H486.291C486.12 252.36 485.981 252.513 485.981 252.703V253.19C485.981 253.379 486.12 253.533 486.291 253.533H487.44C487.611 253.533 487.75 253.379 487.75 253.19V252.703C487.75 252.513 487.611 252.36 487.44 252.36Z" fill="#E6E6E6"/>
<path d="M490.977 252.36H489.829C489.658 252.36 489.519 252.513 489.519 252.703V253.19C489.519 253.379 489.658 253.533 489.829 253.533H490.977C491.149 253.533 491.288 253.379 491.288 253.19V252.703C491.288 252.513 491.149 252.36 490.977 252.36Z" fill="#E6E6E6"/>
<path d="M494.515 252.36H493.367C493.196 252.36 493.057 252.513 493.057 252.703V253.19C493.057 253.379 493.196 253.533 493.367 253.533H494.515C494.687 253.533 494.825 253.379 494.825 253.19V252.703C494.825 252.513 494.687 252.36 494.515 252.36Z" fill="#E6E6E6"/>
<path d="M498.053 252.36H496.905C496.733 252.36 496.594 252.513 496.594 252.703V253.19C496.594 253.379 496.733 253.533 496.905 253.533H498.053C498.224 253.533 498.363 253.379 498.363 253.19V252.703C498.363 252.513 498.224 252.36 498.053 252.36Z" fill="#E6E6E6"/>
<path d="M501.591 252.36H500.442C500.271 252.36 500.132 252.513 500.132 252.703V253.19C500.132 253.379 500.271 253.533 500.442 253.533H501.591C501.762 253.533 501.901 253.379 501.901 253.19V252.703C501.901 252.513 501.762 252.36 501.591 252.36Z" fill="#E6E6E6"/>
<path d="M505.128 252.36H503.98C503.809 252.36 503.67 252.513 503.67 252.703V253.19C503.67 253.379 503.809 253.533 503.98 253.533H505.128C505.3 253.533 505.439 253.379 505.439 253.19V252.703C505.439 252.513 505.3 252.36 505.128 252.36Z" fill="#E6E6E6"/>
<path d="M508.666 252.36H507.518C507.346 252.36 507.208 252.513 507.208 252.703V253.19C507.208 253.379 507.346 253.533 507.518 253.533H508.666C508.837 253.533 508.976 253.379 508.976 253.19V252.703C508.976 252.513 508.837 252.36 508.666 252.36Z" fill="#E6E6E6"/>
<path d="M512.204 252.36H511.055C510.884 252.36 510.745 252.513 510.745 252.703V253.19C510.745 253.379 510.884 253.533 511.055 253.533H512.204C512.375 253.533 512.514 253.379 512.514 253.19V252.703C512.514 252.513 512.375 252.36 512.204 252.36Z" fill="#E6E6E6"/>
<path d="M515.741 252.36H514.593C514.422 252.36 514.283 252.513 514.283 252.703V253.19C514.283 253.379 514.422 253.533 514.593 253.533H515.741C515.913 253.533 516.052 253.379 516.052 253.19V252.703C516.052 252.513 515.913 252.36 515.741 252.36Z" fill="#E6E6E6"/>
<path d="M519.279 252.36H518.131C517.959 252.36 517.821 252.513 517.821 252.703V253.19C517.821 253.379 517.959 253.533 518.131 253.533H519.279C519.45 253.533 519.589 253.379 519.589 253.19V252.703C519.589 252.513 519.45 252.36 519.279 252.36Z" fill="#E6E6E6"/>
<path d="M522.817 252.36H521.669C521.497 252.36 521.358 252.513 521.358 252.703V253.19C521.358 253.379 521.497 253.533 521.669 253.533H522.817C522.988 253.533 523.127 253.379 523.127 253.19V252.703C523.127 252.513 522.988 252.36 522.817 252.36Z" fill="#E6E6E6"/>
<path d="M469.709 254.315H468.561C468.39 254.315 468.251 254.469 468.251 254.658V255.145C468.251 255.335 468.39 255.488 468.561 255.488H469.709C469.881 255.488 470.02 255.335 470.02 255.145V254.658C470.02 254.469 469.881 254.315 469.709 254.315Z" fill="#E6E6E6"/>
<path d="M473.247 254.315H472.099C471.928 254.315 471.789 254.469 471.789 254.658V255.145C471.789 255.335 471.928 255.488 472.099 255.488H473.247C473.419 255.488 473.557 255.335 473.557 255.145V254.658C473.557 254.469 473.419 254.315 473.247 254.315Z" fill="#E6E6E6"/>
<path d="M476.785 254.315H475.637C475.465 254.315 475.326 254.469 475.326 254.658V255.145C475.326 255.335 475.465 255.488 475.637 255.488H476.785C476.956 255.488 477.095 255.335 477.095 255.145V254.658C477.095 254.469 476.956 254.315 476.785 254.315Z" fill="#E6E6E6"/>
<path d="M480.323 254.315H479.174C479.003 254.315 478.864 254.469 478.864 254.658V255.145C478.864 255.335 479.003 255.488 479.174 255.488H480.323C480.494 255.488 480.633 255.335 480.633 255.145V254.658C480.633 254.469 480.494 254.315 480.323 254.315Z" fill="#E6E6E6"/>
<path d="M483.86 254.315H482.712C482.541 254.315 482.402 254.469 482.402 254.658V255.145C482.402 255.335 482.541 255.488 482.712 255.488H483.86C484.032 255.488 484.171 255.335 484.171 255.145V254.658C484.171 254.469 484.032 254.315 483.86 254.315Z" fill="#E6E6E6"/>
<path d="M487.398 254.315H486.25C486.078 254.315 485.939 254.469 485.939 254.658V255.145C485.939 255.335 486.078 255.488 486.25 255.488H487.398C487.569 255.488 487.708 255.335 487.708 255.145V254.658C487.708 254.469 487.569 254.315 487.398 254.315Z" fill="#E6E6E6"/>
<path d="M490.936 254.315H489.787C489.616 254.315 489.477 254.469 489.477 254.658V255.145C489.477 255.335 489.616 255.488 489.787 255.488H490.936C491.107 255.488 491.246 255.335 491.246 255.145V254.658C491.246 254.469 491.107 254.315 490.936 254.315Z" fill="#E6E6E6"/>
<path d="M494.473 254.315H493.325C493.154 254.315 493.015 254.469 493.015 254.658V255.145C493.015 255.335 493.154 255.488 493.325 255.488H494.473C494.645 255.488 494.784 255.335 494.784 255.145V254.658C494.784 254.469 494.645 254.315 494.473 254.315Z" fill="#E6E6E6"/>
<path d="M498.011 254.315H496.863C496.691 254.315 496.552 254.469 496.552 254.658V255.145C496.552 255.335 496.691 255.488 496.863 255.488H498.011C498.182 255.488 498.321 255.335 498.321 255.145V254.658C498.321 254.469 498.182 254.315 498.011 254.315Z" fill="#E6E6E6"/>
<path d="M501.549 254.315H500.401C500.229 254.315 500.09 254.469 500.09 254.658V255.145C500.09 255.335 500.229 255.488 500.401 255.488H501.549C501.72 255.488 501.859 255.335 501.859 255.145V254.658C501.859 254.469 501.72 254.315 501.549 254.315Z" fill="#E6E6E6"/>
<path d="M505.086 254.315H503.938C503.767 254.315 503.628 254.469 503.628 254.658V255.145C503.628 255.335 503.767 255.488 503.938 255.488H505.086C505.258 255.488 505.397 255.335 505.397 255.145V254.658C505.397 254.469 505.258 254.315 505.086 254.315Z" fill="#E6E6E6"/>
<path d="M508.624 254.315H507.476C507.305 254.315 507.166 254.469 507.166 254.658V255.145C507.166 255.335 507.305 255.488 507.476 255.488H508.624C508.796 255.488 508.935 255.335 508.935 255.145V254.658C508.935 254.469 508.796 254.315 508.624 254.315Z" fill="#E6E6E6"/>
<path d="M512.162 254.315H511.014C510.842 254.315 510.703 254.469 510.703 254.658V255.145C510.703 255.335 510.842 255.488 511.014 255.488H512.162C512.333 255.488 512.472 255.335 512.472 255.145V254.658C512.472 254.469 512.333 254.315 512.162 254.315Z" fill="#E6E6E6"/>
<path d="M515.7 254.315H514.551C514.38 254.315 514.241 254.469 514.241 254.658V255.145C514.241 255.335 514.38 255.488 514.551 255.488H515.7C515.871 255.488 516.01 255.335 516.01 255.145V254.658C516.01 254.469 515.871 254.315 515.7 254.315Z" fill="#E6E6E6"/>
<path d="M519.237 254.315H518.089C517.918 254.315 517.779 254.469 517.779 254.658V255.145C517.779 255.335 517.918 255.488 518.089 255.488H519.237C519.409 255.488 519.548 255.335 519.548 255.145V254.658C519.548 254.469 519.409 254.315 519.237 254.315Z" fill="#E6E6E6"/>
<path d="M522.775 254.315H521.627C521.455 254.315 521.316 254.469 521.316 254.658V255.145C521.316 255.335 521.455 255.488 521.627 255.488H522.775C522.946 255.488 523.085 255.335 523.085 255.145V254.658C523.085 254.469 522.946 254.315 522.775 254.315Z" fill="#E6E6E6"/>
<path d="M499.072 256.661H485.542C485.371 256.661 485.232 256.815 485.232 257.004V257.491C485.232 257.681 485.371 257.834 485.542 257.834H499.072C499.244 257.834 499.383 257.681 499.383 257.491V257.004C499.383 256.815 499.244 256.661 499.072 256.661Z" fill="#E6E6E6"/>
<path d="M538.376 162.178H448.05C447.957 162.176 447.867 162.133 447.802 162.058C447.736 161.984 447.699 161.885 447.699 161.781C447.699 161.677 447.736 161.577 447.802 161.503C447.867 161.429 447.957 161.386 448.05 161.384H538.376C538.47 161.386 538.56 161.429 538.625 161.503C538.691 161.577 538.728 161.677 538.728 161.781C538.728 161.885 538.691 161.984 538.625 162.058C538.56 162.133 538.47 162.176 538.376 162.178Z" fill="#CACACA"/>
<path d="M454.199 159.357C455.362 159.357 456.304 158.292 456.304 156.978C456.304 155.664 455.362 154.599 454.199 154.599C453.036 154.599 452.094 155.664 452.094 156.978C452.094 158.292 453.036 159.357 454.199 159.357Z" fill="#CCCCCC"/>
<path d="M461.471 159.357C462.634 159.357 463.576 158.292 463.576 156.978C463.576 155.664 462.634 154.599 461.471 154.599C460.309 154.599 459.366 155.664 459.366 156.978C459.366 158.292 460.309 159.357 461.471 159.357Z" fill="#CCCCCC"/>
<path d="M468.743 159.357C469.906 159.357 470.848 158.292 470.848 156.978C470.848 155.664 469.906 154.599 468.743 154.599C467.581 154.599 466.638 155.664 466.638 156.978C466.638 158.292 467.581 159.357 468.743 159.357Z" fill="#CCCCCC"/>
<path d="M533.998 155.189H528.832C528.73 155.191 528.632 155.237 528.561 155.318C528.489 155.399 528.449 155.508 528.449 155.621C528.449 155.734 528.489 155.843 528.561 155.924C528.632 156.005 528.73 156.051 528.832 156.053H533.998C534.1 156.051 534.198 156.005 534.27 155.924C534.341 155.843 534.381 155.734 534.381 155.621C534.381 155.508 534.341 155.399 534.27 155.318C534.198 155.237 534.1 155.191 533.998 155.189Z" fill="#CCCCCC"/>
<path d="M533.998 156.812H528.832C528.73 156.814 528.632 156.86 528.561 156.941C528.489 157.022 528.449 157.131 528.449 157.244C528.449 157.357 528.489 157.466 528.561 157.547C528.632 157.627 528.73 157.674 528.832 157.676H533.998C534.1 157.674 534.198 157.627 534.27 157.547C534.341 157.466 534.381 157.357 534.381 157.244C534.381 157.131 534.341 157.022 534.27 156.941C534.198 156.86 534.1 156.814 533.998 156.812Z" fill="#CCCCCC"/>
<path d="M533.998 158.432H528.832C528.73 158.435 528.632 158.481 528.561 158.562C528.489 158.643 528.449 158.752 528.449 158.865C528.449 158.978 528.489 159.087 528.561 159.167C528.632 159.248 528.73 159.295 528.832 159.297H533.998C534.1 159.295 534.198 159.248 534.27 159.167C534.341 159.087 534.381 158.978 534.381 158.865C534.381 158.752 534.341 158.643 534.27 158.562C534.198 158.481 534.1 158.435 533.998 158.432Z" fill="#CCCCCC"/>
<path d="M500.506 183.81H489.22C488.372 183.81 487.685 184.569 487.685 185.506C487.685 186.443 488.372 187.203 489.22 187.203H500.506C501.354 187.203 502.041 186.443 502.041 185.506C502.041 184.569 501.354 183.81 500.506 183.81Z" fill="#6C63FF"/>
<path d="M507.798 190.596H481.928C481.081 190.596 480.393 191.356 480.393 192.293C480.393 193.23 481.081 193.99 481.928 193.99H507.798C508.645 193.99 509.333 193.23 509.333 192.293C509.333 191.356 508.645 190.596 507.798 190.596Z" fill="#E6E6E6"/>
<path d="M507.798 197.383H481.928C481.081 197.383 480.393 198.143 480.393 199.08C480.393 200.017 481.081 200.777 481.928 200.777H507.798C508.645 200.777 509.333 200.017 509.333 199.08C509.333 198.143 508.645 197.383 507.798 197.383Z" fill="#E6E6E6"/>
<path d="M333.513 303.117L328.31 300.366L335.457 276.326L343.137 280.386L333.513 303.117Z" fill="#FFB6B6"/>
<path d="M368.396 299.241C368.017 299.503 367.639 299.761 367.257 300.018C366.496 300.534 365.728 301.041 364.96 301.539C364.574 301.788 364.184 302.038 363.798 302.283V302.295L363.775 302.3L363.768 302.304L363.179 302.464L362.334 299.997L361.944 298.861L361.394 297.251L360.385 294.307L355.073 278.803L363.332 276.551L363.641 277.949H363.645L363.798 278.642L366.684 291.578L367.272 294.222L367.291 294.302L367.647 295.882L367.953 297.251L368.293 298.781L368.396 299.241Z" fill="#FFB6B6"/>
<path d="M417.665 244.794C417.141 245.724 416.606 246.649 416.067 247.565C415.066 249.272 414.038 250.954 412.983 252.61C412.983 252.614 412.979 252.614 412.975 252.618C412.36 253.248 411.68 253.797 410.95 254.253C410.919 254.278 410.885 254.295 410.854 254.316C410.316 254.645 409.744 254.899 409.149 255.073C408.935 255.132 408.718 255.191 408.504 255.25C407.732 255.453 406.967 255.626 406.207 255.778C404.854 256.044 403.516 256.234 402.186 256.353C402.079 256.365 401.972 256.374 401.865 256.382C396.396 256.826 391.072 256.112 385.515 254.942C382.771 254.367 379.969 253.678 377.069 252.964C376.121 252.728 375.169 252.496 374.206 252.263C374.133 252.246 374.057 252.225 373.98 252.208C372.605 251.875 371.206 251.545 369.773 251.22C367.969 250.81 366.107 250.413 364.173 250.037L364.311 253.049C364.426 255.366 364.861 257.65 365.603 259.821C366.428 262.491 367.082 264.603 365.702 269.001L365.037 271.13C365.382 272.187 365.5 273.319 365.383 274.435C365.266 275.551 364.916 276.622 364.361 277.564L364.227 277.788L369.773 293.296L370.132 294.302H367.292L363.799 294.306H357.879L349.337 275.363L348.928 274.459V274.412L349.811 238.01C349.822 237.688 349.845 237.363 349.883 237.042C350.039 235.583 350.456 234.172 351.111 232.892C351.765 231.613 352.643 230.49 353.694 229.59C354.701 228.72 355.854 228.08 357.087 227.707C358.32 227.335 359.608 227.236 360.875 227.419L363.799 227.837L369.773 228.69L373.98 229.294L374.064 229.307L386.474 231.081L387.365 227.068L387.529 227L392.754 224.884L410.823 217.563L410.869 217.546L412.058 217.064L412.199 217.318C412.241 217.394 412.283 217.47 412.322 217.546C413.496 219.874 414.453 222.328 415.176 224.871C416.393 229.025 417.395 233.252 418.177 237.532C418.211 237.718 418.242 237.887 418.268 238.039L418.28 238.086C418.291 238.157 418.299 238.204 418.303 238.217C418.661 240.432 418.44 242.714 417.665 244.794Z" fill="#2F2E41"/>
<path d="M418.427 231.379C418.37 231.108 418.297 230.834 418.221 230.568C417.614 228.552 416.907 226.575 416.104 224.645C415.202 222.448 414.12 220.095 412.832 217.548C412.209 216.314 411.539 215.031 410.822 213.699C410.462 213.031 410.089 212.351 409.702 211.658C409.687 211.627 409.67 211.596 409.652 211.566L409.541 211.363L391.663 214.007L385.005 214.992L384.607 218.659L384.512 219.567C384.508 219.567 384.508 219.567 384.512 219.571L384.244 222.047V222.051L383.889 225.321L383.858 225.316L373.979 223.901L363.797 222.444L358.328 221.662C357.061 221.48 355.773 221.578 354.54 221.95C353.307 222.323 352.154 222.963 351.147 223.834C350.096 224.734 349.218 225.857 348.564 227.136C347.91 228.416 347.492 229.826 347.336 231.286C347.302 231.582 347.279 231.886 347.268 232.186L342.108 245.7C339.021 253.782 337.054 262.333 336.276 271.064L332.492 284.435L333.031 284.49L341.049 285.313L343.167 285.533L347.829 278.009C348.361 277.152 348.865 276.269 349.335 275.365C350.109 273.888 350.797 272.359 351.395 270.785L361.481 244.255C362.261 244.403 363.033 244.544 363.797 244.678C367.333 245.311 370.726 245.828 373.979 246.228C384.554 247.533 393.711 247.635 401.863 246.528C404.153 246.22 406.365 245.814 408.502 245.311C409.285 245.13 410.059 244.934 410.822 244.724C411.001 244.678 411.177 244.631 411.353 244.58C412.933 244.13 414.385 243.249 415.576 242.018C416.768 240.787 417.662 239.245 418.175 237.534C418.788 235.551 418.875 233.415 418.427 231.379Z" fill="#2F2E41"/>
<path d="M335.175 299.191L329.546 296.209L328.663 295.74L327.252 299.567L317.407 301.962C316.92 302.08 316.481 302.367 316.152 302.781C315.823 303.195 315.623 303.715 315.58 304.263C315.537 304.812 315.655 305.362 315.915 305.832C316.175 306.302 316.564 306.667 317.025 306.876L326.645 311.214L329.698 308.177L328.949 312.253L332.573 313.888L336.543 299.918L335.175 299.191Z" fill="#2F2E41"/>
<path d="M369.772 293.297L370.132 294.302H369.772V293.297Z" fill="#2F2E41"/>
<path d="M367.812 294.516L361.913 296.776L360.987 297.129L362.422 300.946L356.951 310.305C356.68 310.767 356.55 311.313 356.58 311.863C356.61 312.413 356.798 312.938 357.117 313.361C357.436 313.784 357.869 314.084 358.353 314.215C358.837 314.347 359.346 314.304 359.806 314.093L369.404 309.694L369.64 305.161L371.703 308.64L375.318 306.984L369.247 293.969L367.812 294.516Z" fill="#2F2E41"/>
<path d="M332.009 154.738C332.289 155.34 332.685 155.867 333.169 156.282C333.652 156.697 334.213 156.99 334.81 157.14C335.408 157.289 336.027 157.292 336.626 157.149C337.224 157.005 337.787 156.718 338.274 156.308L350.678 165.41L350.702 156.858L338.919 149.526C338.242 148.666 337.303 148.112 336.28 147.967C335.257 147.822 334.222 148.096 333.37 148.739C332.518 149.381 331.909 150.347 331.658 151.453C331.407 152.558 331.532 153.727 332.009 154.738Z" fill="#FFB6B6"/>
<path d="M341.276 158.691L347.063 151.413L370.627 166.876L401.864 163.714C403.408 163.558 404.964 163.779 406.422 164.362C407.88 164.946 409.204 165.877 410.3 167.089C411.396 168.302 412.237 169.766 412.763 171.378C413.289 172.99 413.488 174.71 413.345 176.417C413.084 179.499 411.727 182.341 409.573 184.318C407.419 186.296 404.643 187.249 401.854 186.967L366.673 183.367L341.276 158.691Z" fill="#CCCCCC"/>
<path d="M413.776 158.803L413.722 158.728C409.327 158.248 404.902 159.188 400.981 161.434C397.06 163.679 393.813 167.134 391.633 171.378L388.982 176.54C380.408 188.127 386.639 196.118 387.012 197.307L384.035 212.476L384.702 217.553L385.035 219.061L419.011 238.684C420.945 228.411 419.074 219.657 412.027 212.969L418.846 189.519C420.357 184.334 420.686 178.816 419.801 173.457C418.917 168.098 416.847 163.064 413.776 158.803Z" fill="#CCCCCC"/>
<path d="M386.762 272.728H375.864C375.264 272.727 374.685 272.488 374.233 272.053C373.78 271.618 373.485 271.018 373.4 270.362C372.728 264.889 372.728 259.34 373.4 253.866C373.484 253.218 373.773 252.624 374.217 252.191C374.661 251.757 375.23 251.513 375.822 251.501C379.251 249.802 382.943 249.802 386.799 251.501C387.158 251.506 387.512 251.598 387.835 251.771C388.159 251.943 388.444 252.192 388.672 252.499C388.909 252.819 389.078 253.193 389.168 253.594C389.258 253.995 389.266 254.414 389.191 254.819C388.316 259.634 388.316 264.594 389.191 269.41C389.266 269.815 389.258 270.233 389.168 270.634C389.078 271.035 388.909 271.41 388.672 271.729C388.44 272.042 388.149 272.294 387.818 272.467C387.488 272.639 387.127 272.728 386.762 272.728Z" fill="#6C63FF"/>
<path d="M385.62 257.79H376.448C376.372 257.791 376.297 257.775 376.227 257.743C376.157 257.712 376.093 257.665 376.039 257.606C375.985 257.548 375.943 257.477 375.913 257.4C375.884 257.323 375.869 257.24 375.869 257.156C375.869 257.073 375.884 256.99 375.913 256.913C375.943 256.835 375.985 256.765 376.039 256.706C376.093 256.647 376.157 256.601 376.227 256.569C376.297 256.538 376.372 256.522 376.448 256.523H385.62C385.696 256.522 385.771 256.538 385.841 256.569C385.911 256.601 385.975 256.647 386.029 256.706C386.083 256.765 386.125 256.835 386.155 256.913C386.184 256.99 386.199 257.073 386.199 257.156C386.199 257.24 386.184 257.323 386.155 257.4C386.125 257.477 386.083 257.548 386.029 257.606C385.975 257.665 385.911 257.712 385.841 257.743C385.771 257.775 385.696 257.791 385.62 257.79Z" fill="white"/>
<path d="M385.62 262.859H376.448C376.372 262.86 376.297 262.844 376.227 262.813C376.157 262.781 376.093 262.735 376.039 262.676C375.985 262.617 375.943 262.547 375.913 262.47C375.884 262.392 375.869 262.309 375.869 262.226C375.869 262.142 375.884 262.059 375.913 261.982C375.943 261.905 375.985 261.835 376.039 261.776C376.093 261.717 376.157 261.67 376.227 261.639C376.297 261.607 376.372 261.591 376.448 261.592H385.62C385.696 261.591 385.771 261.607 385.841 261.639C385.911 261.67 385.975 261.717 386.029 261.776C386.083 261.835 386.125 261.905 386.155 261.982C386.184 262.059 386.199 262.142 386.199 262.226C386.199 262.309 386.184 262.392 386.155 262.47C386.125 262.547 386.083 262.617 386.029 262.676C385.975 262.735 385.911 262.781 385.841 262.813C385.771 262.844 385.696 262.86 385.62 262.859Z" fill="white"/>
<path d="M385.62 267.929H376.448C376.372 267.93 376.297 267.914 376.227 267.882C376.156 267.851 376.093 267.804 376.039 267.745C375.985 267.687 375.942 267.616 375.913 267.539C375.884 267.462 375.869 267.379 375.869 267.295C375.869 267.211 375.884 267.129 375.913 267.051C375.942 266.974 375.985 266.904 376.039 266.845C376.093 266.786 376.156 266.74 376.227 266.708C376.297 266.677 376.372 266.661 376.448 266.662H385.62C385.696 266.661 385.771 266.677 385.841 266.708C385.911 266.74 385.975 266.786 386.029 266.845C386.083 266.904 386.126 266.974 386.155 267.051C386.184 267.129 386.199 267.211 386.199 267.295C386.199 267.379 386.184 267.462 386.155 267.539C386.126 267.616 386.083 267.687 386.029 267.745C385.975 267.804 385.911 267.851 385.841 267.882C385.771 267.914 385.696 267.93 385.62 267.929Z" fill="white"/>
<path d="M334.007 158.913H323.109C322.51 158.913 321.931 158.673 321.478 158.239C321.026 157.804 320.73 157.204 320.646 156.547C319.973 151.074 319.973 145.525 320.646 140.052C320.729 139.404 321.019 138.809 321.462 138.376C321.906 137.943 322.475 137.698 323.067 137.687C326.496 135.988 330.189 135.988 334.045 137.686C334.404 137.692 334.757 137.784 335.081 137.956C335.404 138.129 335.69 138.377 335.917 138.685C336.154 139.004 336.324 139.378 336.414 139.78C336.504 140.181 336.511 140.599 336.437 141.004C335.561 145.82 335.561 150.78 336.437 155.595C336.511 156 336.504 156.418 336.414 156.82C336.324 157.221 336.154 157.595 335.917 157.915C335.686 158.227 335.394 158.479 335.064 158.652C334.734 158.825 334.373 158.914 334.007 158.913Z" fill="#6C63FF"/>
<path d="M332.866 143.976H323.693C323.618 143.976 323.543 143.96 323.472 143.929C323.402 143.897 323.338 143.851 323.285 143.792C323.231 143.733 323.188 143.663 323.159 143.586C323.13 143.508 323.115 143.426 323.115 143.342C323.115 143.258 323.13 143.175 323.159 143.098C323.188 143.021 323.231 142.951 323.285 142.892C323.338 142.833 323.402 142.786 323.472 142.755C323.543 142.723 323.618 142.707 323.693 142.708H332.866C332.942 142.707 333.017 142.723 333.087 142.755C333.157 142.786 333.221 142.833 333.274 142.892C333.328 142.951 333.371 143.021 333.4 143.098C333.429 143.175 333.444 143.258 333.444 143.342C333.444 143.426 333.429 143.508 333.4 143.586C333.371 143.663 333.328 143.733 333.274 143.792C333.221 143.851 333.157 143.897 333.087 143.929C333.017 143.96 332.942 143.976 332.866 143.976Z" fill="white"/>
<path d="M332.866 149.045H323.693C323.618 149.046 323.543 149.03 323.472 148.998C323.402 148.967 323.338 148.92 323.285 148.861C323.231 148.802 323.188 148.732 323.159 148.655C323.13 148.578 323.115 148.495 323.115 148.411C323.115 148.328 323.13 148.245 323.159 148.168C323.188 148.09 323.231 148.02 323.285 147.961C323.338 147.902 323.402 147.856 323.472 147.824C323.543 147.793 323.618 147.777 323.693 147.778H332.866C332.942 147.777 333.017 147.793 333.087 147.824C333.157 147.856 333.221 147.902 333.274 147.961C333.328 148.02 333.371 148.09 333.4 148.168C333.429 148.245 333.444 148.328 333.444 148.411C333.444 148.495 333.429 148.578 333.4 148.655C333.371 148.732 333.328 148.802 333.274 148.861C333.221 148.92 333.157 148.967 333.087 148.998C333.017 149.03 332.942 149.046 332.866 149.045Z" fill="white"/>
<path d="M332.866 154.114H323.693C323.618 154.115 323.542 154.099 323.472 154.068C323.402 154.036 323.338 153.99 323.284 153.931C323.231 153.872 323.188 153.802 323.159 153.725C323.13 153.647 323.115 153.564 323.115 153.481C323.115 153.397 323.13 153.314 323.159 153.237C323.188 153.16 323.231 153.089 323.284 153.031C323.338 152.972 323.402 152.925 323.472 152.894C323.542 152.862 323.618 152.846 323.693 152.847H332.866C332.942 152.846 333.017 152.862 333.087 152.894C333.157 152.925 333.221 152.972 333.275 153.031C333.329 153.089 333.371 153.16 333.4 153.237C333.43 153.314 333.445 153.397 333.445 153.481C333.445 153.564 333.43 153.647 333.4 153.725C333.371 153.802 333.329 153.872 333.275 153.931C333.221 153.99 333.157 154.036 333.087 154.068C333.017 154.099 332.942 154.115 332.866 154.114Z" fill="white"/>
<path d="M142.693 189.826H131.795C131.196 189.825 130.617 189.586 130.164 189.151C129.712 188.716 129.416 188.116 129.332 187.46C128.659 181.987 128.659 176.438 129.332 170.964C129.415 170.316 129.705 169.722 130.148 169.289C130.592 168.855 131.161 168.611 131.753 168.599C135.182 166.9 138.875 166.9 142.731 168.599C143.09 168.604 143.444 168.696 143.767 168.869C144.09 169.041 144.376 169.29 144.603 169.597C144.84 169.917 145.01 170.291 145.1 170.692C145.19 171.093 145.197 171.512 145.123 171.917C144.247 176.732 144.247 181.692 145.123 186.508C145.197 186.913 145.19 187.331 145.1 187.732C145.01 188.133 144.84 188.508 144.603 188.827C144.372 189.14 144.08 189.392 143.75 189.565C143.42 189.737 143.059 189.826 142.693 189.826Z" fill="#6C63FF"/>
<path d="M141.552 174.888H132.379C132.304 174.889 132.229 174.873 132.158 174.841C132.088 174.81 132.025 174.763 131.971 174.704C131.917 174.646 131.874 174.575 131.845 174.498C131.816 174.421 131.801 174.338 131.801 174.254C131.801 174.171 131.816 174.088 131.845 174.011C131.874 173.933 131.917 173.863 131.971 173.804C132.025 173.745 132.088 173.699 132.158 173.667C132.229 173.636 132.304 173.62 132.379 173.621H141.552C141.628 173.62 141.703 173.636 141.773 173.667C141.843 173.699 141.907 173.745 141.961 173.804C142.014 173.863 142.057 173.933 142.086 174.011C142.115 174.088 142.13 174.171 142.13 174.254C142.13 174.338 142.115 174.421 142.086 174.498C142.057 174.575 142.014 174.646 141.961 174.704C141.907 174.763 141.843 174.81 141.773 174.841C141.703 174.873 141.628 174.889 141.552 174.888Z" fill="white"/>
<path d="M141.552 179.958H132.379C132.304 179.958 132.229 179.942 132.158 179.911C132.088 179.879 132.025 179.833 131.971 179.774C131.917 179.715 131.874 179.645 131.845 179.568C131.816 179.49 131.801 179.408 131.801 179.324C131.801 179.24 131.816 179.157 131.845 179.08C131.874 179.003 131.917 178.933 131.971 178.874C132.025 178.815 132.088 178.768 132.158 178.737C132.229 178.705 132.304 178.689 132.379 178.69H141.552C141.628 178.689 141.703 178.705 141.773 178.737C141.843 178.768 141.907 178.815 141.961 178.874C142.014 178.933 142.057 179.003 142.086 179.08C142.115 179.157 142.13 179.24 142.13 179.324C142.13 179.408 142.115 179.49 142.086 179.568C142.057 179.645 142.014 179.715 141.961 179.774C141.907 179.833 141.843 179.879 141.773 179.911C141.703 179.942 141.628 179.958 141.552 179.958Z" fill="white"/>
<path d="M141.552 185.027H132.379C132.304 185.028 132.228 185.012 132.158 184.981C132.088 184.949 132.024 184.902 131.97 184.844C131.917 184.785 131.874 184.715 131.845 184.637C131.816 184.56 131.801 184.477 131.801 184.393C131.801 184.31 131.816 184.227 131.845 184.149C131.874 184.072 131.917 184.002 131.97 183.943C132.024 183.884 132.088 183.838 132.158 183.806C132.228 183.775 132.304 183.759 132.379 183.76H141.552C141.628 183.759 141.703 183.775 141.773 183.806C141.843 183.838 141.907 183.884 141.961 183.943C142.015 184.002 142.057 184.072 142.086 184.149C142.116 184.227 142.131 184.31 142.131 184.393C142.131 184.477 142.116 184.56 142.086 184.637C142.057 184.715 142.015 184.785 141.961 184.844C141.907 184.902 141.843 184.949 141.773 184.981C141.703 185.012 141.628 185.028 141.552 185.027Z" fill="white"/>
<path d="M389.955 257.329C390.482 256.985 390.935 256.517 391.281 255.958C391.627 255.399 391.858 254.764 391.957 254.096C392.057 253.428 392.023 252.744 391.858 252.092C391.693 251.44 391.4 250.836 391.001 250.323L398.485 236.096L390.76 236.577L384.837 250.013C384.102 250.812 383.656 251.881 383.586 253.018C383.516 254.156 383.826 255.282 384.456 256.183C385.087 257.085 385.995 257.7 387.009 257.911C388.022 258.122 389.07 257.915 389.955 257.329Z" fill="#FFB6B6"/>
<path d="M392.975 246.869L386.059 240.915L398.625 213.997L393.917 179.718C393.684 178.023 393.792 176.293 394.232 174.65C394.672 173.007 395.434 171.491 396.464 170.209C397.494 168.928 398.767 167.914 400.191 167.237C401.616 166.561 403.158 166.24 404.707 166.296C407.506 166.401 410.153 167.73 412.067 169.989C413.981 172.249 415.006 175.256 414.917 178.35L413.753 217.381L392.975 246.869Z" fill="#CCCCCC"/>
<path d="M58.7196 239.515C59.1552 239.031 59.4895 238.447 59.6989 237.805C59.9084 237.163 59.9879 236.478 59.9319 235.798C59.8759 235.118 59.6857 234.46 59.3748 233.87C59.0638 233.281 58.6397 232.773 58.1322 232.384L64.858 195.458L57.4306 198.094L52.0468 233.811C51.5122 234.797 51.3232 235.965 51.5157 237.094C51.7082 238.224 52.2688 239.236 53.0913 239.939C53.9138 240.642 54.941 240.987 55.9784 240.909C57.0157 240.831 57.9911 240.335 58.7196 239.515Z" fill="#9E616A"/>
<path d="M68.6507 161.388L64.0423 157.543C64.0423 157.543 59.977 157.224 59.257 165.328C58.537 173.432 57.0586 189.225 57.0586 189.225L50.0068 225.327L59.7684 227.695L67.3213 188.734L71.8523 177.165L68.6507 161.388Z" fill="#CCCCCC"/>
<path d="M61.0533 220.339L87.0218 219.86L89.186 200.245H61.0533V220.339Z" fill="#9E616A"/>
<path d="M84.4247 341.041H90.4197L93.2716 315.481L84.4235 315.482L84.4247 341.041Z" fill="#9E616A"/>
<path d="M46.8674 341.655L52.8624 341.608L55.5522 316.027L47.7554 318.004L46.8674 341.655Z" fill="#9E616A"/>
<path d="M65.6175 183.354L64.2593 187.257L64.5307 191.161L91.1157 201.339L89.7968 184.254L86.8083 180.35L65.6175 183.354Z" fill="#FFB6B6"/>
<path d="M77.0227 148.223C82.2667 148.223 86.5178 143.524 86.5178 137.727C86.5178 131.931 82.2667 127.232 77.0227 127.232C71.7787 127.232 67.5276 131.931 67.5276 137.727C67.5276 143.524 71.7787 148.223 77.0227 148.223Z" fill="#9E616A"/>
<path d="M82.9379 337.772L92.4147 337.147V341.635L101.425 348.513C101.87 348.853 102.205 349.341 102.381 349.906C102.557 350.471 102.566 351.084 102.405 351.654C102.244 352.225 101.922 352.724 101.486 353.078C101.051 353.432 100.524 353.624 99.9834 353.623H88.7009L86.7562 349.184L85.9969 353.623H81.7429L82.9379 337.772Z" fill="#2F2E41"/>
<path d="M44.8167 338.401L54.2893 337.703L54.3177 342.191L63.3709 348.999C63.8181 349.335 64.1564 349.821 64.3363 350.384C64.5162 350.948 64.5284 351.561 64.3711 352.133C64.2138 352.705 63.8952 353.206 63.4618 353.564C63.0284 353.921 62.503 354.116 61.9622 354.12L50.68 354.208L48.7072 349.784L47.976 354.229L43.7222 354.262L44.8167 338.401Z" fill="#2F2E41"/>
<path d="M45.0021 322.058L49.3674 283.489L54.5611 242.824C50.7576 235.016 59.322 210.771 59.322 210.771L60.5309 210.835L87.8932 216.541L87.8873 216.512C93.4838 233.384 95.338 241.719 95.0313 259.687L93.9288 324.277H94.2747C94.8486 324.277 95.399 324.529 95.8049 324.977C96.2107 325.426 96.4387 326.034 96.4387 326.669C96.4387 327.303 96.2107 327.912 95.8049 328.36C95.399 328.809 94.8486 329.061 94.2747 329.061H83.4545C83.17 329.061 82.8881 329 82.6252 328.88C82.3622 328.76 82.1232 328.584 81.9218 328.362C81.7205 328.14 81.5608 327.876 81.4518 327.585C81.3428 327.295 81.2867 326.983 81.2867 326.669C81.2867 326.354 81.3428 326.043 81.4518 325.753C81.5608 325.462 81.7205 325.198 81.9218 324.976C82.1232 324.754 82.3622 324.578 82.6252 324.458C82.8881 324.338 83.17 324.276 83.4545 324.277H83.7334L73.8018 247.37L65.3813 279.661L55.8595 321.761C59.322 320.804 58.7844 323.021 58.7844 324.277C58.7844 324.911 58.5564 325.52 58.1505 325.968C57.7447 326.417 57.1943 326.669 56.6203 326.669H45.8001C45.2969 326.669 44.8092 326.476 44.4212 326.122C44.0332 325.767 43.7692 325.275 43.6746 324.728C43.5801 324.182 43.6609 323.616 43.9032 323.129C44.1456 322.641 44.5342 322.262 45.0021 322.058Z" fill="#2F2E41"/>
<path d="M57.1915 212.027L58.0571 202.458C58.147 202.068 58.3464 201.719 58.6267 201.462C58.907 201.204 59.2538 201.052 59.6174 201.026C59.9781 196.468 61.4955 176.804 61.5862 175.947L61.5897 175.911L62.2798 159.617C62.3048 159.025 62.5262 158.465 62.9017 158.042C63.2771 157.619 63.7803 157.364 64.3151 157.325L67.9596 157.062C68.0096 157.06 68.057 157.037 68.0918 156.997C68.1266 156.957 68.146 156.904 68.146 156.849C68.146 156.404 68.2253 155.964 68.3793 155.553C68.5333 155.142 68.7591 154.768 69.0437 154.454C69.3283 154.139 69.6661 153.889 70.038 153.719C70.4098 153.549 70.8084 153.461 71.2109 153.461H82.0013C82.7002 153.462 83.375 153.744 83.899 154.255C84.423 154.766 84.7602 155.471 84.8473 156.238C84.8521 156.291 84.8747 156.339 84.9106 156.375C84.9466 156.41 84.9932 156.429 85.0412 156.427H85.0425C86.2685 156.399 87.4631 156.858 88.4093 157.721C89.3555 158.583 89.9907 159.792 90.1996 161.127C91.6747 170.615 94.6311 192.147 93.1694 204.118C92.6606 208.285 93.7575 204.985 93.95 208.472C93.9691 208.809 93.9278 209.146 93.8286 209.466C93.7294 209.785 93.5742 210.079 93.3719 210.332C93.7861 210.499 94.1243 210.839 94.3129 211.279C94.5016 211.72 94.5255 212.225 94.3795 212.684L94.5692 212.632C94.5136 212.876 94.4151 213.105 94.2794 213.307C94.1437 213.509 93.9734 213.679 93.7782 213.807C93.5831 213.936 93.3668 214.021 93.1419 214.058C92.9169 214.094 92.6877 214.082 92.4672 214.02L64.2369 218.248C63.3097 217.99 56.9578 213.051 57.1915 212.027Z" fill="#CCCCCC"/>
<path d="M132.627 173.124C132.45 173.779 132.145 174.382 131.735 174.892C131.324 175.402 130.818 175.806 130.25 176.076C129.683 176.346 129.069 176.475 128.452 176.455C127.835 176.434 127.229 176.264 126.678 175.957L115.764 186.966L114.315 178.493L124.908 169.365C125.436 168.375 126.275 167.634 127.264 167.282C128.254 166.93 129.326 166.992 130.278 167.455C131.229 167.918 131.994 168.751 132.427 169.796C132.86 170.841 132.931 172.025 132.627 173.124Z" fill="#9E616A"/>
<path d="M94.6408 164.709C94.6408 164.709 90.8353 155.203 86.0289 157.093C81.2224 158.982 83.7041 168.206 83.7041 168.206L101.762 198.283C101.762 198.283 127.808 179.815 124.641 179.684C121.474 179.554 120.526 173.186 120.526 173.186L106.76 180.789L106.295 178.083L105.548 178.908L103.622 177.232L94.6408 164.709Z" fill="#CCCCCC"/>
<path d="M405.943 154.266C413.265 154.266 419.2 147.706 419.2 139.613C419.2 131.521 413.265 124.96 405.943 124.96C398.622 124.96 392.687 131.521 392.687 139.613C392.687 147.706 398.622 154.266 405.943 154.266Z" fill="#FFB6B6"/>
<path d="M448.488 161.175C446.958 163.571 444.725 165.309 442.169 166.093C441.145 166.43 440.089 166.628 439.022 166.684C438.891 165.351 438.575 164.048 438.087 162.821C438.137 164.127 437.973 165.433 437.602 166.675C436.001 166.574 434.435 166.111 433.003 165.313C431.596 164.53 430.374 163.396 429.432 162.001C428.491 160.605 427.857 158.986 427.58 157.273C427.019 153.265 428.663 149.329 429.257 145.327C429.854 141.325 428.734 136.257 425.19 135.205C422.491 134.404 422.793 134.75 420.549 136.591C422.883 140.406 414.263 154.384 410.735 153.165C408.74 152.476 407.463 150.453 407.052 150.453C404.279 155.733 409.5 164.629 404.238 166.476L404.672 165.997C407.848 161.678 401.209 152.539 404.386 148.22C405.272 147.012 406.215 145.58 405.953 144.053C405.705 142.6 403.619 141.832 403.009 143.025C404.107 140.244 402.485 136.531 399.8 135.817C397.415 135.181 397.458 135.964 395.065 136.305C394.908 135.161 394.616 134.046 394.195 132.987C394.239 134.128 394.118 135.269 393.838 136.368C392.992 136.35 392.176 136.024 391.515 135.44C389.563 133.701 389.958 130.049 391.7 128.057C393.445 126.065 396.038 125.348 398.51 124.884C399.229 119.351 413.04 118.774 414.871 124.302C415.65 120.174 420.326 118.031 423.96 119.312C427.594 120.593 430.116 124.345 431.444 128.298C432.771 132.249 433.142 136.501 433.96 140.617C434.778 144.734 436.16 148.925 439.006 151.731C441.852 154.533 446.49 155.462 449.489 152.858C449.925 154.234 450.061 155.704 449.887 157.149C449.713 158.594 449.234 159.973 448.488 161.175Z" fill="#2F2E41"/>
<path d="M572.858 194.614L571.002 204.906C570.862 205.693 570.716 206.494 570.557 207.288C569.006 206.933 567.398 207.032 565.892 207.576C567.087 209.463 568.157 211.442 569.095 213.499C567.926 217.482 566.21 221.164 563.337 223.826C561.418 225.565 559.127 226.728 556.683 227.203C554.239 227.678 551.726 227.449 549.386 226.538L549.468 226.131C546.379 219.506 548.057 211.152 551.896 205.033C553.854 202.014 556.174 199.303 558.793 196.975C561.386 194.586 564.189 192.443 566.966 190.328C567.59 189.854 568.328 189.596 569.085 189.588C569.842 189.579 570.584 189.82 571.216 190.28C571.849 190.74 572.343 191.398 572.635 192.17C572.928 192.942 573.005 193.793 572.858 194.614Z" fill="#E4E4E4"/>
<path d="M550.047 251.303C549.266 245.013 548.462 238.643 549.01 232.286C549.497 226.64 551.055 221.126 554.228 216.604C555.912 214.208 557.961 212.156 560.283 210.539C560.889 210.117 561.445 211.177 560.843 211.598C556.825 214.404 553.718 218.549 551.968 223.434C550.036 228.866 549.726 234.788 550.061 240.558C550.263 244.047 550.689 247.513 551.12 250.977C551.154 251.133 551.133 251.299 551.061 251.439C550.989 251.579 550.871 251.684 550.732 251.731C550.59 251.774 550.439 251.752 550.311 251.672C550.183 251.592 550.089 251.459 550.049 251.303L550.047 251.303Z" fill="#F2F2F2"/>
<path d="M594.243 354.784L0.756801 355C0.556467 354.999 0.364541 354.911 0.223088 354.754C0.0816354 354.597 0.00219727 354.385 0.00219727 354.164C0.00219727 353.942 0.0816354 353.73 0.223088 353.573C0.364541 353.416 0.556467 353.328 0.756801 353.327L594.243 353.111C594.444 353.112 594.636 353.2 594.777 353.357C594.918 353.514 594.998 353.726 594.998 353.948C594.998 354.169 594.918 354.381 594.777 354.538C594.636 354.695 594.444 354.783 594.243 354.784Z" fill="#CACACA"/>
<path d="M65.8475 131.301C64.3912 132.073 62.7611 130.911 61.5039 129.76L61.9536 130.189C59.7316 132.579 58.6927 136.017 58.1851 139.401C57.6769 142.782 57.6203 146.239 56.9805 149.596C56.3402 152.949 55.0121 156.319 52.5312 158.372C49.2077 161.123 44.6239 160.947 40.5452 160.103C40.4909 160.091 40.4403 160.082 40.3859 160.07C41.4833 156.567 41.9294 152.856 41.6975 149.158C40.6042 152.864 38.7431 156.236 36.2623 159.006C33.5581 158.183 30.9186 157.12 28.3696 155.827C26.7204 154.987 24.9445 153.84 24.4867 151.897C24.0278 149.969 25.0935 147.947 26.5184 146.729C27.9433 145.512 29.6921 144.877 31.3154 144.009C32.9361 143.146 34.5398 141.915 35.1887 140.057C36.6853 135.783 32.4218 130.878 34.0834 126.677C34.9028 124.61 36.9097 123.486 38.7961 122.62C41.6758 121.301 44.6329 120.198 47.6472 119.32C50.2933 118.548 53.0562 117.949 55.7518 118.455C58.4474 118.96 61.0882 120.773 62.0584 123.602C63.6772 124.207 65.3958 124.889 66.4346 126.395C67.473 127.897 67.3893 130.484 65.8475 131.301Z" fill="#2F2E41"/>
<path d="M78.805 126.348C74.639 122.712 71.2706 123.333 68.6721 125.591C68.2353 125.054 66.3763 126.532 65.7469 126.32L63.4702 131.044C62.2987 133.329 61.8181 135.662 62.0075 136.974C59.8526 143.654 64.9627 148.165 71.0059 150.547C73.4173 151.504 76.0483 151.546 78.4837 150.667L78.558 149.528L79.0156 150.461C79.0156 150.461 84.5403 163.035 85.8458 163.6C85.0536 161.328 82.9644 150.533 82.3812 148.283C81.5816 145.221 82.1278 140.357 82.5978 137.375C82.8907 135.536 82.906 133.657 82.6431 131.813L82.6315 131.732L83.9241 134.616L86.8243 132.601C85.7159 129.032 85.6937 124.763 78.805 126.348Z" fill="#2F2E41"/>
</g>
</svg>
